<svg width="31" height="31" viewBox="0 0 31 31" fill="none" xmlns="http://www.w3.org/2000/svg">
    <path fill-rule="evenodd" clip-rule="evenodd" d="M17.05 24.8a3.1 3.1 0 1 1 0 6.2 3.1 3.1 0 0 1 0-6.2zm-9.701-4.65a3.875 3.875 0 1 1 0 7.75 3.875 3.875 0 0 1 0-7.75zm17.945.775a3.1 3.1 0 1 1 0 6.2 3.1 3.1 0 0 1 0-6.2zm3.381-6.48a2.325 2.325 0 1 1 0 4.65 2.325 2.325 0 0 1 0-4.65zM3.875 9.3a3.875 3.875 0 1 1 0 7.75 3.875 3.875 0 0 1 0-7.75zm23.693-1.23a1.55 1.55 0 1 1 0 3.1 1.55 1.55 0 0 1 0-3.1zM12.4 0a4.65 4.65 0 1 1 0 9.3 4.65 4.65 0 0 1 0-9.3zm11.625 4.65a.775.775 0 1 1 0 1.55.775.775 0 0 1 0-1.55z" fill="#8e4c92"/>
</svg>
