<svg xmlns="http://www.w3.org/2000/svg" xmlns:xlink="http://www.w3.org/1999/xlink" viewBox="0 0 110 110"><defs><style>.a{fill:url(#a);}.b{fill:url(#b);}.c{fill:url(#c);}.d{fill:url(#d);}.e{fill:url(#e);}.f{fill:url(#f);}.g{fill:url(#g);}.h{fill:url(#h);}.i{fill:url(#i);}.j{fill:url(#j);}.k{fill:url(#k);}.l{fill:url(#l);}.m{fill:url(#m);}.n{fill:url(#n);}.o{fill:url(#o);}.p{fill:url(#p);}.q{fill:url(#q);}.r{fill:url(#r);}.s{fill:url(#s);}.t{fill:url(#t);}.u{fill:url(#u);}.v{fill:url(#v);}.w{fill:url(#w);}.x{fill:url(#x);}.y{fill:url(#y);}.z{fill:url(#z);}.aa{fill:url(#aa);}.ab{fill:url(#ab);}.ac{fill:url(#ac);}.ad{fill:url(#ad);}.ae{fill:url(#ae);}</style><linearGradient id="a" x1="-2.43" y1="15.16" x2="32.63" y2="119.37" gradientUnits="userSpaceOnUse"><stop offset="0.01" stop-color="#eab245"/><stop offset="0.27" stop-color="#f1e3a6"/><stop offset="0.39" stop-color="#dcc07a"/><stop offset="0.6" stop-color="#b27c23"/><stop offset="0.86" stop-color="#e8ce7f"/><stop offset="0.89" stop-color="#eed688"/><stop offset="1" stop-color="#f6e8aa"/></linearGradient><linearGradient id="b" x1="8.37" y1="11.53" x2="43.42" y2="115.74" xlink:href="#a"/><linearGradient id="c" x1="47.15" y1="-1.51" x2="82.2" y2="102.7" xlink:href="#a"/><linearGradient id="d" x1="15.37" y1="9.17" x2="50.43" y2="113.38" xlink:href="#a"/><linearGradient id="e" x1="31.12" y1="3.88" x2="66.17" y2="108.09" xlink:href="#a"/><linearGradient id="f" x1="21.58" y1="7.08" x2="56.64" y2="111.29" xlink:href="#a"/><linearGradient id="g" x1="2.37" y1="13.55" x2="37.42" y2="117.76" xlink:href="#a"/><linearGradient id="h" x1="23.08" y1="6.58" x2="58.13" y2="110.79" xlink:href="#a"/><linearGradient id="i" x1="72.08" y1="-9.9" x2="107.14" y2="94.31" xlink:href="#a"/><linearGradient id="j" x1="53.12" y1="-3.52" x2="88.18" y2="100.69" xlink:href="#a"/><linearGradient id="k" x1="72.75" y1="-10.13" x2="107.8" y2="94.08" xlink:href="#a"/><linearGradient id="l" x1="65.94" y1="-7.84" x2="101" y2="96.37" xlink:href="#a"/><linearGradient id="m" x1="59.65" y1="-5.72" x2="94.7" y2="98.49" xlink:href="#a"/><linearGradient id="n" x1="-7.65" y1="16.92" x2="27.41" y2="121.13" xlink:href="#a"/><linearGradient id="o" x1="69.76" y1="-9.12" x2="104.82" y2="95.09" xlink:href="#a"/><linearGradient id="p" x1="-5.77" y1="16.29" x2="29.28" y2="120.5" xlink:href="#a"/><linearGradient id="q" x1="65.06" y1="-7.54" x2="100.11" y2="96.67" xlink:href="#a"/><linearGradient id="r" x1="69.16" y1="-8.92" x2="104.21" y2="95.29" xlink:href="#a"/><linearGradient id="s" x1="54.39" y1="-3.95" x2="89.45" y2="100.26" xlink:href="#a"/><linearGradient id="t" x1="-7.79" y1="16.97" x2="27.26" y2="121.18" xlink:href="#a"/><linearGradient id="u" x1="71.77" y1="-9.8" x2="106.82" y2="94.41" xlink:href="#a"/><linearGradient id="v" x1="-3.24" y1="15.43" x2="31.82" y2="119.64" xlink:href="#a"/><linearGradient id="w" x1="7.14" y1="11.94" x2="42.19" y2="116.15" xlink:href="#a"/><linearGradient id="x" x1="1.31" y1="13.9" x2="36.37" y2="118.11" xlink:href="#a"/><linearGradient id="y" x1="14.01" y1="9.63" x2="49.06" y2="113.84" xlink:href="#a"/><linearGradient id="z" x1="60.74" y1="-6.09" x2="95.79" y2="98.12" xlink:href="#a"/><linearGradient id="aa" x1="39.28" y1="1.13" x2="74.34" y2="105.34" xlink:href="#a"/><linearGradient id="ab" x1="29.63" y1="4.38" x2="64.68" y2="108.59" xlink:href="#a"/><linearGradient id="ac" x1="-6.32" y1="16.47" x2="28.73" y2="120.68" xlink:href="#a"/><linearGradient id="ad" x1="52.27" y1="-3.24" x2="87.33" y2="100.97" xlink:href="#a"/><linearGradient id="ae" x1="43.27" y1="-0.21" x2="78.32" y2="104" xlink:href="#a"/></defs><title>Монтажная область 1 копия 5</title><path class="a" d="M5.29,44.68h0A4.17,4.17,0,0,0,7,36.51a4.17,4.17,0,1,0-1.68,8.17Z"/><path class="b" d="M10.49,28.28a4.28,4.28,0,0,0,1.54.66,4.21,4.21,0,0,0,4.25-1.72,4.14,4.14,0,0,0-1.08-5.8,4,4,0,0,0-1.56-.67,4.09,4.09,0,0,0-3.17.65,4.35,4.35,0,0,0-1.06,1.08A4.11,4.11,0,0,0,8.74,24a4.22,4.22,0,0,0,1.75,4.24Z"/><path class="c" d="M49.05,10.75a2.51,2.51,0,0,0,.62.08A4.14,4.14,0,0,0,54,7.55a4.66,4.66,0,0,0,.08-.64,4.17,4.17,0,0,0-3.92-4.4,4,4,0,0,0-2.61.74,4.24,4.24,0,0,0-1.7,2.62,2.32,2.32,0,0,0-.07.59,4.09,4.09,0,0,0,3.29,4.29Z"/><path class="d" d="M15.43,21.17a4.3,4.3,0,0,0,2.19,1.2,4.17,4.17,0,0,0,3.85-7,4.32,4.32,0,0,0-2.19-1.21,4.18,4.18,0,0,0-3.2.65l-.51.4a4.21,4.21,0,0,0-.14,5.93Z"/><path class="e" d="M32.15,13.33a4,4,0,0,0,2.24-.18A4.15,4.15,0,0,0,37,10.09a4.07,4.07,0,0,0-.19-2.3,4.13,4.13,0,0,0-5.36-2.45,10.12,10.12,0,0,0-.93.47,4.22,4.22,0,0,0-1.7,2.59A4.4,4.4,0,0,0,29,10.69a4.35,4.35,0,0,0,3.14,2.64Z"/><path class="f" d="M49.83,87.48a4.25,4.25,0,0,0-2.15.73,4.2,4.2,0,0,0-1.75,2.61,5,5,0,0,0-.08,1,4.21,4.21,0,0,0,3.35,3.87,4.9,4.9,0,0,0,1,.08,4.18,4.18,0,0,0,3.87-3.35,5.16,5.16,0,0,0,.09-1,4.11,4.11,0,0,0-4.35-3.93Z"/><path class="g" d="M7.05,36.22a5.41,5.41,0,0,0,.79.24,4.17,4.17,0,0,0,2.49-7.91,4.71,4.71,0,0,0-.8-.27,4.18,4.18,0,0,0-4.66,2.45,5.32,5.32,0,0,0-.23.79,4.19,4.19,0,0,0,2.41,4.7Z"/><path class="h" d="M24.42,17.11A4.16,4.16,0,1,0,26.05,9a4.26,4.26,0,0,0-3,.53l0,0-.19.08a4.17,4.17,0,0,0,1.57,7.52Z"/><path class="i" d="M82.6,25a4.22,4.22,0,0,0-1.69,2.63,4.1,4.1,0,0,0,.43,2.85,4.27,4.27,0,0,0,2.83,2.07,4.21,4.21,0,0,0,4.92-3.29,4.1,4.1,0,0,0-.46-2.83A4.18,4.18,0,0,0,83,24.81l-.35.2Z"/><path class="j" d="M82.85,73.63a4.18,4.18,0,0,0-5.09-.25,3.37,3.37,0,0,0-.78.73A4.28,4.28,0,0,0,76.06,76a4.16,4.16,0,1,0,6.79-2.37Z"/><path class="k" d="M86,32.93a4.16,4.16,0,0,0-1.72,2.59,4.29,4.29,0,0,0,.1,2.1,4.15,4.15,0,0,0,3.16,2.82,4.54,4.54,0,0,0,2.07-.08,4.2,4.2,0,0,0,2.85-3.18,4.31,4.31,0,0,0-.11-2.07,4.18,4.18,0,0,0-5.23-2.74,3.37,3.37,0,0,0-1.12.56Z"/><path class="l" d="M71.25,18.78a4.28,4.28,0,0,0,1.69.78,4.18,4.18,0,0,0,3.38-7.4,3.9,3.9,0,0,0-1.72-.78,4.27,4.27,0,0,0-3.2.64,5,5,0,0,0-.91.88,4.2,4.2,0,0,0,.76,5.88Z"/><path class="m" d="M87.07,66.09a4.58,4.58,0,0,0-1.2-.44,4.1,4.1,0,0,0-4.48,2.08,4.28,4.28,0,0,0-.45,1.2,4.17,4.17,0,0,0,3.24,4.89,4.17,4.17,0,0,0,4.5-2l0,0a4.12,4.12,0,0,0-1.59-5.65Z"/><path class="n" d="M6.93,61.8a4.16,4.16,0,0,0-1.69-8.15,4.45,4.45,0,0,0-1.53.65A4.25,4.25,0,0,0,2,56.92a4.24,4.24,0,0,0,3.26,4.92,5,5,0,0,0,1.68,0Z"/><path class="o" d="M76,20.57a4.12,4.12,0,0,0,3.24,4.92,4.16,4.16,0,0,0,4-6.8,4.27,4.27,0,0,0-2.31-1.35,4.16,4.16,0,0,0-3.23.64,1.57,1.57,0,0,0-.33.26A4,4,0,0,0,76,20.57Z"/><path class="p" d="M5.26,53.32A4.18,4.18,0,0,0,9.35,50a3.66,3.66,0,0,0,.09-.81A4.17,4.17,0,0,0,5.28,45a4.18,4.18,0,0,0-4.1,3.33,4.54,4.54,0,0,0-.07.82,4.19,4.19,0,0,0,3.33,4.1,3.55,3.55,0,0,0,.82.09Z"/><path class="q" d="M92.37,63.06a4.19,4.19,0,0,0-2.74-5.22,3.39,3.39,0,0,0-.43-.11,4.27,4.27,0,0,0-3.18.65,4.08,4.08,0,0,0-1.6,2.16,2,2,0,0,0-.11.41,4.13,4.13,0,0,0,2.85,4.81,4.24,4.24,0,0,0,.41.11,4.09,4.09,0,0,0,4.8-2.81Z"/><path class="r" d="M90.53,49.26a4.07,4.07,0,0,0-2.78.73A4.12,4.12,0,0,0,86,52.6,2.2,2.2,0,0,0,86,53a4.17,4.17,0,0,0,3.32,4.5c.13,0,.27.05.42.06a4.17,4.17,0,0,0,4.5-3.32,1.77,1.77,0,0,0,.06-.42,4.08,4.08,0,0,0-3.72-4.53Z"/><path class="s" d="M57.36,12l.2,0a4.16,4.16,0,0,0,1.87-8.11l-.17,0A4.27,4.27,0,0,0,56,4.54a4.14,4.14,0,0,0-1.64,2.38l0,.19a4.19,4.19,0,0,0,3,4.9Z"/><path class="t" d="M12.76,66.78a4,4,0,0,0-.26-2.46A4.17,4.17,0,0,0,7,62.12a2.94,2.94,0,0,0-.74.41,4.16,4.16,0,0,0-1.69,2.6,4,4,0,0,0,.26,2.46,4.18,4.18,0,0,0,3,2.46,4,4,0,0,0,2.46-.26,4.26,4.26,0,0,0,2.43-3Z"/><path class="u" d="M89.72,40.65a3.76,3.76,0,0,0-2,.69A4.14,4.14,0,0,0,86,45.19v0a4.16,4.16,0,0,0,3.31,3.66,3.79,3.79,0,0,0,1.26,0,4.19,4.19,0,0,0,3.67-3.33,3.79,3.79,0,0,0,0-1.26,4.12,4.12,0,0,0-4.55-3.69Z"/><path class="v" d="M21.39,77.1a4.11,4.11,0,0,0-2-1.07,4.33,4.33,0,0,0-3.23.66,5.57,5.57,0,0,0-.67.55,4.29,4.29,0,0,0-1.05,2.05,4.22,4.22,0,0,0,1.22,3.87,4.17,4.17,0,0,0,2,1A4.24,4.24,0,0,0,21.57,83a4.16,4.16,0,0,0-.18-5.89Z"/><path class="w" d="M34.53,85.19a2.7,2.7,0,0,0-.6-.17,4.11,4.11,0,0,0-3.2.64,4.22,4.22,0,0,0-1.54,2,2.74,2.74,0,0,0-.18.6A4.15,4.15,0,0,0,31.65,93a2.59,2.59,0,0,0,.6.18,4.16,4.16,0,0,0,2.28-8Z"/><path class="x" d="M27.53,81.82a4,4,0,0,0-1.34-.53,4.32,4.32,0,0,0-3.22.64,3.83,3.83,0,0,0-1.16,1.24,4.08,4.08,0,0,0,1.35,5.72,3.71,3.71,0,0,0,1.35.55,4.16,4.16,0,0,0,3-7.62Z"/><path class="y" d="M42.07,87.12a4.39,4.39,0,0,0-3,.69,4,4,0,0,0-1.7,2.62l0,.19a4.19,4.19,0,0,0,3.3,4.7l.2,0a4.17,4.17,0,0,0,4.69-3.25l0-.25a4.14,4.14,0,0,0-3.5-4.74Z"/><path class="z" d="M64.65,14.68a3.88,3.88,0,0,0,1,.36A4.17,4.17,0,0,0,68.3,7.21a3.54,3.54,0,0,0-1-.33,4.25,4.25,0,0,0-3.22.64,4.6,4.6,0,0,0-1.39,1.6,4.43,4.43,0,0,0-.33,1,4.16,4.16,0,0,0,2.27,4.57Z"/><path class="aa" d="M40.45,11.16a4,4,0,0,0,1.47,0,4.15,4.15,0,0,0,3.45-3.3,3.85,3.85,0,0,0,0-1.44,4.16,4.16,0,0,0-4.76-3.5,4.34,4.34,0,0,0-1.76.68,4.14,4.14,0,0,0-1.72,2.62,3.85,3.85,0,0,0,0,1.44,4.23,4.23,0,0,0,3.32,3.48Z"/><path class="ab" d="M57.5,86.28a5.1,5.1,0,0,0-1.34.61,4.15,4.15,0,0,0-1.7,2.62,3.91,3.91,0,0,0,0,1.86,4.16,4.16,0,0,0,5.07,3,4.15,4.15,0,0,0,3-3.21,4,4,0,0,0,0-1.89,4.16,4.16,0,0,0-5.07-3Z"/><path class="ac" d="M16.35,71.23h0l-.1-.14a4.21,4.21,0,0,0-5.79-1,4.16,4.16,0,0,0-1.7,2.6,4.22,4.22,0,0,0,.64,3.22l.1.14a4.12,4.12,0,0,0,2.57,1.69,4.17,4.17,0,0,0,4.28-6.46Z"/><path class="ad" d="M108.89,104.08l-6.57-2.73L104.47,96l-5.33-.5,1-7.42a16.69,16.69,0,0,1-16.61,7.32,7.6,7.6,0,0,0-.92-2,6.48,6.48,0,0,0-7-3l-2.38-3.63a4.17,4.17,0,0,0,4-6.65,4.21,4.21,0,0,0-2.46-1.53,4.08,4.08,0,0,0-3.19.64l-.2.11a4.22,4.22,0,0,0-1.54,2.48,4.27,4.27,0,0,0,.76,3.35l-.31.14a4.15,4.15,0,0,0-5.52-1.78,4.9,4.9,0,0,0-.51.3,4.22,4.22,0,0,0-1.38,5.3,3.47,3.47,0,0,1,.26.45,4.19,4.19,0,0,0,5.31,1.44l.49-.28a4.21,4.21,0,0,0,1.76-2.69l2.6,3.93A5.26,5.26,0,0,0,72.1,95a7.34,7.34,0,0,0,5,7.55,3.33,3.33,0,0,0,.57.17,5.26,5.26,0,0,0,2.56-.11c7.81,5.82,18.75,6.64,28.67,1.48Z"/><circle class="ae" cx="73.18" cy="88.7" r="4.25"/></svg>