<svg xmlns="http://www.w3.org/2000/svg" viewBox="0 0 110 110"><title>Монтажная область 1 копия 2</title><path d="M48,0a4.07,4.07,0,0,1,3.22,1.58,8.93,8.93,0,0,0-1.06,2.58,2.12,2.12,0,0,0-.2-.24,2.71,2.71,0,0,0-3.13-.5,5.72,5.72,0,0,0-.56.39L46.3,1.7A1.7,1.7,0,0,1,48,0Z"/><path d="M54.55.76a1.17,1.17,0,0,1,.62.11c.35.16.69.58.79,1.45l4.95,42.15a.76.76,0,0,0,.82.7.74.74,0,0,0,.62-.87l-4-34.38a.58.58,0,0,0,0-.29,4.84,4.84,0,0,1,2.13-3.69c.5-.27.81-.27,1.1-.08s.67.77.81,2L66.7,44.47a.75.75,0,0,0,.83.66.72.72,0,0,0,.65-.83L67,33.89a4.16,4.16,0,0,1,2.62-3.14,1.7,1.7,0,0,1,1.42,0c.29.19.54.52.54,1.44,0,1.39-.13,6.62.14,12.73s1,13.2,2.79,18.53c1.11,3.31.94,9.34.56,13.63-.22,2.7-1,5.76,1.13,9,2.45,3.66,6.18,6.76,10.61,9.53-6.41,5.83-13,11.2-20.77,14.38-3.18-6.39-5.95-9.53-12-14.26s-11-8.9-12.69-15.25C36.42,62.43,38.83,42.78,40,24.13c.16-2.7,1.41-4.33,2.35-4.74a.91.91,0,0,1,1.06.06,2.15,2.15,0,0,1,.6,1.44c0,.06,0,.12,0,.18s0,.11,0,.17l1.49,24.54A.73.73,0,1,0,47,45.69L45.51,21.18c0-.17,0-.34-.06-.48l-.31-5.41a23.63,23.63,0,0,1,.58-7.72,4.56,4.56,0,0,1,1.75-2.81A1.11,1.11,0,0,1,48.89,5a3.35,3.35,0,0,1,.83,2.37.9.9,0,0,0,0,.23l4.39,37.58a.75.75,0,0,0,.83.67.72.72,0,0,0,.65-.83L51.17,7.3c0-3.54,1.4-5.58,2.56-6.25a2.32,2.32,0,0,1,.82-.29Z"/><path d="M43.16,5a2.42,2.42,0,0,1,1.19.64.68.68,0,0,0,.41.21,9.39,9.39,0,0,0-.45,1.27,24.77,24.77,0,0,0-.63,8.22L43.83,18a2.44,2.44,0,0,0-2.08,0,2,2,0,0,0-.44.25.48.48,0,0,0-.19-.09A7.44,7.44,0,0,0,39.21,18L40.67,7.69a3.32,3.32,0,0,1,1.45-2.5,1.7,1.7,0,0,1,1-.18Z"/><path d="M39.29,19.39c.23,0,.46,0,.73.08A8.5,8.5,0,0,0,38.52,24c-1.14,18.58-3.62,38.4,1.33,56.88a20,20,0,0,0,1.61,4,19,19,0,0,0-5.29.82l-9.28,3A17,17,0,0,1,24,73.31l6.21-2.71a.69.69,0,0,0,.43-.6l4.68-45.49a8.08,8.08,0,0,1,1.36-4,3.08,3.08,0,0,1,2.66-1.08Z"/></svg>