<svg xmlns="http://www.w3.org/2000/svg" xmlns:xlink="http://www.w3.org/1999/xlink" viewBox="0 0 110 110"><defs><style>.a{fill:url(#a);}.b{fill:url(#b);}</style><linearGradient id="a" x1="34.34" y1="-10.63" x2="69.39" y2="112.52" gradientUnits="userSpaceOnUse"><stop offset="0.01" stop-color="#eab245"/><stop offset="0.27" stop-color="#f1e3a6"/><stop offset="0.39" stop-color="#dcc07a"/><stop offset="0.6" stop-color="#b27c23"/><stop offset="0.86" stop-color="#e8ce7f"/><stop offset="0.89" stop-color="#eed688"/><stop offset="1" stop-color="#f6e8aa"/></linearGradient><linearGradient id="b" x1="41.13" y1="-12.57" x2="76.18" y2="110.59" xlink:href="#a"/></defs><title>Монтажная область 1 копия 9</title><path class="a" d="M55.28,43.53c-1.14-.3-2.9-.79,0,0l.73.19-.73-.19A66.53,66.53,0,0,0,65.53,45a16.43,16.43,0,0,0,3.36-.11c-1.85-1.53-3.65-3.13-5.29-4.61C57.37,34.62,54,29.79,48.75,22.1c-2.09-3.1-5.17-7.7-7.27-10.51-9.12-11.65-14.77,5-15,16.17a69.45,69.45,0,0,0,13,8.86c4.82,2.56,11,5.63,15.74,6.91Z"/><path class="b" d="M99.16,39.34a14.05,14.05,0,0,0,5.22,0c3.24-.51,5.76-1.62,5.61-2.47s-2.86-1.14-6.11-.63c-2.79.45-5,1.34-5.52,2.12a.22.22,0,0,1-.07.06,17.43,17.43,0,0,0,.85-3.89c.38-3.26,0-6-.89-6.07S96.38,30.9,96,34.16c-.32,2.78-.07,5.16.53,5.86A25.69,25.69,0,0,0,94.3,42.6,13.52,13.52,0,0,0,93,37.47c-1.29-3-3-5.18-3.76-4.84s-.41,3.06.87,6.07c1.14,2.69,2.58,4.69,3.46,4.88a23.56,23.56,0,0,0-2.27,4.05c-.67-.47-1.37-.93-2-1.39s-1.06-2.05-1.54-2.8a6,6,0,0,0-3.17-2.62c-2.47-.75-5.47.89-7.36,2.35A18.05,18.05,0,0,1,71,46.59a21.33,21.33,0,0,1-7.88.32,53.08,53.08,0,0,1-8.39-1.33c-5-1.34-11.28-4.47-16.19-7.06A68.91,68.91,0,0,1,26.6,30.61c-2.24-1.81-4.52-3.83-7.14-6.16s-5.06-4.54-7.64-6.75c-2.2-1.86-6.49-5.81-9.3-2.85C.4,17.09.13,21,0,23.86A40,40,0,0,0,1.3,35.35C4.14,45.84,12.3,51,21,56.36c3.64,2.28,8.52,5.16,12,7.75,3,2.19,9.44,6.14,7.59,12-1.12,3.57-6.89,5.56-10.19,5.63-3.9.09-9.6-1.58-13.09.77-2.62,1.76-2,6.16-1.36,8.76.84,3.6,2.64,7.38,5.6,9.69,1.07.84,2.42,1.66,3.83,1.36,1.94-.41,3.67-1.84,5.16-3,3.74-3,7-7.27,11.64-8.85,14.69-5,22.66-3.74,30.69-10,7.36-5.7,7.88-14.31,9.43-22.89A9.68,9.68,0,0,1,87,50.64c1.19-.72,2.62-1.39,3.94-2a18.33,18.33,0,0,0-1.25,6.95l1.28,0a19.34,19.34,0,0,1,4-11.63,12.19,12.19,0,0,0,5.3,1.69c3.24.44,6,.11,6.09-.75s-2.42-1.92-5.67-2.37a15.55,15.55,0,0,0-4.56,0,35.77,35.77,0,0,1,3.1-3ZM83.82,46.66a1.49,1.49,0,0,1-1.49-1.49,1.5,1.5,0,1,1,1.49,1.49Z"/></svg>