<svg xmlns="http://www.w3.org/2000/svg" xmlns:xlink="http://www.w3.org/1999/xlink" viewBox="0 0 110 110"><defs><style>.a,.b,.c{fill-rule:evenodd;}.a{fill:url(#a);}.b{fill:url(#b);}.c{fill:url(#c);}</style><linearGradient id="a" x1="32.8" y1="-15.53" x2="69.75" y2="106.68" gradientUnits="userSpaceOnUse"><stop offset="0.01" stop-color="#eab245"/><stop offset="0.27" stop-color="#f1e3a6"/><stop offset="0.39" stop-color="#dcc07a"/><stop offset="0.6" stop-color="#b27c23"/><stop offset="0.86" stop-color="#e8ce7f"/><stop offset="0.89" stop-color="#eed688"/><stop offset="1" stop-color="#f6e8aa"/></linearGradient><linearGradient id="b" x1="48.34" y1="-20.23" x2="85.29" y2="101.98" xlink:href="#a"/><linearGradient id="c" x1="49.74" y1="-20.65" x2="86.69" y2="101.56" xlink:href="#a"/></defs><title>Монтажная область 1 копия</title><path class="a" d="M57.68,65.45c1.37,2.17,2.7,4.13,3.89,6.18C65,77.61,67.08,84,66.6,91a19.56,19.56,0,0,1-16.94,18.57c-11.73,1.84-21.56-2-29.82-10.25-8.6-8.58-13.63-19.06-16-30.87C3.15,65.21,2.74,62,2.21,58.65L6.1,57.5c1,4,1.77,7.93,2.92,11.74,2.94,9.73,7.7,18.38,15.64,25A26,26,0,0,0,41,100.32a15.74,15.74,0,0,0,15.8-13.6,27.74,27.74,0,0,0-4.25-18.63C51,65.54,49,63.22,47.21,60.82c-2.15,2.21-4,4.26-6,6.14a23.68,23.68,0,0,1-7,4.47l-4.9-11.55c2.42-1,4.81-1.87,7.09-3a17.33,17.33,0,0,0,7.43-6.32,12.06,12.06,0,0,0,1.48-9.38,6.32,6.32,0,0,0-4.62-4.79c-4.89-1.48-9.67-.65-14.35.94-2.1.72-4.13,1.69-6.34,2.61-1.57-3.81-3.13-7.61-4.86-11.77,2.62-.82,5.1-1.8,7.68-2.35C28,24.77,33.1,24.7,38,26.72A19.79,19.79,0,0,1,50.09,40.61a22.39,22.39,0,0,1,.08,12.62l-.06.26c-.7,2.3-.7,2.3,1.39,3.83,5.71-5,11.73-9.56,20-8.76.69-2.14,1.22-4.28,2-6.3,3.34-8.34,9.85-12,18.75-10.73,6.24.91,10,4.79,12.42,10.36a42,42,0,0,1,2.95,14.39c.39,7.4.21,14.78-2.07,21.93-1.78,5.59-4.43,10.68-9.5,14a16.43,16.43,0,0,1-15.72,1.68,8.89,8.89,0,0,1-5-5.52C74,84.68,73.75,80.83,73.68,77c-.07-3.2-.08-6.41-.26-9.61a11.13,11.13,0,0,0-.88-3.42,4.24,4.24,0,0,0-4.91-2.87c-3.74.45-6.85,2.3-9.95,4.4M75.32,49.8c2.07,1.77,3,3.11,3.27,5.15A26.4,26.4,0,0,1,78.93,59c0,4.48-.16,9,0,13.44a32.22,32.22,0,0,0,1.33,7.6,6,6,0,0,0,5.29,4.37A11.76,11.76,0,0,0,93.08,83,17.44,17.44,0,0,0,100,75c2.59-5.38,2.88-11.1,2.27-16.89A21.94,21.94,0,0,0,97.9,46.85,13.25,13.25,0,0,0,75.32,49.8"/><path class="b" d="M71.75,11.34l9.77,8.12a34.42,34.42,0,0,1-9.28,7.41c-9,4.62-17.46,3.13-25.38-2.56a34.35,34.35,0,0,1-9.37-10.38l3.45-2.58c4,5,8.81,8.39,15.43,8.52s11.43-3.36,15.38-8.53"/><path class="c" d="M50.89,6.88c2.5-2.37,4.89-4.63,7.24-6.88l7.2,7.16c-2.31,2.46-4.63,4.95-7,7.5L50.89,6.88"/></svg>