<svg xmlns="http://www.w3.org/2000/svg" xmlns:xlink="http://www.w3.org/1999/xlink" viewBox="0 0 548.4 109.09"><defs><style>.a,.b,.c,.d,.e,.f,.g,.h,.i,.j,.k,.l,.m,.n,.o,.p,.q,.r,.s,.t,.u,.v{fill-rule:evenodd;}.a{fill:url(#a);}.b{fill:url(#b);}.c{fill:url(#c);}.d{fill:url(#d);}.e{fill:url(#e);}.f{fill:url(#f);}.g{fill:url(#g);}.h{fill:url(#h);}.i{fill:url(#i);}.j{fill:url(#j);}.k{fill:url(#k);}.l{fill:url(#l);}.m{fill:url(#m);}.n{fill:url(#n);}.o{fill:url(#o);}.p{fill:url(#p);}.q{fill:url(#q);}.r{fill:url(#r);}.s{fill:url(#s);}.t{fill:url(#t);}.u{fill:url(#u);}.v{fill:url(#v);}</style><linearGradient id="a" x1="133.51" y1="7.64" x2="184.04" y2="163.01" gradientUnits="userSpaceOnUse"><stop offset="0.01" stop-color="#eab245"/><stop offset="0.27" stop-color="#f1e3a6"/><stop offset="0.39" stop-color="#dcc07a"/><stop offset="0.6" stop-color="#b27c23"/><stop offset="0.86" stop-color="#e8ce7f"/><stop offset="0.89" stop-color="#eed688"/><stop offset="1" stop-color="#f6e8aa"/></linearGradient><linearGradient id="b" x1="213.98" y1="-18.53" x2="264.5" y2="136.84" xlink:href="#a"/><linearGradient id="c" x1="211.53" y1="-17.73" x2="262.06" y2="137.63" xlink:href="#a"/><linearGradient id="d" x1="205.83" y1="-15.88" x2="256.36" y2="139.49" xlink:href="#a"/><linearGradient id="e" x1="237.71" y1="-26.25" x2="288.24" y2="129.12" xlink:href="#a"/><linearGradient id="f" x1="200.19" y1="-14.05" x2="250.71" y2="141.32" xlink:href="#a"/><linearGradient id="g" x1="228.63" y1="-23.29" x2="279.15" y2="132.07" xlink:href="#a"/><linearGradient id="h" x1="219.54" y1="-20.34" x2="270.07" y2="135.03" xlink:href="#a"/><linearGradient id="i" x1="204.23" y1="-15.36" x2="254.75" y2="140.01" xlink:href="#a"/><linearGradient id="j" x1="182.12" y1="-8.17" x2="232.65" y2="147.2" xlink:href="#a"/><linearGradient id="k" x1="100.57" y1="18.35" x2="151.09" y2="173.72" xlink:href="#a"/><linearGradient id="l" x1="391.81" y1="-76.36" x2="442.33" y2="79.01" xlink:href="#a"/><linearGradient id="m" x1="311.33" y1="-50.19" x2="361.86" y2="105.18" xlink:href="#a"/><linearGradient id="n" x1="286.46" y1="-42.1" x2="336.99" y2="113.27" xlink:href="#a"/><linearGradient id="o" x1="296.22" y1="-45.28" x2="346.75" y2="110.09" xlink:href="#a"/><linearGradient id="p" x1="248.27" y1="-29.68" x2="298.79" y2="125.69" xlink:href="#a"/><linearGradient id="q" x1="325.13" y1="-54.68" x2="375.66" y2="100.69" xlink:href="#a"/><linearGradient id="r" x1="260.15" y1="-33.54" x2="310.67" y2="121.82" xlink:href="#a"/><linearGradient id="s" x1="275.92" y1="-38.67" x2="326.45" y2="116.69" xlink:href="#a"/><linearGradient id="t" x1="303.78" y1="-47.73" x2="354.31" y2="107.63" xlink:href="#a"/><linearGradient id="u" x1="327.53" y1="-55.46" x2="378.05" y2="99.91" xlink:href="#a"/><linearGradient id="v" x1="416.74" y1="-84.47" x2="467.27" y2="70.9" xlink:href="#a"/></defs><title>Монтажная область 12</title><path class="a" d="M27.13,2.24C20.17,4,16.45,8,8.93,5.14a17.82,17.82,0,0,1-5-2.9Zm15.48,0H261.67a1.12,1.12,0,0,0,0-2.24H1.12A1.13,1.13,0,0,0,.29,1.88C4.66,6.65,11.25,9.66,17.88,9,25.19,8.17,35.26,2.24,42.61,2.24Z"/><path class="b" d="M168.17.36A1.11,1.11,0,0,0,166.59.3a1.12,1.12,0,0,0-.06,1.59C188.26,28.51,222.4,24,252.13,11.6c7.35-3.07,15.13-6.79,22.07-9.29V0a1.15,1.15,0,0,0-.41.08C265.8,2.74,257.6,5,250,8,222.21,19,188.31,24.35,168.17.36Z"/><path class="c" d="M198.68,73.86c-.61,0-1.13,2.16-1.15,2.78a1.13,1.13,0,0,0,1.08,1.16c32.37,2,49.91-19.25,62.74-43.32,2.67-5,4.39-10.18,6.65-15.34a1.12,1.12,0,0,0-2.06-.9C253.25,44.78,234.92,75.19,198.68,73.86Z"/><path class="d" d="M197.53,76.72a1.12,1.12,0,1,0,2.23-.08c-1.25-34,24.92-52.47,52.42-65.07a1.12,1.12,0,0,0,.55-1.48,1.13,1.13,0,0,0-1.48-.56C222.86,22.55,196.24,41.66,197.53,76.72Z"/><path class="e" d="M273.44,108.79a1.11,1.11,0,0,0,.76.3v-5.54c-16.58-20-20.64-35.76-14-61.47A203.06,203.06,0,0,1,268,19a1.12,1.12,0,0,0-2.09-.82,210.3,210.3,0,0,0-7.82,23.38,92.24,92.24,0,0,0-3.28,22.14C254.64,81,260.67,96.93,273.44,108.79Z"/><path class="f" d="M274.2,0H136.86a1.13,1.13,0,0,0-1.13,1.12,1.13,1.13,0,0,0,1.13,1.12H274.2Z"/><path class="g" d="M238.05,85.88c-.52.2-.91,3.12.55,2.55,23.76-6.3,32.69-27.35,35.6-48.09v-7a.75.75,0,0,0-.78.65C270.49,56.87,261.05,76.75,238.05,85.88Z"/><path class="h" d="M237.58,88.45c.17.37.67.13,1,0s.55-1.44.39-1.82c-7.12-18-4.18-35.93,5.73-52a115.78,115.78,0,0,1,6.77-9.69.76.76,0,0,0-.13-1.05.75.75,0,0,0-1,.14,111.7,111.7,0,0,0-6.85,9.82C233.26,50.37,229.61,70.13,237.58,88.45Z"/><path class="i" d="M188.76,36.1a2.31,2.31,0,0,0-1.86.6.75.75,0,0,0,.39,1c22.52,12.93,45.36,4.15,63-11.62.32-.25,1.41-1.79,1.16-2.11a.75.75,0,0,0-1-.14C232.18,37.9,211.39,46,188.76,36.1Z"/><path class="j" d="M186.89,36.73a.74.74,0,0,0,.43,1c.38.15,1.66-1,1.82-1.43a44.91,44.91,0,0,1,11.4-17.19.74.74,0,0,0,0-1.05.75.75,0,0,0-1.06,0A52.3,52.3,0,0,0,186.89,36.73Z"/><path class="k" d="M36.32,9.21c-2.61,3-7.52,4.32-10.7,3a1.12,1.12,0,0,0-.86,2.07c4.52,1.91,10.27,2.1,11.81-.91,1.26,7.56,14.37,9.82,16,2C54,8.82,43.56,7.29,42,11.49a1.12,1.12,0,0,0,2.09.8c.65-1.68,5.09-1.78,4.49,1.77-.81,4.76-11.34,2.65-10.35-3.21.49-2.92,3.25-3.77,6.21-3.77H152.67c3,0,5.71.85,6.21,3.78h0c1,5.85-9.55,8-10.35,3.2-.6-3.55,3.84-3.45,4.48-1.77a1.12,1.12,0,0,0,2.1-.8c-1.6-4.2-10-3.23-8.79,2.93,1.46,7.63,15.68,8.19,16.32-.73C166,16.32,170,18,174,17.33c1.45-.24.38-3.64-1.07-3.4a12.93,12.93,0,0,1-6.62-.91,14.24,14.24,0,0,1-5.53-3.8,6.1,6.1,0,0,0-2.61-3.11,10.44,10.44,0,0,0-5.47-1.28H44.4C40.81,4.83,37.54,6,36.32,9.21Z"/><path class="l" d="M521.27,2.24C528.23,4,532,8,539.47,5.14a18,18,0,0,0,5-2.9Zm-15.48,0H286.73a1.12,1.12,0,0,1,0-2.24H547.28a1.13,1.13,0,0,1,.83,1.88c-4.37,4.77-11,7.78-17.6,7.08C523.21,8.17,513.14,2.24,505.79,2.24Z"/><path class="m" d="M380.23.36A1.11,1.11,0,0,1,381.81.3a1.12,1.12,0,0,1,.06,1.59C360.14,28.51,326,24,296.27,11.6c-7.35-3.07-15.13-6.79-22.07-9.29V0a1.15,1.15,0,0,1,.41.08C282.6,2.74,290.8,5,298.37,8,326.19,19,360.09,24.35,380.23.36Z"/><path class="n" d="M349.72,73.86c.61,0,1.13,2.16,1.15,2.78a1.13,1.13,0,0,1-1.08,1.16c-32.37,2-49.91-19.25-62.74-43.32-2.67-5-4.39-10.18-6.64-15.34a1.11,1.11,0,0,1,.57-1.47,1.13,1.13,0,0,1,1.48.57C295.15,44.78,313.48,75.19,349.72,73.86Z"/><path class="o" d="M350.87,76.72a1.12,1.12,0,1,1-2.23-.08c1.24-34-24.92-52.47-52.42-65.07a1.12,1.12,0,0,1-.55-1.48,1.13,1.13,0,0,1,1.48-.56C325.54,22.55,352.16,41.66,350.87,76.72Z"/><path class="p" d="M275,108.79a1.11,1.11,0,0,1-.76.3v-5.54c16.58-20,20.64-35.76,14-61.47A205.15,205.15,0,0,0,280.42,19a1.12,1.12,0,0,1,2.09-.82,210.3,210.3,0,0,1,7.82,23.38,92.24,92.24,0,0,1,3.28,22.14C293.76,81,287.73,96.93,275,108.79Z"/><path class="q" d="M274.2,0H411.54a1.13,1.13,0,0,1,1.13,1.12,1.13,1.13,0,0,1-1.13,1.12H274.2Z"/><path class="r" d="M310.36,85.88c.51.2.9,3.12-.56,2.55-23.76-6.3-32.7-27.35-35.6-48.09v-7A.75.75,0,0,1,275,34C277.91,56.87,287.35,76.75,310.36,85.88Z"/><path class="s" d="M310.82,88.45c-.17.37-.67.13-1,0s-.55-1.44-.39-1.82c7.12-18,4.18-35.93-5.74-52a111.09,111.09,0,0,0-6.76-9.69.75.75,0,1,1,1.18-.91,111.7,111.7,0,0,1,6.85,9.82C315.14,50.37,318.79,70.13,310.82,88.45Z"/><path class="t" d="M359.64,36.1a2.28,2.28,0,0,1,1.85.6.73.73,0,0,1-.38,1c-22.52,12.93-45.36,4.15-63-11.62-.33-.25-1.42-1.79-1.17-2.11a.74.74,0,0,1,1-.14C316.22,37.9,337,46,359.64,36.1Z"/><path class="u" d="M361.51,36.73a.74.74,0,0,1-.43,1c-.38.15-1.67-1-1.82-1.43a44.91,44.91,0,0,0-11.4-17.19.74.74,0,0,1,0-1.05.75.75,0,0,1,1.06,0A52.3,52.3,0,0,1,361.51,36.73Z"/><path class="v" d="M512.07,9.21c2.61,3,7.53,4.32,10.71,3a1.12,1.12,0,0,1,.86,2.07c-4.52,1.91-10.27,2.1-11.81-.91-1.26,7.56-14.36,9.82-16,2-1.41-6.56,9-8.09,10.65-3.89a1.12,1.12,0,0,1-2.1.8c-.64-1.68-5.08-1.78-4.48,1.77.81,4.76,11.34,2.65,10.35-3.21C509.72,7.93,507,7.08,504,7.08H395.73c-3,0-5.72.85-6.21,3.78h0c-1,5.85,9.55,8,10.35,3.2.6-3.55-3.84-3.45-4.48-1.77a1.12,1.12,0,0,1-2.1-.8c1.61-4.2,10-3.23,8.79,2.93-1.46,7.63-15.68,8.19-16.32-.73-3.33,2.63-7.35,4.29-11.33,3.64-1.45-.24-.38-3.64,1.07-3.4a12.93,12.93,0,0,0,6.62-.91,14.24,14.24,0,0,0,5.53-3.8,6.13,6.13,0,0,1,2.6-3.11,10.51,10.51,0,0,1,5.48-1.28H504C507.59,4.83,510.86,6,512.07,9.21Z"/></svg>