<svg xmlns="http://www.w3.org/2000/svg" xmlns:xlink="http://www.w3.org/1999/xlink" viewBox="0 0 110 110"><defs><style>.a{fill:url(#a);}</style><linearGradient id="a" x1="36.91" y1="117.74" x2="74.81" y2="-23.42" gradientUnits="userSpaceOnUse"><stop offset="0.01" stop-color="#eab245"/><stop offset="0.27" stop-color="#f1e3a6"/><stop offset="0.39" stop-color="#dcc07a"/><stop offset="0.6" stop-color="#b27c23"/><stop offset="0.76" stop-color="#e0c57e"/><stop offset="0.84" stop-color="#f6e8aa"/><stop offset="0.89" stop-color="#eed688"/></linearGradient></defs><title>Монтажная область 1 копия 7</title><path class="a" d="M2.61,41.46c4.18,4,9.72,4,14.55.51h0c.29-.21.57-.42.85-.65.76-.47,1.85-.83,2.52.31.87,1.47-.76,2.6-3.05,4.09-2.45,1.58-4.67,3.86-4,7.53s1.91,4.57,1.9,6.31a14.05,14.05,0,0,1-.56,3.49,9,9,0,0,1,2.83-4c2.2-1.82,5.09-2.93,5.73-6.68s-2.53-8.38.53-8.85c1.08-.17,1.6.52,1.68,1.77a40.81,40.81,0,0,0,.77,11.52c1.52,6.57,8.32,19.77,25.06,16.84S68.79,49.8,57.54,46.18c-4.33-1.4-7.17.19-8.39,1.61-.28.34-.52.67-.73,1-.05.06-.11.1-.15.16a4.73,4.73,0,1,0,7.59.44c.25.13.5.28.75.44,4,2.53,5.42,11.47-3.11,15.24-8,3.52-17.55-1.5-21-15.51s6.15-20.12,11.91-22.85a6.18,6.18,0,0,1,1.44-.29c1.11-.08,2.55,2,.15,3-6,2.35-8.07,10.92-.39,14,7,2.87,11.82-1.63,12.91-5.77a10.55,10.55,0,0,0-.06-4.48s-1.68,6.6-7,5.79c-3.42-.51-5.22-4.29-1-10.29,2.29-3.25,7-4.19,10.68-4.38a41.8,41.8,0,0,1,4.38.38c2.2,7.91,3.19,12.26,9.22,15.26s13.57-3.32,17.73.9A29.88,29.88,0,0,1,97,51.64c-1.71-1.46-3.69-2-5.43-3.1s-4-4.93-4-4.93.88,9.75,2,11.54c2.63,4.29,6.13,5.48,5.32,8-.88,2.75-3.55,2-5-2.57s-1.25-8.7-9.57-9.09c-3.65-.17-9.93-2-9.93-2a9.8,9.8,0,0,1,4.23,4.92c1.37,3.09,2.56,7,6.14,7.8s8.27,1.78,6.91,4.71c-.73,1.59-2.52.88-4.4-.34s-3.69-3-7-2.35c-10.62,2.17-7,12.66-7,12.66a11.47,11.47,0,0,1,9.35-5.73C84,70.62,89,75.6,89.08,80.66,89.24,89.56,84.33,96,75,96.45,63.26,97,58.32,88.66,57.74,86.26a15.45,15.45,0,0,1-.39-2.38,5.09,5.09,0,1,0,1.23-8.82,5,5,0,0,0-2.77,2.58h0c-.26.39-1.71,3.7-.61,9.18,1.42,7,10,15.58,19.6,16a28.11,28.11,0,0,0,19.94-6.87s.49-.51.53-.56c5.06-5.12,19.6-23.91,13.11-46.29C102.23,27.9,81.09,21.15,73.05,19.32c-6.15-8-11.92-10.46-16.41-11.73A6.83,6.83,0,0,0,51.15,8a3.59,3.59,0,0,0-.82.53l-.1.06h0a4,4,0,0,0-.36.35,3.56,3.56,0,1,0,5.79.46,10.78,10.78,0,0,1,4.36,2.75,19.46,19.46,0,0,1,3.58,6.54,54.36,54.36,0,0,0-7.28-.2,50.81,50.81,0,0,0-6.76.77,22.23,22.23,0,0,0-5.21.86q-.41.09-.87.24C36.08,22.45,25,27.48,17.71,34.7,13,39.38,8.84,40.06,6.17,37.1a5.87,5.87,0,0,1-1.69-5.46,3.56,3.56,0,1,0,3-4.35l.13-.09C1.82,27-3.26,35.79,2.61,41.46Zm81.08-4c-3.38-.18-3.88-3.9-5.68-8.92a41.66,41.66,0,0,1,5.11,3.07,41,41,0,0,1,5.21,4.31C88.14,36.59,87.3,37.65,83.69,37.46ZM105,50.71A48.87,48.87,0,0,1,102.46,79a42.29,42.29,0,0,0,2.09-10.47c1.24-18.44-6-31.14-20.63-42.21a37.89,37.89,0,0,0-6.63-4C90.08,27.31,102,37.15,105,50.71Z"/></svg>