<svg version="1.2" xmlns="http://www.w3.org/2000/svg" viewBox="0 0 32 31" width="32" height="31"><defs><linearGradient id="P" gradientUnits="userSpaceOnUse"/><linearGradient id="g1" x1="21.7" y1="16.2" x2="10.3" y2="24.5" href="#P"><stop stop-color="#edd97c"/><stop offset=".05" stop-color="#edd97c"/><stop offset=".91" stop-color="#af8531"/><stop offset="1" stop-color="#af8531"/></linearGradient></defs><style>.a{fill:#fff}.b{fill:url(#g1)}</style><path class="a" d="m15.7 0c8.4 0 15.3 6.9 15.3 15.5 0 8.6-6.9 15.5-15.3 15.5-8.5 0-15.4-6.9-15.4-15.5 0-8.6 6.9-15.5 15.4-15.5z"/><path class="b" d="m19.3 14.6l-4.7-4.8c-0.6-0.5-1.5-0.5-2 0-0.6 0.6-0.6 1.5 0 2l3.8 3.8-3.8 3.8c-0.6 0.6-0.6 1.5 0 2 0.3 0.3 0.6 0.4 1 0.4 0.3 0 0.7-0.1 1-0.4l4.7-4.8c0.6-0.5 0.6-1.4 0-2z"/></svg>