<svg xmlns="http://www.w3.org/2000/svg" xmlns:xlink="http://www.w3.org/1999/xlink" viewBox="0 0 739.79 739.79"><defs><style>.a{fill:url(#a);}.b{fill:url(#b);}.c{fill:url(#c);}.d{fill:url(#d);}.e{fill:url(#e);}.f{fill:url(#f);}.g{fill:url(#g);}.h{fill:url(#h);}.i{fill:url(#i);}.j{fill:url(#j);}.k{fill:url(#k);}.l{fill:url(#l);}.m{fill:url(#m);}.n{fill:url(#n);}.o{fill:url(#o);}.p{fill:url(#p);}.q{fill:url(#q);}.r{fill:url(#r);}.s{fill:url(#s);}.t{fill:url(#t);}.u{fill:url(#u);}.v{fill:url(#v);}.w{fill:url(#w);}.x{fill:url(#x);}.y{fill:url(#y);}.z{fill:url(#z);}.aa{fill:url(#aa);}.ab{fill:url(#ab);}.ac{fill:url(#ac);}.ad{fill:url(#ad);}.ae{fill:url(#ae);}.af{fill:url(#af);}.ag{fill:url(#ag);}.ah{fill:url(#ah);}.ai{fill:url(#ai);}.aj{fill:url(#aj);}.ak{fill:url(#ak);}.al{fill:url(#al);}.am{fill:url(#am);}.an{fill:url(#an);}.ao{fill:url(#ao);}.ap{fill:url(#ap);}.aq{fill:url(#aq);}.ar{fill:url(#ar);}.as{fill:url(#as);}.at{fill:url(#at);}.au{fill:url(#au);}.av{fill:url(#av);}.aw{fill:url(#aw);}.ax{fill:url(#ax);}</style><linearGradient id="a" x1="-117.1" y1="205.72" x2="239.11" y2="971.19" gradientUnits="userSpaceOnUse"><stop offset="0.01" stop-color="#eab245"/><stop offset="0.27" stop-color="#f1e3a6"/><stop offset="0.39" stop-color="#dcc07a"/><stop offset="0.6" stop-color="#b27c23"/><stop offset="0.86" stop-color="#e8ce7f"/><stop offset="0.89" stop-color="#eed688"/><stop offset="1" stop-color="#f6e8aa"/></linearGradient><linearGradient id="b" x1="-90.21" y1="193.21" x2="266" y2="958.68" xlink:href="#a"/><linearGradient id="c" x1="-51.22" y1="175.06" x2="304.99" y2="940.54" xlink:href="#a"/><linearGradient id="d" x1="-20.9" y1="160.95" x2="335.31" y2="926.42" xlink:href="#a"/><linearGradient id="e" x1="-4.07" y1="153.12" x2="352.14" y2="918.59" xlink:href="#a"/><linearGradient id="f" x1="8.65" y1="147.2" x2="364.86" y2="912.68" xlink:href="#a"/><linearGradient id="g" x1="64.57" y1="121.18" x2="420.78" y2="886.65" xlink:href="#a"/><linearGradient id="h" x1="89" y1="109.81" x2="445.21" y2="875.28" xlink:href="#a"/><linearGradient id="i" x1="125.49" y1="92.83" x2="481.7" y2="858.31" xlink:href="#a"/><linearGradient id="j" x1="183.2" y1="65.97" x2="539.41" y2="831.45" xlink:href="#a"/><linearGradient id="k" x1="222.5" y1="47.69" x2="578.71" y2="813.16" xlink:href="#a"/><linearGradient id="l" x1="257.85" y1="31.24" x2="614.06" y2="796.71" xlink:href="#a"/><linearGradient id="m" x1="298.33" y1="12.4" x2="654.54" y2="777.87" xlink:href="#a"/><linearGradient id="n" x1="334.44" y1="-4.4" x2="690.65" y2="761.07" xlink:href="#a"/><linearGradient id="o" x1="25.01" y1="139.59" x2="381.22" y2="905.06" xlink:href="#a"/><linearGradient id="p" x1="37.5" y1="133.78" x2="393.71" y2="899.25" xlink:href="#a"/><linearGradient id="q" x1="50.57" y1="127.69" x2="406.78" y2="893.17" gradientTransform="translate(312.17 71.11) rotate(72.19)" xlink:href="#a"/><linearGradient id="r" x1="59.1" y1="123.73" x2="415.31" y2="889.2" xlink:href="#a"/><linearGradient id="s" x1="74.5" y1="116.56" x2="430.71" y2="882.03" xlink:href="#a"/><linearGradient id="t" x1="91.9" y1="108.46" x2="448.11" y2="873.94" xlink:href="#a"/><linearGradient id="u" x1="122.58" y1="94.18" x2="478.79" y2="859.66" xlink:href="#a"/><linearGradient id="v" x1="147.15" y1="82.75" x2="503.36" y2="848.22" xlink:href="#a"/><linearGradient id="w" x1="170.13" y1="72.06" x2="526.34" y2="837.53" xlink:href="#a"/><linearGradient id="x" x1="199.09" y1="58.58" x2="555.3" y2="824.05" xlink:href="#a"/><linearGradient id="y" x1="220.86" y1="48.45" x2="577.07" y2="813.92" xlink:href="#a"/><linearGradient id="z" x1="242.51" y1="38.37" x2="598.72" y2="803.85" xlink:href="#a"/><linearGradient id="aa" x1="262.14" y1="29.24" x2="618.35" y2="794.71" xlink:href="#a"/><linearGradient id="ab" x1="289.42" y1="16.55" x2="645.63" y2="782.02" xlink:href="#a"/><linearGradient id="ac" x1="323.04" y1="0.9" x2="679.25" y2="766.37" xlink:href="#a"/><linearGradient id="ad" x1="346.17" y1="-9.86" x2="702.38" y2="755.61" xlink:href="#a"/><linearGradient id="ae" x1="362.09" y1="-17.27" x2="718.3" y2="748.2" gradientTransform="translate(397.75 -341.93) rotate(81.08)" xlink:href="#a"/><linearGradient id="af" x1="371.33" y1="-21.57" x2="727.54" y2="743.9" xlink:href="#a"/><linearGradient id="ag" x1="386.81" y1="-28.77" x2="743.02" y2="736.7" xlink:href="#a"/><linearGradient id="ah" x1="402.19" y1="-35.93" x2="758.4" y2="729.54" gradientTransform="translate(369.42 -377.07) rotate(70.01)" xlink:href="#a"/><linearGradient id="ai" x1="416.54" y1="-42.61" x2="772.75" y2="722.86" xlink:href="#a"/><linearGradient id="aj" x1="433.51" y1="-50.5" x2="789.72" y2="714.97" xlink:href="#a"/><linearGradient id="ak" x1="450.75" y1="-58.53" x2="806.96" y2="706.94" xlink:href="#a"/><linearGradient id="al" x1="460.69" y1="-63.15" x2="816.9" y2="702.32" xlink:href="#a"/><linearGradient id="am" x1="466.81" y1="-66" x2="823.02" y2="699.47" xlink:href="#a"/><linearGradient id="an" x1="471.87" y1="-68.36" x2="828.08" y2="697.12" xlink:href="#a"/><linearGradient id="ao" x1="473.06" y1="-68.91" x2="829.27" y2="696.56" xlink:href="#a"/><linearGradient id="ap" x1="472.32" y1="-68.57" x2="828.53" y2="696.91" xlink:href="#a"/><linearGradient id="aq" x1="469.59" y1="-67.3" x2="825.8" y2="698.18" xlink:href="#a"/><linearGradient id="ar" x1="463.82" y1="-64.61" x2="820.03" y2="700.86" xlink:href="#a"/><linearGradient id="as" x1="322.92" y1="0.96" x2="679.13" y2="766.43" xlink:href="#a"/><linearGradient id="at" x1="196.47" y1="59.8" x2="552.68" y2="825.27" xlink:href="#a"/><linearGradient id="au" x1="260.36" y1="18.29" x2="633.07" y2="819.21" xlink:href="#a"/><linearGradient id="av" x1="245.79" y1="25.06" x2="618.5" y2="825.99" xlink:href="#a"/><linearGradient id="aw" x1="212.97" y1="40.34" x2="585.68" y2="841.27" xlink:href="#a"/><linearGradient id="ax" x1="217.18" y1="38.38" x2="589.89" y2="839.31" xlink:href="#a"/></defs><title>Монтажная область 1 копия</title><path class="a" d="M114.3,632.63a2.69,2.69,0,0,0,.46-1.62,2.42,2.42,0,0,0-.42-1.43,1.42,1.42,0,0,0-1.25-.6q-5.91.27-9.33.27c-2.71,0-6.06-.09-10.07-.27a1.33,1.33,0,0,0-1.15.6,2.42,2.42,0,0,0-.42,1.43,2.54,2.54,0,0,0,.47,1.62,2,2,0,0,0,1.29.32h.55a13.31,13.31,0,0,1,3.74.37,1.47,1.47,0,0,1,1.16,1.48,7.84,7.84,0,0,1-.83,2.68L88.24,657.71H88q-1.31-2.4-5.36-10.53-2.77-5.73-4.35-8.78-3.23-5.64-7.39-7.62t-11.54-2a3.8,3.8,0,0,0-1.9.37,1.61,1.61,0,0,0-.6,1.48,3,3,0,0,0,.23,1.34,1.31,1.31,0,0,0,1,.55c.5.1.87.17,1.11.23A13.76,13.76,0,0,1,64.59,635,15,15,0,0,1,68.66,640q2.86,5.17,7.44,14.46t4.57,10.76v11.55a20.77,20.77,0,0,1-.42,3.74,4,4,0,0,1-1.61,2.4,6.63,6.63,0,0,1-4,1,3.75,3.75,0,0,0-1.71.28c-.34.18-.54.74-.6,1.66a2.42,2.42,0,0,0,.42,1.43,1.42,1.42,0,0,0,1.25.6q6-.27,11.45-.27,5.18,0,11.09.27a1.33,1.33,0,0,0,1.15-.6,2.42,2.42,0,0,0,.42-1.43,2.56,2.56,0,0,0-.46-1.61,2,2,0,0,0-1.3-.33h-.55a6.58,6.58,0,0,1-4-1,4,4,0,0,1-1.62-2.4,20.77,20.77,0,0,1-.42-3.74v-9a19,19,0,0,1,.28-3.47,12.94,12.94,0,0,1,1.11-3.14c.55-1.14.92-1.89,1.11-2.26l10.44-19.68a12.52,12.52,0,0,1,4.15-4.85A11.52,11.52,0,0,1,113,633,2,2,0,0,0,114.3,632.63Z"/><path class="b" d="M141.27,647.59a21.16,21.16,0,0,0-21.25-.28,22.38,22.38,0,0,0-8.22,7.86,22.07,22.07,0,0,0-3.23,12.05,21.6,21.6,0,0,0,10.34,18.43,21,21,0,0,0,11.18,3,20.63,20.63,0,0,0,10-2.73,22.64,22.64,0,0,0,8.27-7.85A22,22,0,0,0,151.62,666a21.67,21.67,0,0,0-10.35-18.43Zm-2,32.29a10.63,10.63,0,0,1-18.33.23Q118,675,118,667q0-8.5,2.86-13.77t9.24-5.26a9.9,9.9,0,0,1,9.1,5q3,5,3,13Q142.19,674.53,139.28,679.88Z"/><path class="c" d="M201,643.94h-.18l-12.66,2.4q-3.6-1.85-10.25-1.84a22.12,22.12,0,0,0-9.24,1.84,15.23,15.23,0,0,0-6.33,5.09,12.65,12.65,0,0,0,0,14.36q2.22,3.19,7.67,5.31-4.71,0-7.25,2.45a8,8,0,0,0-2.54,6.05q0,3.51,2,5.18a12,12,0,0,0,5.59,2.31,79.55,79.55,0,0,0,9.33.64,83.32,83.32,0,0,1,8.69.51,12.79,12.79,0,0,1,5.54,1.89,5,5,0,0,1,2.22,4.44,8.07,8.07,0,0,1-3.79,7.25Q186,704.27,179,704.27q-12.19,0-12.19-7.12a5.83,5.83,0,0,1,.6-2.72,7.82,7.82,0,0,1,1.38-1.94,4.33,4.33,0,0,0,.79-.88c0-.24-.23-.6-.69-1.06a6.34,6.34,0,0,0-1.81-1.2,5.61,5.61,0,0,0-2.4-.51,6.47,6.47,0,0,0-5.13,2.31,8.11,8.11,0,0,0-2,5.45q0,11.08,19.49,11.09,11.28,0,18-4.11t6.74-11.32a9.13,9.13,0,0,0-4.29-8.27q-4.31-2.73-14-3.09l-12.66-.47a8.57,8.57,0,0,1-4.15-1,2.92,2.92,0,0,1-1.21-2.59,3.15,3.15,0,0,1,2.18-3.05,19.27,19.27,0,0,1,7-.92h4.06A20.37,20.37,0,0,0,187,671.1a15.75,15.75,0,0,0,6.42-5,12.28,12.28,0,0,0,2.45-7.53,12.47,12.47,0,0,0-1.11-4.9,13,13,0,0,0-2.68-4.15v-.19l9.15.37c.37,0,.69-.37,1-1.11a7,7,0,0,0,.41-2.4C202.61,644.68,202.09,643.94,201,643.94Zm-16.12,23.14a9.3,9.3,0,0,1-13.9,0c-1.79-2.1-2.68-5-2.68-8.69a11.49,11.49,0,0,1,2.68-8,8.8,8.8,0,0,1,6.83-3,9,9,0,0,1,7,3,11.77,11.77,0,0,1,2.72,8.13C187.55,662.17,186.68,665,184.92,667.08Z"/><path class="d" d="M227.09,684.31h-.55a5.43,5.43,0,0,1-3.42-.83,3.11,3.11,0,0,1-1.2-1.94,24.32,24.32,0,0,1-.18-3.51V645.88c0-1.17-.5-1.75-1.48-1.75H220a9.83,9.83,0,0,0-2.13.55,46.9,46.9,0,0,1-10,2.4,1.57,1.57,0,0,0-1.11.6,1.78,1.78,0,0,0-.37,1.07c0,.8.18,1.31.55,1.52a3.36,3.36,0,0,0,1.67.32,5.37,5.37,0,0,1,3.41.84,2.93,2.93,0,0,1,1.16,1.94,32,32,0,0,1,.14,3.51V678a32,32,0,0,1-.14,3.51,2.93,2.93,0,0,1-1.16,1.94,5.38,5.38,0,0,1-3.41.83,4.25,4.25,0,0,0-1.67.23c-.31.16-.49.64-.55,1.44a2.08,2.08,0,0,0,.42,1.29,1.26,1.26,0,0,0,1.06.55q5.44-.27,9.61-.27,4.33,0,9.7.27a1.22,1.22,0,0,0,1.1-.55,2.25,2.25,0,0,0,.37-1.29c-.06-.74-.21-1.2-.46-1.39A1.85,1.85,0,0,0,227.09,684.31Z"/><path class="e" d="M221.37,632.3a4.92,4.92,0,0,0,1.75-3.79,5.84,5.84,0,0,0-1.48-4.11,4.92,4.92,0,0,0-3.79-1.61,7.59,7.59,0,0,0-4.8,1.66,4.76,4.76,0,0,0-2.12,3.79,5.24,5.24,0,0,0,1.75,4,6.2,6.2,0,0,0,4.34,1.61A6.29,6.29,0,0,0,221.37,632.3Z"/><path class="f" d="M261.83,665.7a62.4,62.4,0,0,0-7.67-2.91q-4.8-1.57-7-2.5a7.59,7.59,0,0,1-3.33-2.44,6.94,6.94,0,0,1-1.1-4.12,5,5,0,0,1,2.63-4.48,11.55,11.55,0,0,1,6.14-1.61,10.41,10.41,0,0,1,5.45,1.38,4.79,4.79,0,0,1,2.5,3.88,3.59,3.59,0,0,1-.6,2.08,8,8,0,0,1-1.34,1.53c-.5.43-.74.68-.74.74,0,.3.38.73,1.15,1.29a4.43,4.43,0,0,0,2.64.83,5,5,0,0,0,4-1.76,6.21,6.21,0,0,0,1.53-4.24,7.14,7.14,0,0,0-4-6.47,18.69,18.69,0,0,0-9.47-2.31,23.42,23.42,0,0,0-8.08,1.39,14.57,14.57,0,0,0-6.24,4.15,9.83,9.83,0,0,0-2.4,6.65,10.64,10.64,0,0,0,2,6.75,13,13,0,0,0,4.9,3.88,55.33,55.33,0,0,0,7.39,2.58c2.46.74,4.39,1.39,5.77,2a9.54,9.54,0,0,1,3.47,2.3,5.34,5.34,0,0,1,1.38,3.79,6.3,6.3,0,0,1-2.45,5.31,10.79,10.79,0,0,1-6.79,1.9q-4.8,0-7.34-1.62a5,5,0,0,1-2.54-4.39,4.36,4.36,0,0,1,1.06-3.14,8.26,8.26,0,0,0,1.06-1.2c0-.31-.38-.74-1.15-1.29a4.36,4.36,0,0,0-2.63-.83,5.6,5.6,0,0,0-4.21,1.66,5.94,5.94,0,0,0-1.61,4.34c0,3.14,1.54,5.58,4.62,7.3s7.08,2.59,12,2.59a21.31,21.31,0,0,0,8.68-1.71,14.44,14.44,0,0,0,6.1-4.81,11.5,11.5,0,0,0,2.21-6.88,10.1,10.1,0,0,0-1.61-6A11.28,11.28,0,0,0,261.83,665.7Z"/><path class="g" d="M330.14,634.1a7.83,7.83,0,0,0-2-11.36A13.79,13.79,0,0,0,320,620.2q-8.13.18-12.61,6.14t-4.48,15.48v3.88h-5.55a4.19,4.19,0,0,0-1.66.23c-.31.15-.49.66-.55,1.52a2.14,2.14,0,0,0,.41,1.3,1.37,1.37,0,0,0,1.16.55h6.19V678a32,32,0,0,1-.14,3.56,2.9,2.9,0,0,1-1.16,1.89,5.38,5.38,0,0,1-3.41.83,3.87,3.87,0,0,0-1.62.23q-.42.24-.51,1.44a2.25,2.25,0,0,0,.37,1.29,1.25,1.25,0,0,0,1.11.55q5.26-.27,9.61-.27,6.18,0,11.55.27a1.14,1.14,0,0,0,1-.55,2.5,2.5,0,0,0,0-2.68,1.87,1.87,0,0,0-1.16-.28H318a14.32,14.32,0,0,1-4.35-.46,2.78,2.78,0,0,1-1.75-1.71,12.93,12.93,0,0,1-.46-4.11V649.3h9.79a1.4,1.4,0,0,0,1.11-.55,2,2,0,0,0,.46-1.3,2,2,0,0,0-.51-1.43,2,2,0,0,0-1.24-.32h-9.61v-5.55a71.59,71.59,0,0,1,.37-7.8,14.81,14.81,0,0,1,2.12-6.24,5.94,5.94,0,0,1,5.45-2.86,5.42,5.42,0,0,1,3.84,1.43,4.61,4.61,0,0,1,1.52,3.47,5.21,5.21,0,0,1-.69,2.72,9.58,9.58,0,0,1-1.57,2,5,5,0,0,0-.88.92c0,.37.4.86,1.2,1.48a4.6,4.6,0,0,0,2.86.92A5.34,5.34,0,0,0,330.14,634.1Z"/><path class="h" d="M359.29,647.59a21.16,21.16,0,0,0-21.25-.28,22.38,22.38,0,0,0-8.22,7.86,22.07,22.07,0,0,0-3.23,12.05,21.48,21.48,0,0,0,2.72,10.49,21.26,21.26,0,0,0,7.62,7.94,21,21,0,0,0,11.18,3,20.63,20.63,0,0,0,10-2.73,22.64,22.64,0,0,0,8.27-7.85A22,22,0,0,0,369.64,666a21.34,21.34,0,0,0-2.73-10.48A21.06,21.06,0,0,0,359.29,647.59Zm-2,32.29a10.64,10.64,0,0,1-18.34.23Q336,675,336,667q0-8.5,2.86-13.77t9.24-5.26a9.9,9.9,0,0,1,9.1,5q3,5,3,13Q360.21,674.53,357.31,679.88Z"/><path class="i" d="M404,644.59a12.42,12.42,0,0,0-6,1.89,31.73,31.73,0,0,0-6.56,5.13h-.28v-5.73c0-1.17-.49-1.75-1.48-1.75h-.27a21.05,21.05,0,0,0-2.13.55,48.61,48.61,0,0,1-9.88,2.4,1.57,1.57,0,0,0-1.11.6,1.78,1.78,0,0,0-.37,1.07c0,.8.18,1.31.55,1.52a3.36,3.36,0,0,0,1.67.32,5.37,5.37,0,0,1,3.41.84,2.93,2.93,0,0,1,1.16,1.94,32,32,0,0,1,.14,3.51V678a32,32,0,0,1-.14,3.51,2.93,2.93,0,0,1-1.16,1.94,5.38,5.38,0,0,1-3.41.83,4.25,4.25,0,0,0-1.67.23c-.3.16-.49.64-.55,1.44a2.08,2.08,0,0,0,.42,1.29,1.26,1.26,0,0,0,1.06.55q5.44-.27,9.61-.27,4.33,0,9.7.27a1.22,1.22,0,0,0,1.1-.55,2.25,2.25,0,0,0,.37-1.29c-.06-.74-.21-1.2-.46-1.39a1.87,1.87,0,0,0-1.11-.28h-.55a5.43,5.43,0,0,1-3.42-.83,3.11,3.11,0,0,1-1.2-1.94,24.32,24.32,0,0,1-.18-3.51V655.49a26.66,26.66,0,0,1,4.71-3.83,8,8,0,0,1,4-1.53,2.94,2.94,0,0,1,2.35,1,3.94,3.94,0,0,1,.88,2.68,3.34,3.34,0,0,1-.83,2.26,10.47,10.47,0,0,0-.92,1.16c.06.24.41.55,1.06.92a4.48,4.48,0,0,0,2.26.55,5.18,5.18,0,0,0,4.35-2,7.38,7.38,0,0,0,1.57-4.62,8.11,8.11,0,0,0-1.81-5.22A5.86,5.86,0,0,0,404,644.59Z"/><path class="j" d="M478.79,632.58a38.14,38.14,0,0,0-15.57-3.33H449.36q-5.08,0-11.08-.27a1.43,1.43,0,0,0-1.2.6,2.26,2.26,0,0,0-.47,1.43,2.39,2.39,0,0,0,.51,1.62,2.26,2.26,0,0,0,1.34.32H439a6.63,6.63,0,0,1,4,1,4.07,4.07,0,0,1,1.61,2.4,20.88,20.88,0,0,1,.42,3.74v36.68a20.77,20.77,0,0,1-.42,3.74,4,4,0,0,1-1.61,2.4,6.63,6.63,0,0,1-4,1,4,4,0,0,0-1.8.28c-.34.18-.54.74-.6,1.66a2.26,2.26,0,0,0,.47,1.43,1.43,1.43,0,0,0,1.2.6q6-.27,11-.27,5.64,0,11.55.27a1.43,1.43,0,0,0,1.25-.6,2.48,2.48,0,0,0,.41-1.43c-.06-.86-.23-1.4-.51-1.61a2.16,2.16,0,0,0-1.34-.33h-.55a6.58,6.58,0,0,1-4-1,4,4,0,0,1-1.62-2.4,20.77,20.77,0,0,1-.42-3.74v-13.3a27.94,27.94,0,0,0,20.28-.93,22.22,22.22,0,0,0,8.64-6.74,15.83,15.83,0,0,0,3.33-9.89Q486.32,635.91,478.79,632.58Zm-5.22,22.22a13.56,13.56,0,0,1-6.06,4.62,19.52,19.52,0,0,1-6.88,1.34,16.36,16.36,0,0,1-6.56-1v-20a15.25,15.25,0,0,1,.51-4.62,3.11,3.11,0,0,1,1.71-2,9.67,9.67,0,0,1,3.6-.51,23.68,23.68,0,0,1,11,2.68q5.17,2.68,5.17,10.81A13.93,13.93,0,0,1,473.57,654.8Z"/><path class="k" d="M528.53,676.46a1.72,1.72,0,0,0-1.1-.37,1.37,1.37,0,0,0-.93.46,17.07,17.07,0,0,1-5.26,5.78,12.63,12.63,0,0,1-6.75,1.71q-7.49,0-11-5c-2.37-3.35-3.55-7.9-3.55-13.62h22.45a8.65,8.65,0,0,0,4.8-1.11c1.11-.74,1.66-2.13,1.66-4.16a17.11,17.11,0,0,0-5.08-11.32q-4.44-4.2-12.65-4.2a19.11,19.11,0,0,0-10.82,3.14,21.1,21.1,0,0,0-7.25,8.18,23,23,0,0,0-2.54,10.48,25.1,25.1,0,0,0,2.5,11.27,19.06,19.06,0,0,0,7.34,8,22.25,22.25,0,0,0,11.78,3,19.46,19.46,0,0,0,9.93-2.54,20.69,20.69,0,0,0,7.25-7.16,1.49,1.49,0,0,0,.19-.84A1.82,1.82,0,0,0,528.53,676.46Zm-25.22-24.9a9.61,9.61,0,0,1,7.77-3.74,7.83,7.83,0,0,1,6.55,3,11.33,11.33,0,0,1,2.31,7.2q-.27,3.88-5,3.88H499.9Q500.26,655.31,503.31,651.56Z"/><path class="l" d="M576.11,685.05a3.93,3.93,0,0,1-3.6-1.75,7.47,7.47,0,0,1-1.2-3.7V658.08q0-7.77-4.76-10.63t-12.33-2.86a21.71,21.71,0,0,0-10.4,2.31,8,8,0,0,0-2.67,11.92,5.29,5.29,0,0,0,4.38,2,4.5,4.5,0,0,0,2.82-.88c.77-.58,1.16-1.06,1.16-1.43a3.72,3.72,0,0,0-.79-.74,8.35,8.35,0,0,1-1.48-1.62,4.1,4.1,0,0,1-.69-2.45,5.82,5.82,0,0,1,2.12-4.71,7.6,7.6,0,0,1,5-1.75q5,0,7.26,2.35c1.5,1.57,2.26,3.87,2.26,6.89v7.3a133.25,133.25,0,0,0-13.86,1.33,20.8,20.8,0,0,0-9.24,3.79q-3.87,2.91-3.88,8.73a10.24,10.24,0,0,0,3.42,7.86,12.75,12.75,0,0,0,9,3.14,19.67,19.67,0,0,0,8.64-1.94,13,13,0,0,0,6-5.55,7.53,7.53,0,0,0,3.05,5.45,9.93,9.93,0,0,0,6.19,2,11.79,11.79,0,0,0,3.37-.51q1.71-.51,1.71-1.62a1.64,1.64,0,0,0-.32-1.2A1.69,1.69,0,0,0,576.11,685.05Zm-12.93-13.3a12,12,0,0,1-1.57,6,11.69,11.69,0,0,1-4.25,4.3,11.3,11.3,0,0,1-5.82,1.57q-6,0-6-6.28c0-3.58,1.33-6.16,4-7.77s7.2-2.64,13.67-3.14Z"/><path class="m" d="M618.88,676.92a2.32,2.32,0,0,0-1-.27,1,1,0,0,0-.93.46,16.49,16.49,0,0,1-5.12,5.22A12.85,12.85,0,0,1,605,684a10.9,10.9,0,0,1-9.33-5c-2.35-3.33-3.51-7.58-3.51-12.75a29.71,29.71,0,0,1,2.54-13.07q2.53-5.22,9.65-5.22a8.46,8.46,0,0,1,5,1.48,5,5,0,0,1,2.07,4.34,4.41,4.41,0,0,1-.69,2.45,9.38,9.38,0,0,1-1.52,1.8,4,4,0,0,0-.83.83c0,.43.41,1,1.24,1.57a4.86,4.86,0,0,0,3,.92,5.53,5.53,0,0,0,4.58-2.17,7.88,7.88,0,0,0,1.71-5,7.66,7.66,0,0,0-4.3-7.39,22,22,0,0,0-10.21-2.22,22.72,22.72,0,0,0-10.81,3,21.26,21.26,0,0,0-7.8,7.76,23.19,23.19,0,0,0-3.1,11.23q0,10.06,5.36,16.07t14.78,6a18.57,18.57,0,0,0,9.15-2.54,22.77,22.77,0,0,0,7.57-6.89,1.49,1.49,0,0,0,.28-.74,1.75,1.75,0,0,0-.28-.92A1.5,1.5,0,0,0,618.88,676.92Z"/><path class="n" d="M664.71,676.46a1.77,1.77,0,0,0-1.11-.37,1.37,1.37,0,0,0-.93.46,17.07,17.07,0,0,1-5.26,5.78,12.63,12.63,0,0,1-6.75,1.71c-5,0-8.67-1.68-11-5s-3.55-7.9-3.55-13.62h22.45a8.65,8.65,0,0,0,4.8-1.11c1.11-.74,1.66-2.13,1.66-4.16a17.11,17.11,0,0,0-5.08-11.32q-4.42-4.2-12.65-4.2a19.05,19.05,0,0,0-10.81,3.14,21.13,21.13,0,0,0-7.26,8.18,23,23,0,0,0-2.54,10.48,25.23,25.23,0,0,0,2.5,11.27,19.06,19.06,0,0,0,7.34,8,22.25,22.25,0,0,0,11.78,3,19.46,19.46,0,0,0,9.93-2.54,20.69,20.69,0,0,0,7.25-7.16,1.49,1.49,0,0,0,.19-.84A1.83,1.83,0,0,0,664.71,676.46Zm-25.22-24.9a9.57,9.57,0,0,1,7.76-3.74,7.83,7.83,0,0,1,6.55,3,11.33,11.33,0,0,1,2.31,7.2q-.27,3.88-5,3.88H636.07Q636.43,655.31,639.49,651.56Z"/><polygon class="o" points="109.88 290.72 108.21 290.55 106.98 302.38 86.21 300.22 86.03 301.98 108.47 304.31 109.88 290.72"/><path class="p" d="M99.52,283a11.37,11.37,0,0,0,8.79-1.49,11,11,0,0,0,4.82-7.27,10.86,10.86,0,0,0-1.61-8.56,11.39,11.39,0,0,0-7.46-4.85,11.25,11.25,0,0,0-8.76,1.53,11.51,11.51,0,0,0-3.21,15.82A11.34,11.34,0,0,0,99.52,283ZM92.1,269.94a8.87,8.87,0,0,1,4.12-6,9.73,9.73,0,0,1,7.47-1.27,10,10,0,0,1,6.38,4,8.87,8.87,0,0,1,1.42,7.2,9,9,0,0,1-4.14,6,10.56,10.56,0,0,1-13.82-2.83A8.91,8.91,0,0,1,92.1,269.94Z"/><rect class="q" x="106.43" y="238.35" width="1.77" height="22.56" transform="translate(-163.18 275.46) rotate(-72.19)"/><polygon class="r" points="121.99 240.82 122.69 238.65 107.97 245.59 101.08 232.18 100.41 234.23 107.45 247.63 121.99 240.82"/><path class="s" d="M125.25,232l-5.72-6.07,4.32-9.93,8.34.05.76-1.74-24.78-.07-.58,1.33,16.93,18.09Zm-15.14-16.08L122,216l-3.75,8.6Z"/><polygon class="t" points="137.74 205.17 128.48 199.87 135.48 187.65 144.74 192.95 145.62 191.41 126.04 180.2 125.16 181.74 134.03 186.81 127.03 199.04 118.16 193.96 117.28 195.5 136.86 206.71 137.74 205.17"/><path class="u" d="M144.75,162.33c5.9,4.65,11.35-5.91,16.33-2a3.55,3.55,0,0,1,1.46,3.15,6.3,6.3,0,0,1-1.45,3.66,7.65,7.65,0,0,1-5.81,2.85l.3,1.59a5.78,5.78,0,0,0,3.61-.73,10.42,10.42,0,0,0,3.24-2.7,8,8,0,0,0,1.88-5,5.2,5.2,0,0,0-2.09-4.27c-6.16-4.85-11.37,5.89-16.31,2-1.9-1.49-2-3.89-.14-6.22a6.82,6.82,0,0,1,4.63-2.76l-.44-1.57a8.28,8.28,0,0,0-5.55,3.34,7,7,0,0,0-1.73,4.8A5.14,5.14,0,0,0,144.75,162.33Z"/><path class="v" d="M172.18,155.85l-3.28-7.68,7.48-7.83,7.82,2.92,1.31-1.38-23.25-8.59-1,1,9.68,22.82Zm-8.68-20.31,11.15,4.18-6.47,6.78Z"/><polygon class="w" points="193.08 134.96 180.5 119.81 195.01 123.47 195.24 123.28 194.13 108.37 206.77 123.59 208.13 122.46 193.72 105.11 192.41 106.2 193.59 121.3 178.69 117.58 177.31 118.73 191.72 136.09 193.08 134.96"/><path class="x" d="M216.47,116.45,215,108.23l9.07-5.9,6.94,4.63,1.59-1L212,92.22l-1.22.79L215,117.44Zm-3.79-21.76,9.9,6.64-7.86,5.11Z"/><path class="y" d="M246.82,92a3.55,3.55,0,0,1,0,3.47A6.31,6.31,0,0,1,244,98.23a7.67,7.67,0,0,1-6.47.22l-.38,1.57a5.75,5.75,0,0,0,3.59.82,10.41,10.41,0,0,0,4.06-1.14,8,8,0,0,0,3.78-3.83,5.18,5.18,0,0,0-.15-4.75c-3.63-6.94-12.79.71-15.7-4.86-1.12-2.14-.21-4.36,2.42-5.73a6.8,6.8,0,0,1,5.35-.62l.24-1.62a8.29,8.29,0,0,0-6.43.78,7,7,0,0,0-3.53,3.67,5.1,5.1,0,0,0,.29,4.39C234.59,93.79,243.88,86.38,246.82,92Z"/><polygon class="z" points="256.59 70.82 264.57 90.12 266.21 89.44 258.23 70.14 265.95 66.95 265.31 65.4 248.24 72.46 248.88 74.01 256.59 70.82"/><path class="aa" d="M279.22,76.36l10.34-3.22L295,79.48l1.82-.57L280.64,60.12l-1.39.44-2.6,24.64,1.72-.54Zm1.41-13.67,7.72,9.07-9,2.79Z"/><polygon class="ab" points="306.82 76.58 304.78 66.11 318.6 63.42 320.64 73.89 322.38 73.55 318.07 51.41 316.33 51.74 318.28 61.77 304.46 64.47 302.5 54.44 300.76 54.78 305.08 76.92 306.82 76.58"/><path class="ac" d="M356,64.94a3.54,3.54,0,0,1-1.44,3.16,6.3,6.3,0,0,1-3.72,1.3,7.64,7.64,0,0,1-5.95-2.54l-1,1.28a5.82,5.82,0,0,0,2.91,2.25,10.45,10.45,0,0,0,4.16.68A8,8,0,0,0,356,69.2a5.2,5.2,0,0,0,1.86-4.38c-.35-7.82-11.89-4.75-12.18-11-.11-2.41,1.66-4,4.62-4.18a6.82,6.82,0,0,1,5.11,1.71l.91-1.37a8.35,8.35,0,0,0-6.16-2,7.09,7.09,0,0,0-4.76,1.83,5.17,5.17,0,0,0-1.59,4.11C344.16,61.38,355.71,58.6,356,64.94Z"/><path class="ad" d="M376.55,71.13a8.25,8.25,0,0,0,6.24-2.1c1.69-1.53,2.62-3.9,2.79-7.15l.68-13.09-1.77-.1-.66,12.71c-.29,5.57-3.07,8.27-7.19,8.06-4.51-.24-7.21-3.54-6.93-8.95L370.36,48l-1.77-.09-.66,12.87c-.17,3.19.54,5.71,2.13,7.5A8.89,8.89,0,0,0,376.55,71.13Z"/><rect class="ae" x="387.5" y="60.69" width="22.55" height="1.77" transform="translate(276.1 445.97) rotate(-81.08)"/><polygon class="af" points="409.74 74.71 412 75.07 402.87 61.6 415.06 52.72 412.92 52.38 400.78 61.4 409.74 74.71"/><polygon class="ag" points="425.02 67.06 438.63 70.71 435.86 81.01 437.58 81.47 443.42 59.68 441.7 59.22 439.06 69.09 425.46 65.44 428.1 55.57 426.39 55.11 420.55 76.9 422.26 77.36 425.02 67.06"/><rect class="ah" x="442.62" y="74.31" width="22.56" height="1.77" transform="translate(228.09 476.06) rotate(-70.01)"/><polygon class="ai" points="472.1 73.59 477.87 97.7 479.15 98.3 488.7 77.87 487.18 77.16 478.94 94.79 473.2 70.62 471.91 70.02 462.37 90.46 463.88 91.17 472.1 73.59"/><path class="aj" d="M497,108.94a10.89,10.89,0,0,0,8.58,1.45,11.4,11.4,0,0,0,7.13-5.33,11.21,11.21,0,0,0,1.6-8.75,11.51,11.51,0,0,0-13.74-8.48,12.24,12.24,0,0,0-8.73,14.08A11,11,0,0,0,497,108.94Zm-1.93-14.81a9.79,9.79,0,0,1,6-4.58,9.39,9.39,0,0,1,11.43,7.09,9.65,9.65,0,0,1-1.4,7.44,10,10,0,0,1-6,4.59,8.84,8.84,0,0,1-7.24-1.16,8.94,8.94,0,0,1-4.24-6A9.88,9.88,0,0,1,495.11,94.13Z"/><path class="ak" d="M538.81,132.09c2-2.35,1.8-5.08-.46-7.53l0,0a5.29,5.29,0,0,0,6.77-1.16c2.41-2.81,1.81-5.78-1.78-8.87-.47-.4-2-1.65-4.58-3.76l-14.65,17.07c1.28,1.23,2.75,2.53,4.39,3.94C532.24,134.9,536,135.34,538.81,132.09Zm.26-19c1.41,1.13,2.46,2,3.17,2.59q4.11,3.53,1.34,6.76a3.94,3.94,0,0,1-3.22,1.48,5.54,5.54,0,0,1-3.54-1.47l-3.33-2.85Zm-6.61,7.71,3.25,2.79c3,2.53,3.6,5.16,1.82,7.24-2.08,2.42-4.84,2.22-7.85-.36-.29-.25-1.32-1.18-3.09-2.83Z"/><polygon class="al" points="543.37 145.19 551.12 137.85 560.8 148.08 553.06 155.41 554.27 156.7 570.66 141.19 569.44 139.91 562.02 146.93 552.34 136.7 559.76 129.68 558.54 128.39 542.15 143.9 543.37 145.19"/><path class="am" d="M560.94,164.56l8.1-2,6.55,8.63-4.13,7.25,1.15,1.52,12.18-21.59-.88-1.15-24.06,5.93Zm21.43-5.34-5.9,10.34-5.67-7.47Z"/><polygon class="an" points="579.98 191.91 604.31 187.94 603.35 186.41 581.97 189.98 594.52 172.2 593.52 170.59 579.32 190.84 579.98 191.91"/><path class="ao" d="M587.48,204.16l8.33-.48,4.83,9.69-5.4,6.37.85,1.7,16-18.95-.64-1.29-24.75,1.35Zm22-1.27L601.81,212l-4.19-8.39Z"/><polygon class="ap" points="599.96 230.84 618.18 224.17 605.27 245.34 605.76 246.67 626.94 238.91 626.36 237.34 608.09 244.03 621.05 222.85 620.57 221.51 599.39 229.27 599.96 230.84"/><polygon class="aq" points="610.19 262.56 610.62 264.28 630.88 259.2 632.91 267.3 634.54 266.89 630.04 248.98 628.41 249.38 630.45 257.48 610.19 262.56"/><path class="ar" d="M616.78,282.29a8.92,8.92,0,0,0-1.57,6.93,8.26,8.26,0,0,0,3.27,5.72c1.82,1.36,4.33,1.81,7.55,1.35l13-1.88-.25-1.75-12.6,1.82c-5.52.8-8.7-1.41-9.29-5.5-.65-4.46,2.07-7.75,7.43-8.52l12.43-1.8-.25-1.76-12.76,1.85C620.57,279.2,618.23,280.39,616.78,282.29Z"/><path class="as" d="M405,194.89c2.25-1.13,2.81-2.81,4.5,0,1.12,1.69,0,4.5,1.68,6.18,2.25,2.82,10.68-2.24,13.5-4.49h0c4.5-4.49,3.37-8.43,1.12-13.49-3.37-6.19-6.18-12.37-9.56-18.55-2.81-4.5-5.62-6.19-10.11-2.25-3.94,3.94-2.25,8.43-4.5,12.93-3.38,5.62-7.31,8.43-7.87,15.18C393.78,197.14,400,197.7,405,194.89Z"/><path class="at" d="M682.37,416.31c-1-.3-25.7-7.38-61.55-9.66-9.17-.59-19.56-.87-30.76-.53a256.78,256.78,0,0,0,8.43-32,266.24,266.24,0,0,0,5.1-54.77c-.07-3.52-.21-5.59-.23-5.87l-.16-2.1-.06-.84-.69,0C595.38,184.27,490.91,84.21,362.85,84.21S130.33,184.26,123.24,310.52h-.18l-.22,2.94c-.08,1.06-1.85,26.37,4.86,60.64a258.82,258.82,0,0,0,8.44,32c-11.4-.36-22-.08-31.26.52C69,408.93,44.36,416,43.33,416.31l-3.32,1,1.42,3.15c.44,1,10.93,24,32.38,52.24,19.82,26.11,53.07,61.59,98.91,82.36,36.88,16.71,75.87,21.16,107,21.16,7.54,0,14.62-.26,21.09-.67,35.85-2.29,60.52-9.37,61.55-9.67l.53-.15.52.15c1,.3,25.71,7.38,61.55,9.67,6.47.41,13.55.67,21.1.67,31.08,0,70.08-4.45,107-21.16,45.83-20.77,79.08-56.25,98.91-82.36,21.45-28.26,31.94-51.28,32.38-52.24l1.42-3.15ZM647,469.17c-19.39,25.51-51.87,60.17-96.51,80.4s-92.64,22-125,20a340.55,340.55,0,0,1-47.7-6.42A322.68,322.68,0,0,0,427,552.7c32-9.36,77.74-28.26,114.27-65.13,23.22-23.43,37.68-50.56,46.71-75.37a322.54,322.54,0,0,1,32.34.42,328.55,328.55,0,0,1,57,8.54A314.14,314.14,0,0,1,647,469.17Zm-598.56-48a328.56,328.56,0,0,1,57-8.54,324,324,0,0,1,32.86-.41c9,24.81,23.48,51.94,46.69,75.36,36.53,36.87,81.82,55.77,113.37,65.13a315.71,315.71,0,0,0,49.19,10.51,340.18,340.18,0,0,1-47.28,6.33c-32.4,2.06-80.39.26-125-20s-77.12-54.89-96.51-80.4A313.3,313.3,0,0,1,48.45,421.16ZM243.09,145.42c0-3.93,1.69-14-1.12-17.42a2.92,2.92,0,0,0-2.25-1.13,82.64,82.64,0,0,1,9.56-5.62c1.12,1.12,2.24,2.81,3.37,3.93,15.18,14.62,29.8,29.24,45,43.86,5.62,5.62,10.68,13.49,19.68,11.81,3.37-.56,9-1.13,8.43-5.63,0-3.93-2.81-7.87-4.49-11.24-1.69-3.94-4.5-8.43-3.94-12.37.56-3.37,3.37-6.18,4.5-9.56,1.68-4.5-1.13-7.87-1.69-12.37-1.13-4.5,0-9.55,0-14.05s1.13-9.56-2.25-13.5c-1.68-1.68-3.37-2.81-5.06-4.5,16.3-5.63,32.61-7.31,50-7.31h0a229.36,229.36,0,0,1,98.39,21.93c-5.62,5.62-6.74,16.3-10.68,21.93-2.25,3.37-5.63,5.05-8.43,7.87-3.38,3.37-3.38,7.87-3.38,12.37-1.68,0,1.13,9.55,2.25,10.68,3.37,2.81,6.75.56,9.56-.56,11.24-5.63,7.87,7.31,12.93,12.93,7.31,7.87,14.06-7.87,15.74-12.37,1.69-5.06,2.81-7.87,0-12.37-2.25-3.37-3.37-5.06-2.25-9.56,1.13-3.93,3.94-8.43,6.19-12.37,1.13-1.12,2.25-2.81,3.37-3.93a63.8,63.8,0,0,0,6.19,3.37c-1.13,1.68-1.69,3.37-2.81,4.5-1.69,2.24-3.38,3.93-2.82,7.31A28.56,28.56,0,0,0,491,151.6c2.25,3.37,5.06,2.81,9,1.68,5.62-1.12,10.68,2.81,3.37,6.19-3.37,1.68-6.18,2.24-6.18,6.74,0,2.25.56,4.5-2.25,5.63-2.81,1.68-5.06,0-7.31,3.37-1.69,2.81-2.25,6.19-3.37,8.43-3.38,6.75-11.81,4.5-18.56,4.5-3.37,0-6.18,0-8.43-2.81-1.13-1.69-1.69-4.5-3.37-5.63-5.63-3.37-5.06,9-7.88,10.69-2.24,1.68-4.49,1.68-6.74,3.37a25.1,25.1,0,0,0-4.5,6.19c-2.81,3.37-5.06,6.18-9,7.87-3.37,1.12-7.31,1.68-10.12,3.37-6.18,3.94,0,11.81,2.82,16.3,1.12,2.25,4.49,6.19,1.12,8.44-2.25,1.68-6.74.56-9,0-2.81,0-6.74-1.13-9,0-3.94,1.68-2.81,5.06-2.81,8.43,0,0,.56,7.87,1.12,9,1.13,2.24,3.94,3.37,6.75,3.93,6.18,1.69,12.93,5.06,17.43-.56s6.74-12.37,13.49-16.3c3.94-2.25,11.25-7.31,15.74-5.06,6.19,2.81,9.56,12.37,14.62,17.43,2.25,2.25,3.94,3.37,6.75,1.69s3.94-5.06,2.25-7.32c-2.82-4.49-15.75-7.31-12.37-14.61,2.81-5.63,11.81,3.37,14.61,5.62a11.35,11.35,0,0,1,4.5,7.87c0,2.81,0,5.06,1.13,7.31.17.26.37.58.58.94-7,4-15.92,9.61-25.92,16.75a51.51,51.51,0,0,1-1.65-5.88c-2.81-6.74-10.68-3.37-16.3-2.25l-21.93,3.38c-7.87,1.68-12.37,2.81-17.43,9-.1.13-.19.24-.3.36l-18.37-43.89a2.58,2.58,0,0,1-.18-.75l0,0a12.54,12.54,0,0,0-18.48-3,2.37,2.37,0,0,1-3.09-.09.86.86,0,0,1-.14-.13l-.1-.09a12.54,12.54,0,0,0-19.22,3.49l-.19.38-32.24,77a308.22,308.22,0,0,0-33.24-29.75c-6.92-5.35-13.54-10-19.58-14.06.4-.23.78-.47,1.21-.7a351.62,351.62,0,0,1,32.61-16.31c3.37-1.68,11.81-3.37,13.5-7.87s-3.94-12.37-5.63-16.3L290.32,205c-1.69-3.94-3.37-11.24-8.43-11.24-2.82,0-4.5,2.25-7.31.56a11.23,11.23,0,0,1-2.25-4.5c-1.69-3.94-2.25-11.24-6.75-13.49-3.37-1.69-10.68-1.13-13.49,0-5.06,1.68-4.5,7.87-5.06,12.36-.56,5.63,0,32.06-11.81,25.87-5.06-2.81-9.56-9.56-13.5-14.06-3.37-3.93-9-7.87-11.24-12.37s0-11.8,2.81-15.74,7.87-3.94,11.81-5.06c4.5-1.12,13.5-1.12,16.3-4.5C244.78,159.48,243.09,149.92,243.09,145.42Zm337.36,99a35.42,35.42,0,0,1,1.68,10.68c0,3.94-1.12,5.06-5.06,5.63-2.24,0-7.31,0-9-1.69-2.25-2.25-1.13-4.5-.57-7.31a20.14,20.14,0,0,0-1.12-10.12c-1.13-2.81-3.37-6.75-2.81-9.56.56-3.37,4.5-5.06,6.74-6.74,1.69-.56,2.25-1.69,3.38-2.25,1.12,3.37,2.81,6.18,3.93,9-1.12,1.13-1.12,2.25-1.12,3.94C577.07,238.75,579.88,241.56,580.45,244.37Zm15.74,62.41c-3.94-3.37-9-5.62-14.06-3.93-2.81,1.12-5.62,2.81-7.87,0-2.25-2.25-3.37-6.75-4.5-9.56-2.24-7.31,2.82-9,7.87-5.06,5.06,5.06,10.12,7.31,17.43,7.87h0C595.62,299.47,595.62,303.41,596.19,306.78Zm-3.59,66.15a248.85,248.85,0,0,1-9,33.45c-25,1.27-53.5,5.75-81.3,16.72,11-29.64,14.5-59.87,14.65-85.6A278.4,278.4,0,0,1,543.27,328a284.69,284.69,0,0,1,54.24-11.11A258,258,0,0,1,592.6,372.93Zm-178,153.68a321.87,321.87,0,0,1-42.77,28A325.89,325.89,0,0,1,398.73,513c18.78-24.71,49.85-58,92.35-78.45C471.65,476.64,438.93,507.75,414.57,526.61Zm-180-92.07C277.12,455,308.18,488.28,327,513a324.26,324.26,0,0,1,26.92,41.62C331.45,542.4,265.8,502.15,234.61,434.54Zm-101-61.43a259,259,0,0,1-4.95-56.2,293.93,293.93,0,0,1,80,20.45c.14,25.76,3.59,56.05,14.65,85.74-27.61-10.9-55.91-15.39-80.8-16.7A250.38,250.38,0,0,1,133.63,373.11Zm81.1-39.79c.07-8.92.53-17.23,1.19-24.69a314.64,314.64,0,0,1,9.84-55.4c10.88,5.59,48.14,26.15,81.58,61.41l-12,28.69a123.36,123.36,0,0,0-9.1,37.38C263.93,358.49,238.06,343.43,214.73,333.32ZM362.85,558.86a314.22,314.22,0,0,0-31-49.37c-.36-.48-.74-1-1.12-1.45l12.07-14a95.89,95.89,0,0,0,18-31.8,2.37,2.37,0,0,1,4.5,0,95.87,95.87,0,0,0,18.15,31.91l11.72,13.6-1.34,1.74A314.22,314.22,0,0,0,362.85,558.86ZM293.36,446.38a39.37,39.37,0,0,0,1.91-25.75,118.42,118.42,0,0,1,5.31-74.86l39.25-93.47,7.57-18a2.55,2.55,0,0,1,.17-.33,6.85,6.85,0,0,1,12.66,3.69v92.85a.81.81,0,0,1,0,.16v101a90.62,90.62,0,0,1-21.74,58.76l-11.28,13.17a297.75,297.75,0,0,0-43.11-44.12A39.38,39.38,0,0,0,293.36,446.38Zm94.26,43.84a90.61,90.61,0,0,1-21.74-58.69v-101s0-.07,0-.11v-93a6.67,6.67,0,0,1,5.17-6.62,1.27,1.27,0,0,1,.28-.06,8.43,8.43,0,0,1,1.74,0,6.41,6.41,0,0,1,5.21,3,3.06,3.06,0,0,1,.23.43l8.8,21,38,90.51a118.5,118.5,0,0,1,5.31,75.18,39.06,39.06,0,0,0,11.25,38.41,297.78,297.78,0,0,0-43.13,44Zm42.74-146.63-13.6-32.48,1.29,2.58.3.91a301.69,301.69,0,0,1,34.25-30.94,313.7,313.7,0,0,1,47.34-30.43,314.45,314.45,0,0,1,9.84,55.4c.66,7.52,1.13,15.91,1.19,24.91-23.37,10.18-49.23,25.32-71.48,47.64A123.31,123.31,0,0,0,430.36,343.59Zm-215.62-3.65c24.23,10.72,49.66,26.31,71.08,48.93a123.31,123.31,0,0,0,3.9,33.26,33.14,33.14,0,0,1-10.21,33.6,227.32,227.32,0,0,0-46.58-28.6l-1.88-.82C219,396.71,215.11,366.09,214.74,339.94Zm278,87.19A227.85,227.85,0,0,0,446,455.84,33.26,33.26,0,0,1,436,422a122.37,122.37,0,0,0,3.85-32.58c21.71-23.11,47.55-38.77,71.07-49.29-.38,26.11-4.32,56.66-16.3,86.2Zm48.91-104.9c-1.35.41-2.72.85-4.12,1.29-2-4.59-4.13-9.17-6-13.92-1.12-2.25-7.87-15.74-1.68-14.05,2.24.56,4.49,6.18,5.62,7.87a98,98,0,0,0,5.62,10.68c1.18,2.36,2.37,4.79,3.57,7.24C543.68,321.63,542.68,321.92,541.68,322.23Zm-2.29-73.36c-1.12,1.13-3.93,1.69-6.74-.56a45,45,0,0,0-9-4.5,37.14,37.14,0,0,1-4.5-1.69h-.56a.55.55,0,0,1-.56-.56l-.56-.56c-2.25-.57-2.81-1.13-2.81-2.25a5.71,5.71,0,0,1,1.68-5.62h0a13.6,13.6,0,0,1,7.87-5.06h2.24c4.5,1.12,10.12,11.24,12.37,14.05C540.52,244.94,540.52,247.18,539.39,248.87Zm-16.3,16.86c7.31,1.69,6.75,8.44,2.25,13.5-3.82,3.82-8.43,3.74-12.93,2.77-1.43-8.55-3-15.77-4.33-21.34C512,265,517.55,264.22,523.09,265.73ZM211.5,294c-.58,4.41-1.11,9.07-1.54,13.94-.23,2.53-.43,5.17-.6,7.89-5.07-.77-7.85,6.08-12.94,5.57-5.62-.56-6.74-8.43-5.62-12.37,1.12-4.5,2.81-10.68,7.31-12.37C201.8,295,207,294.28,211.5,294Zm-82.14,16.94a233.83,233.83,0,0,1,7.46-45.76,273.94,273.94,0,0,0,15.75,28.11c3.37,5.63,7.31,11.25,10.68,16.87,1.71,2.73,3.21,5.46,5.39,7.69A274.36,274.36,0,0,0,129.36,310.94Zm59.86,172.41c-21.76-22-35.62-47.35-44.44-70.81,25.31,1.53,54,6.49,81.66,18.29.35.84.7,1.68,1.06,2.52,19.72,45.14,54.43,78.26,80.08,98.1a332.6,332.6,0,0,0,37.94,25.42,314.46,314.46,0,0,1-45.65-10C269,537.73,224.82,519.26,189.22,483.35ZM425.43,546.9a322.24,322.24,0,0,1-44.91,9.77,332.14,332.14,0,0,0,37.6-25.22c25.65-19.84,60.36-53,80.07-98.1.37-.84.72-1.68,1.07-2.52C527.09,419,556,414,581.43,412.51,572.6,436,558.74,461.37,537,483.35,501.38,519.26,456.67,537.73,425.43,546.9Z"/><path class="au" d="M406.38,352.38a.56.56,0,0,0,0,.12,2.62,2.62,0,0,0,4.95-1.7L374.51,243.21Z"/><path class="av" d="M385.86,363.67a.59.59,0,0,0,0,.13,2.62,2.62,0,0,0,5.15-.94L372.11,258.61Z"/><path class="aw" d="M314.35,350.91a2.62,2.62,0,1,0,5,1.47l31.87-109.17L314.38,350.8Z"/><path class="ax" d="M334.72,362.86s0,.09,0,.13a2.62,2.62,0,0,0,5.19.68l13.75-105.06Z"/></svg>