<?xml version="1.0" encoding="UTF-8"?> <!-- Generator: Adobe Illustrator 24.0.3, SVG Export Plug-In . SVG Version: 6.00 Build 0) --> <svg xmlns="http://www.w3.org/2000/svg" xmlns:xlink="http://www.w3.org/1999/xlink" id="Слой_1" x="0px" y="0px" viewBox="0 0 328.6 359.1" style="enable-background:new 0 0 328.6 359.1;" xml:space="preserve"> <style type="text/css"> .st0{fill:url(#SVGID_1_);} .st1{fill:url(#SVGID_2_);} .st2{fill:url(#SVGID_3_);} .st3{fill:url(#SVGID_4_);} .st4{fill:url(#SVGID_5_);} .st5{fill:url(#SVGID_6_);} .st6{fill:url(#SVGID_7_);} .st7{fill:url(#SVGID_8_);} .st8{fill:url(#SVGID_9_);} .st9{fill:url(#SVGID_10_);} .st10{fill:url(#SVGID_11_);} .st11{fill:url(#SVGID_12_);} .st12{fill:url(#SVGID_13_);} .st13{fill:url(#SVGID_14_);} .st14{fill:url(#SVGID_15_);} .st15{fill:url(#SVGID_16_);} .st16{fill:url(#SVGID_17_);} .st17{fill:url(#SVGID_18_);} .st18{fill:url(#SVGID_19_);} .st19{fill:url(#SVGID_20_);} .st20{fill:url(#SVGID_21_);} .st21{fill:url(#SVGID_22_);} .st22{fill:url(#SVGID_23_);} .st23{fill:url(#SVGID_24_);} .st24{fill:url(#SVGID_25_);} .st25{fill:url(#SVGID_26_);} .st26{fill:url(#SVGID_27_);} .st27{fill:url(#SVGID_28_);} .st28{fill:url(#SVGID_29_);} .st29{fill:url(#SVGID_30_);} .st30{fill:url(#SVGID_31_);} .st31{fill:url(#SVGID_32_);} .st32{fill:url(#SVGID_33_);} .st33{fill:url(#SVGID_34_);} .st34{fill:url(#SVGID_35_);} .st35{fill:url(#SVGID_36_);} .st36{fill:url(#SVGID_37_);} .st37{fill:url(#SVGID_38_);} .st38{fill:url(#SVGID_39_);} .st39{fill:url(#SVGID_40_);} .st40{fill:url(#SVGID_41_);} .st41{fill:url(#SVGID_42_);} .st42{fill:url(#SVGID_43_);} .st43{fill:url(#SVGID_44_);} .st44{fill:url(#SVGID_45_);} .st45{fill:url(#SVGID_46_);} .st46{fill:url(#SVGID_47_);} .st47{fill:url(#SVGID_48_);} .st48{fill:url(#SVGID_49_);} .st49{fill:url(#SVGID_50_);} .st50{fill:url(#SVGID_51_);} .st51{fill:url(#SVGID_52_);} .st52{fill:url(#SVGID_53_);} .st53{fill:url(#SVGID_54_);} .st54{fill:url(#SVGID_55_);} .st55{fill:url(#SVGID_56_);} .st56{fill:url(#SVGID_57_);} .st57{fill:url(#SVGID_58_);} .st58{fill:url(#SVGID_59_);} </style> <title>yogis-for-peace-big-gold</title> <g> <linearGradient id="SVGID_1_" gradientUnits="userSpaceOnUse" x1="-87.1459" y1="303.932" x2="100.0901" y2="-98.4216" gradientTransform="matrix(1 0 0 -1 0 361.0526)"> <stop offset="1.000000e-02" style="stop-color:#EAB245"></stop> <stop offset="0.27" style="stop-color:#F1E3A6"></stop> <stop offset="0.39" style="stop-color:#DCC07A"></stop> <stop offset="0.6" style="stop-color:#B27C23"></stop> <stop offset="0.86" style="stop-color:#E8CE7F"></stop> <stop offset="0.89" style="stop-color:#EED688"></stop> <stop offset="1" style="stop-color:#F6E8AA"></stop> </linearGradient> <path class="st0" d="M34.5,281.5c0.2-0.2,0.3-0.5,0.2-0.9c0-0.3-0.1-0.5-0.2-0.8c-0.1-0.2-0.4-0.3-0.7-0.3 c-2.1,0.1-3.7,0.2-4.9,0.2c-1.4,0-3.2-0.1-5.3-0.2c-0.2,0-0.5,0.1-0.6,0.3c-0.3,0.5-0.3,1.1,0,1.6c0.2,0.1,0.4,0.2,0.7,0.2H24 c0.7,0,1.3,0,2,0.2c0.4,0.1,0.6,0.4,0.6,0.8c-0.1,0.5-0.2,1-0.4,1.4l-5.4,10.6h-0.2c-0.5-0.8-1.4-2.7-2.8-5.5c-1-2-1.7-3.5-2.3-4.6 c-0.9-1.7-2.2-3.1-3.9-4c-1.9-0.8-4-1.1-6.1-1c-0.3,0-0.7,0-1,0.2c-0.2,0.2-0.4,0.5-0.3,0.8c0,0.2,0,0.5,0.1,0.7 c0.1,0.2,0.3,0.3,0.5,0.3l0.6,0.1c1,0.2,2,0.6,2.9,1.2c0.9,0.7,1.6,1.6,2.1,2.6c1,1.8,2.3,4.3,3.9,7.6c1.6,3.3,2.4,5.1,2.4,5.7v6.1 c0,0.7-0.1,1.3-0.2,2c-0.1,0.5-0.4,1-0.9,1.3c-0.6,0.4-1.4,0.6-2.1,0.5c-0.3,0-0.6,0-0.9,0.1c-0.2,0.1-0.3,0.4-0.3,0.9 c0,0.3,0.1,0.5,0.2,0.8c0.1,0.2,0.4,0.3,0.7,0.3c2.1-0.1,4.1-0.1,6-0.1c1.9,0,3.8,0.1,5.8,0.1c0.2,0,0.5-0.1,0.6-0.3 c0.2-0.2,0.2-0.5,0.2-0.8c0-0.3-0.1-0.6-0.2-0.8c-0.2-0.1-0.4-0.2-0.7-0.2h-0.3c-0.7,0.1-1.5-0.1-2.1-0.5c-0.4-0.3-0.7-0.8-0.9-1.3 c-0.1-0.7-0.2-1.3-0.2-2V300c0-0.6,0-1.2,0.2-1.8c0.1-0.6,0.3-1.1,0.6-1.7c0.3-0.6,0.5-1,0.6-1.2l5.5-10.3c0.5-1,1.2-1.9,2.2-2.6 c1-0.5,2.1-0.8,3.2-0.8C34.1,281.7,34.3,281.7,34.5,281.5z"></path> <linearGradient id="SVGID_2_" gradientUnits="userSpaceOnUse" x1="-72.9852" y1="310.5309" x2="114.2508" y2="-91.8326" gradientTransform="matrix(1 0 0 -1 0 361.0526)"> <stop offset="1.000000e-02" style="stop-color:#EAB245"></stop> <stop offset="0.27" style="stop-color:#F1E3A6"></stop> <stop offset="0.39" style="stop-color:#DCC07A"></stop> <stop offset="0.6" style="stop-color:#B27C23"></stop> <stop offset="0.86" style="stop-color:#E8CE7F"></stop> <stop offset="0.89" style="stop-color:#EED688"></stop> <stop offset="1" style="stop-color:#F6E8AA"></stop> </linearGradient> <path class="st1" d="M48.7,289.4c-3.4-2.1-7.7-2.1-11.2-0.2c-3.8,2.1-6.1,6.1-6,10.5c0,1.9,0.5,3.8,1.4,5.5c0.9,1.7,2.3,3.2,4,4.2 c3.4,2.1,7.7,2.1,11.1,0.2c1.8-1,3.3-2.4,4.3-4.1c1.2-1.9,1.8-4.1,1.7-6.3C54.1,295.1,52.1,291.4,48.7,289.4L48.7,289.4z M47.7,306.4c-0.9,1.8-2.8,2.9-4.8,2.8c-2,0.1-3.9-0.9-4.8-2.7c-1.1-2.1-1.7-4.5-1.6-6.9c-0.1-2.5,0.4-5,1.5-7.2 c0.9-1.8,2.8-2.9,4.9-2.8c2-0.1,3.8,0.9,4.8,2.6c1.1,2.1,1.7,4.5,1.6,6.8C49.3,301.6,48.7,304.1,47.7,306.4L47.7,306.4z"></path> <linearGradient id="SVGID_3_" gradientUnits="userSpaceOnUse" x1="-52.5097" y1="320.0488" x2="134.7262" y2="-82.3048" gradientTransform="matrix(1 0 0 -1 0 361.0526)"> <stop offset="1.000000e-02" style="stop-color:#EAB245"></stop> <stop offset="0.27" style="stop-color:#F1E3A6"></stop> <stop offset="0.39" style="stop-color:#DCC07A"></stop> <stop offset="0.6" style="stop-color:#B27C23"></stop> <stop offset="0.86" style="stop-color:#E8CE7F"></stop> <stop offset="0.89" style="stop-color:#EED688"></stop> <stop offset="1" style="stop-color:#F6E8AA"></stop> </linearGradient> <path class="st2" d="M80.1,287.5L80.1,287.5l-6.7,1.3c-1.7-0.7-3.5-1.1-5.4-1c-1.7,0-3.3,0.3-4.9,1c-1.3,0.6-2.5,1.5-3.3,2.7 c-1.6,2.3-1.6,5.3,0,7.6c1,1.3,2.4,2.3,4,2.8c-1.4-0.1-2.8,0.4-3.8,1.3c-0.9,0.8-1.4,2-1.3,3.2c-0.1,1,0.3,2,1,2.7 c0.9,0.7,1.9,1.1,2.9,1.2c1.6,0.2,3.3,0.3,4.9,0.3c1.5,0,3,0.1,4.6,0.3c1,0.1,2,0.4,2.9,1c0.8,0.5,1.2,1.4,1.2,2.3 c0.1,1.5-0.7,3-2,3.8c-1.7,1-3.7,1.4-5.7,1.3c-4.3,0-6.4-1.2-6.4-3.7c0-0.5,0.1-1,0.3-1.4c0.2-0.4,0.4-0.7,0.7-1 c0.2-0.1,0.3-0.3,0.4-0.5c0-0.1-0.1-0.3-0.4-0.6c-0.3-0.3-0.6-0.5-0.9-0.6c-0.4-0.2-0.8-0.3-1.3-0.3c-1,0-2,0.4-2.7,1.2 c-0.7,0.8-1,1.8-1,2.9c0,3.9,3.4,5.8,10.2,5.8c3.9,0,7.1-0.7,9.5-2.2c2.2-1.2,3.6-3.5,3.5-5.9c0.1-1.8-0.8-3.4-2.3-4.3 c-1.5-1-4-1.5-7.4-1.6l-6.6-0.3c-0.8,0-1.5-0.2-2.2-0.5c-0.4-0.3-0.7-0.8-0.6-1.4c0-0.7,0.4-1.4,1.1-1.6c1.2-0.4,2.4-0.6,3.7-0.5 h2.1c1.5,0,3-0.3,4.4-0.9c1.3-0.6,2.5-1.5,3.4-2.7c0.8-1.1,1.3-2.5,1.3-3.9c0-0.9-0.2-1.8-0.6-2.6c-0.3-0.8-0.8-1.6-1.4-2.2v-0.1 l4.8,0.2c0.2,0,0.4-0.2,0.5-0.6c0.1-0.4,0.2-0.8,0.2-1.3C80.9,287.8,80.6,287.5,80.1,287.5z M71.6,299.6c-1.8,2-4.9,2.2-6.9,0.4 c-0.1-0.1-0.2-0.2-0.4-0.4c-1-1.3-1.5-2.9-1.4-4.6c-0.1-1.5,0.4-3,1.4-4.2c0.9-1,2.2-1.6,3.6-1.6c1.4,0,2.7,0.5,3.7,1.6 c1,1.2,1.5,2.7,1.4,4.3C73.1,296.8,72.6,298.3,71.6,299.6z"></path> <linearGradient id="SVGID_4_" gradientUnits="userSpaceOnUse" x1="-36.5582" y1="327.4835" x2="150.6877" y2="-74.8801" gradientTransform="matrix(1 0 0 -1 0 361.0526)"> <stop offset="1.000000e-02" style="stop-color:#EAB245"></stop> <stop offset="0.27" style="stop-color:#F1E3A6"></stop> <stop offset="0.39" style="stop-color:#DCC07A"></stop> <stop offset="0.6" style="stop-color:#B27C23"></stop> <stop offset="0.86" style="stop-color:#E8CE7F"></stop> <stop offset="0.89" style="stop-color:#EED688"></stop> <stop offset="1" style="stop-color:#F6E8AA"></stop> </linearGradient> <path class="st3" d="M93.8,308.7h-0.3c-0.6,0.1-1.3-0.1-1.8-0.4c-0.3-0.2-0.6-0.6-0.6-1c-0.1-0.6-0.1-1.2-0.1-1.8v-16.9 c0-0.6-0.3-0.9-0.8-0.9h-0.1c-0.4,0.1-0.8,0.2-1.1,0.3c-1.7,0.6-3.5,1-5.2,1.3c-0.2,0-0.4,0.1-0.6,0.3c-0.1,0.2-0.2,0.4-0.2,0.6 c0,0.4,0.1,0.7,0.3,0.8c0.3,0.1,0.6,0.2,0.9,0.2c0.6-0.1,1.3,0.1,1.8,0.4c0.3,0.2,0.5,0.6,0.6,1c0.1,0.6,0.1,1.2,0.1,1.9v11.1 c0,0.6,0,1.2-0.1,1.8c-0.1,0.4-0.3,0.8-0.6,1c-0.5,0.3-1.2,0.5-1.8,0.4c-0.3,0-0.6,0-0.9,0.1c-0.2,0.1-0.3,0.3-0.3,0.8 c0,0.2,0.1,0.5,0.2,0.7c0.1,0.2,0.3,0.3,0.6,0.3c1.9-0.1,3.6-0.1,5-0.1s3.2,0.1,5.1,0.1c0.2,0,0.5-0.1,0.6-0.3 c0.1-0.2,0.2-0.4,0.2-0.7c0.1-0.4-0.1-0.8-0.5-0.9C94,308.6,93.9,308.6,93.8,308.7L93.8,308.7z"></path> <linearGradient id="SVGID_5_" gradientUnits="userSpaceOnUse" x1="-27.7238" y1="331.5909" x2="159.5122" y2="-70.7727" gradientTransform="matrix(1 0 0 -1 0 361.0526)"> <stop offset="1.000000e-02" style="stop-color:#EAB245"></stop> <stop offset="0.27" style="stop-color:#F1E3A6"></stop> <stop offset="0.39" style="stop-color:#DCC07A"></stop> <stop offset="0.6" style="stop-color:#B27C23"></stop> <stop offset="0.86" style="stop-color:#E8CE7F"></stop> <stop offset="0.89" style="stop-color:#EED688"></stop> <stop offset="1" style="stop-color:#F6E8AA"></stop> </linearGradient> <path class="st4" d="M90.8,281.3c0.6-0.5,0.9-1.2,0.9-2c0-0.8-0.3-1.6-0.8-2.2c-0.5-0.6-1.2-0.9-2-0.9c-0.9,0-1.8,0.3-2.5,0.9 c-0.7,0.4-1.1,1.2-1.1,2c0,0.8,0.3,1.6,0.9,2.1c0.6,0.6,1.4,0.9,2.3,0.8C89.3,282.2,90.2,281.9,90.8,281.3z"></path> <linearGradient id="SVGID_6_" gradientUnits="userSpaceOnUse" x1="-21.0607" y1="334.6931" x2="166.1753" y2="-67.6705" gradientTransform="matrix(1 0 0 -1 0 361.0526)"> <stop offset="1.000000e-02" style="stop-color:#EAB245"></stop> <stop offset="0.27" style="stop-color:#F1E3A6"></stop> <stop offset="0.39" style="stop-color:#DCC07A"></stop> <stop offset="0.6" style="stop-color:#B27C23"></stop> <stop offset="0.86" style="stop-color:#E8CE7F"></stop> <stop offset="0.89" style="stop-color:#EED688"></stop> <stop offset="1" style="stop-color:#F6E8AA"></stop> </linearGradient> <path class="st5" d="M112.1,298.9c-1.3-0.6-2.6-1.1-4-1.5c-1.7-0.6-2.9-1-3.7-1.3c-0.7-0.3-1.3-0.7-1.7-1.3 c-0.4-0.6-0.6-1.4-0.6-2.2c0-1,0.5-1.9,1.3-2.4c1-0.6,2.1-0.9,3.2-0.9c1,0,2,0.2,2.9,0.7c0.7,0.4,1.2,1.2,1.3,2 c0,0.4-0.1,0.8-0.3,1.1c-0.2,0.3-0.4,0.6-0.7,0.8c-0.1,0.1-0.3,0.2-0.4,0.4c0,0.2,0.2,0.4,0.6,0.7c0.4,0.3,0.9,0.5,1.4,0.5 c0.8,0,1.6-0.3,2.1-0.9c0.5-0.6,0.8-1.4,0.8-2.2c0-1.4-0.8-2.8-2.1-3.4c-1.5-0.8-3.3-1.3-5-1.2c-1.4,0-2.9,0.2-4.3,0.7 c-1.3,0.4-2.4,1.2-3.3,2.2c-0.8,1-1.3,2.2-1.3,3.5c-0.1,1.3,0.3,2.5,1.1,3.5c0.7,0.9,1.6,1.6,2.6,2c1.3,0.5,2.6,1,3.9,1.4 c1.3,0.4,2.3,0.7,3,1c0.7,0.3,1.3,0.7,1.8,1.2c0.5,0.5,0.8,1.3,0.7,2c0.1,1.1-0.4,2.1-1.3,2.8c-1,0.7-2.3,1.1-3.6,1 c-1.3,0.1-2.7-0.2-3.9-0.9c-0.8-0.5-1.4-1.3-1.3-2.3c0-0.6,0.2-1.2,0.6-1.7c0.2-0.2,0.4-0.4,0.6-0.6c0-0.2-0.2-0.4-0.6-0.7 c-0.4-0.3-0.9-0.4-1.4-0.4c-0.8,0-1.6,0.3-2.2,0.9c-0.6,0.6-0.9,1.4-0.9,2.3c0,1.7,1,3.2,2.5,3.9c2,1,4.1,1.5,6.3,1.4 c1.6,0,3.1-0.3,4.6-0.9c1.3-0.5,2.4-1.4,3.2-2.5c0.8-1.1,1.2-2.3,1.2-3.6c0.1-1.1-0.2-2.2-0.9-3.1C113.8,300,113,299.3,112.1,298.9 z"></path> <linearGradient id="SVGID_7_" gradientUnits="userSpaceOnUse" x1="8.3971" y1="348.4039" x2="195.643" y2="-53.9597" gradientTransform="matrix(1 0 0 -1 0 361.0526)"> <stop offset="1.000000e-02" style="stop-color:#EAB245"></stop> <stop offset="0.27" style="stop-color:#F1E3A6"></stop> <stop offset="0.39" style="stop-color:#DCC07A"></stop> <stop offset="0.6" style="stop-color:#B27C23"></stop> <stop offset="0.86" style="stop-color:#E8CE7F"></stop> <stop offset="0.89" style="stop-color:#EED688"></stop> <stop offset="1" style="stop-color:#F6E8AA"></stop> </linearGradient> <path class="st6" d="M148,282.3c1.4-1.8,1.1-4.4-0.7-5.8c-0.1-0.1-0.2-0.1-0.3-0.2c-1.2-0.9-2.7-1.4-4.3-1.3 c-2.6-0.1-5.1,1.1-6.6,3.2c-1.7,2.4-2.5,5.2-2.4,8.1v2h-2.9c-0.3,0-0.6,0-0.9,0.1c-0.2,0.1-0.3,0.3-0.3,0.8c0,0.2,0.1,0.5,0.2,0.7 c0.1,0.2,0.4,0.3,0.6,0.3h3.3v15.1c0,0.6,0,1.2-0.1,1.9c-0.1,0.4-0.3,0.8-0.6,1c-0.5,0.3-1.2,0.5-1.8,0.4c-0.3,0-0.6,0-0.9,0.1 c-0.1,0.1-0.2,0.3-0.3,0.8c0,0.2,0.1,0.5,0.2,0.7c0.1,0.2,0.4,0.3,0.6,0.3c1.8-0.1,3.5-0.1,5-0.1c2.2,0,4.2,0,6.1,0.1 c0.2,0,0.4-0.1,0.5-0.3c0.1-0.2,0.2-0.4,0.2-0.7c0-0.3-0.1-0.5-0.2-0.7c-0.2-0.1-0.4-0.2-0.6-0.1h-0.3c-0.8,0-1.5,0-2.3-0.2 c-0.4-0.1-0.8-0.5-0.9-0.9c-0.2-0.7-0.3-1.4-0.2-2.2v-15h5.1c0.2,0,0.4-0.1,0.6-0.3c0.2-0.2,0.2-0.4,0.2-0.7c0-0.3-0.1-0.5-0.3-0.8 c-0.2-0.1-0.4-0.2-0.7-0.2h-5v-2.9c0-1.4,0.1-2.7,0.2-4.1c0.1-1.2,0.5-2.3,1.1-3.3c0.6-1,1.7-1.5,2.8-1.5c0.7,0,1.5,0.3,2,0.8 c0.5,0.5,0.8,1.1,0.8,1.8c0,0.5-0.1,1-0.4,1.4c-0.2,0.4-0.5,0.7-0.8,1c-0.2,0.1-0.3,0.3-0.5,0.5c0,0.2,0.2,0.5,0.6,0.8 c0.4,0.3,1,0.5,1.5,0.5C146.5,283.4,147.4,283,148,282.3z"></path> <linearGradient id="SVGID_8_" gradientUnits="userSpaceOnUse" x1="21.2167" y1="354.3644" x2="208.4526" y2="-47.9992" gradientTransform="matrix(1 0 0 -1 0 361.0526)"> <stop offset="1.000000e-02" style="stop-color:#EAB245"></stop> <stop offset="0.27" style="stop-color:#F1E3A6"></stop> <stop offset="0.39" style="stop-color:#DCC07A"></stop> <stop offset="0.6" style="stop-color:#B27C23"></stop> <stop offset="0.86" style="stop-color:#E8CE7F"></stop> <stop offset="0.89" style="stop-color:#EED688"></stop> <stop offset="1" style="stop-color:#F6E8AA"></stop> </linearGradient> <path class="st7" d="M163.3,289.4c-3.4-2.1-7.7-2.1-11.2-0.2c-3.8,2.1-6.1,6.1-6,10.5c0,1.9,0.5,3.8,1.4,5.5c0.9,1.7,2.3,3.2,4,4.2 c1.8,1.1,3.8,1.6,5.9,1.6c1.8,0,3.6-0.5,5.2-1.4c1.8-1,3.3-2.4,4.3-4.1c1.2-1.9,1.8-4.1,1.7-6.3 C168.7,295.1,166.7,291.4,163.3,289.4L163.3,289.4z M162.3,306.4c-0.9,1.8-2.8,2.9-4.8,2.8c-2,0.1-3.9-0.9-4.8-2.7 c-1.1-2.1-1.6-4.5-1.6-6.9c-0.1-2.5,0.4-5,1.5-7.2c0.9-1.8,2.8-2.9,4.8-2.8c2-0.1,3.8,0.9,4.8,2.6c1.1,2.1,1.7,4.5,1.6,6.8 C163.9,301.6,163.3,304.1,162.3,306.4L162.3,306.4z"></path> <linearGradient id="SVGID_9_" gradientUnits="userSpaceOnUse" x1="40.3541" y1="363.2739" x2="227.59" y2="-39.0897" gradientTransform="matrix(1 0 0 -1 0 361.0526)"> <stop offset="1.000000e-02" style="stop-color:#EAB245"></stop> <stop offset="0.27" style="stop-color:#F1E3A6"></stop> <stop offset="0.39" style="stop-color:#DCC07A"></stop> <stop offset="0.6" style="stop-color:#B27C23"></stop> <stop offset="0.86" style="stop-color:#E8CE7F"></stop> <stop offset="0.89" style="stop-color:#EED688"></stop> <stop offset="1" style="stop-color:#F6E8AA"></stop> </linearGradient> <path class="st8" d="M186.8,287.8c-1.1,0.1-2.2,0.4-3.2,1c-1.3,0.7-2.4,1.6-3.4,2.7H180v-3c0-0.6-0.3-0.9-0.8-0.9h-0.1 c-0.4,0.1-0.8,0.2-1.1,0.3c-1.7,0.6-3.4,1-5.2,1.3c-0.2,0-0.4,0.1-0.6,0.3c-0.1,0.2-0.2,0.4-0.2,0.6c0,0.4,0.1,0.7,0.3,0.8 c0.3,0.1,0.6,0.2,0.9,0.2c0.6-0.1,1.3,0.1,1.8,0.4c0.3,0.2,0.5,0.6,0.6,1c0.1,0.6,0.1,1.2,0.1,1.9v11.1c0,0.6,0,1.2-0.1,1.8 c-0.1,0.4-0.3,0.8-0.6,1c-0.5,0.3-1.2,0.5-1.8,0.4c-0.3,0-0.6,0-0.9,0.1c-0.2,0.1-0.3,0.3-0.3,0.8c0,0.2,0.1,0.5,0.2,0.7 c0.1,0.2,0.3,0.3,0.6,0.3c1.9-0.1,3.6-0.1,5-0.1s3.2,0.1,5.1,0.1c0.2,0,0.5-0.1,0.6-0.3c0.1-0.2,0.2-0.4,0.2-0.7 c0-0.3-0.1-0.5-0.3-0.7c-0.2-0.1-0.4-0.2-0.6-0.1h-0.3c-0.6,0.1-1.3-0.1-1.8-0.4c-0.3-0.2-0.6-0.6-0.6-1c-0.1-0.6-0.1-1.2-0.1-1.8 v-11.8c0.7-0.8,1.6-1.4,2.5-2c0.6-0.5,1.3-0.7,2.1-0.8c0.5,0,0.9,0.2,1.2,0.5c0.3,0.4,0.5,0.9,0.5,1.4c0,0.4-0.2,0.9-0.4,1.2 c-0.2,0.2-0.3,0.4-0.5,0.6c0,0.1,0.2,0.3,0.6,0.5c0.4,0.2,0.8,0.3,1.2,0.3c0.9,0,1.7-0.4,2.3-1.1c0.5-0.7,0.8-1.6,0.8-2.4 c0-1-0.4-2-1-2.7C188.6,288.2,187.7,287.8,186.8,287.8z"></path> <linearGradient id="SVGID_10_" gradientUnits="userSpaceOnUse" x1="70.701" y1="377.3911" x2="257.9469" y2="-24.9725" gradientTransform="matrix(1 0 0 -1 0 361.0526)"> <stop offset="1.000000e-02" style="stop-color:#EAB245"></stop> <stop offset="0.27" style="stop-color:#F1E3A6"></stop> <stop offset="0.39" style="stop-color:#DCC07A"></stop> <stop offset="0.6" style="stop-color:#B27C23"></stop> <stop offset="0.86" style="stop-color:#E8CE7F"></stop> <stop offset="0.89" style="stop-color:#EED688"></stop> <stop offset="1" style="stop-color:#F6E8AA"></stop> </linearGradient> <path class="st9" d="M226.1,281.5c-2.6-1.2-5.4-1.7-8.2-1.8h-7.3c-1.8,0-3.7-0.1-5.8-0.2c-0.3,0-0.5,0.1-0.6,0.3 c-0.2,0.2-0.2,0.5-0.2,0.8c0,0.5,0.1,0.7,0.3,0.9c0.2,0.1,0.5,0.2,0.7,0.2h0.3c0.7-0.1,1.5,0.1,2.1,0.5c0.4,0.3,0.7,0.8,0.9,1.3 c0.1,0.7,0.2,1.3,0.2,2v19.3c0,0.7-0.1,1.3-0.2,2c-0.1,0.5-0.4,1-0.9,1.3c-0.6,0.4-1.4,0.6-2.1,0.5c-0.3,0-0.6,0-0.9,0.1 c-0.2,0.1-0.3,0.4-0.3,0.9c0,0.3,0.1,0.5,0.2,0.8c0.2,0.2,0.4,0.3,0.6,0.3c2.1-0.1,4-0.1,5.8-0.1c2,0,4,0,6.1,0.1 c0.3,0,0.5-0.1,0.7-0.3c0.1-0.2,0.2-0.5,0.2-0.8c0-0.5-0.1-0.7-0.3-0.8c-0.2-0.1-0.5-0.2-0.7-0.2h-0.3c-0.7,0.1-1.5-0.1-2.1-0.5 c-0.4-0.3-0.7-0.8-0.9-1.3c-0.1-0.7-0.2-1.3-0.2-2v-7c3.5,1.2,7.3,1,10.7-0.5c1.8-0.8,3.4-2,4.5-3.6c1.2-1.5,1.8-3.3,1.8-5.2 C230.1,285,228.7,282.7,226.1,281.5z M223.3,293.2c-0.8,1.1-1.9,2-3.2,2.5c-1.2,0.5-2.4,0.7-3.6,0.7c-1.2,0.1-2.4-0.1-3.5-0.5 v-10.5c0-0.8,0.1-1.6,0.3-2.4c0.1-0.4,0.5-0.8,0.9-1c0.6-0.2,1.2-0.3,1.9-0.3c2,0,4,0.5,5.8,1.4c1.8,0.9,2.7,2.8,2.7,5.7 C224.7,290.3,224.3,291.8,223.3,293.2L223.3,293.2z"></path> <linearGradient id="SVGID_11_" gradientUnits="userSpaceOnUse" x1="91.3856" y1="387.0218" x2="278.6315" y2="-15.3418" gradientTransform="matrix(1 0 0 -1 0 361.0526)"> <stop offset="1.000000e-02" style="stop-color:#EAB245"></stop> <stop offset="0.27" style="stop-color:#F1E3A6"></stop> <stop offset="0.39" style="stop-color:#DCC07A"></stop> <stop offset="0.6" style="stop-color:#B27C23"></stop> <stop offset="0.86" style="stop-color:#E8CE7F"></stop> <stop offset="0.89" style="stop-color:#EED688"></stop> <stop offset="1" style="stop-color:#F6E8AA"></stop> </linearGradient> <path class="st10" d="M252.2,304.5c-0.2-0.1-0.4-0.2-0.6-0.2c-0.2,0-0.4,0.1-0.5,0.2c-0.7,1.2-1.6,2.2-2.8,3c-3.1,1.7-7,1-9.3-1.7 c-1.4-2.1-2-4.6-1.9-7.2H249c0.9,0.1,1.8-0.1,2.5-0.6c0.6-0.5,1-1.4,0.9-2.2c-0.1-2.2-1.1-4.4-2.7-6c-1.8-1.6-4.2-2.4-6.7-2.2 c-2,0-4,0.5-5.7,1.7c-1.6,1.1-2.9,2.6-3.8,4.3c-0.9,1.7-1.3,3.6-1.3,5.5c0,2,0.4,4.1,1.3,5.9c0.8,1.8,2.2,3.2,3.9,4.2 c1.9,1.1,4,1.6,6.2,1.6c1.8,0,3.6-0.4,5.2-1.3c1.6-0.9,2.9-2.2,3.8-3.8c0.1-0.1,0.1-0.3,0.1-0.4C252.7,305,252.5,304.7,252.2,304.5 z M239,291.5c1-1.3,2.5-2,4.1-2c1.3-0.1,2.6,0.5,3.5,1.6c0.8,1.1,1.3,2.4,1.2,3.8c-0.1,1.4-1,2-2.6,2h-7.9 C237.2,294.9,237.8,293,239,291.5z"></path> <linearGradient id="SVGID_12_" gradientUnits="userSpaceOnUse" x1="109.9767" y1="395.6716" x2="297.2126" y2="-6.692" gradientTransform="matrix(1 0 0 -1 0 361.0526)"> <stop offset="1.000000e-02" style="stop-color:#EAB245"></stop> <stop offset="0.27" style="stop-color:#F1E3A6"></stop> <stop offset="0.39" style="stop-color:#DCC07A"></stop> <stop offset="0.6" style="stop-color:#B27C23"></stop> <stop offset="0.86" style="stop-color:#E8CE7F"></stop> <stop offset="0.89" style="stop-color:#EED688"></stop> <stop offset="1" style="stop-color:#F6E8AA"></stop> </linearGradient> <path class="st11" d="M277.2,309.1c-0.8,0.1-1.5-0.3-1.9-0.9c-0.4-0.6-0.6-1.2-0.6-1.9v-11.3c0-2.7-0.8-4.6-2.5-5.6 c-2-1.1-4.2-1.6-6.5-1.5c-1.9-0.1-3.8,0.4-5.5,1.2c-2.1,1.1-2.8,3.6-1.8,5.7c0.1,0.2,0.2,0.4,0.4,0.6c0.6,0.7,1.4,1.1,2.3,1.1 c0.5,0,1.1-0.1,1.5-0.5c0.4-0.3,0.6-0.6,0.6-0.8c-0.1-0.1-0.3-0.3-0.4-0.4c-0.3-0.2-0.6-0.5-0.8-0.9c-0.3-0.4-0.4-0.8-0.4-1.3 c0-1,0.4-1.9,1.1-2.5c0.7-0.6,1.7-0.9,2.6-0.9c2.4-0.4,4.6,1.2,5,3.5c0.1,0.4,0.1,0.9,0,1.3v3.8c-2.4,0.1-4.9,0.3-7.3,0.7 c-1.8,0.3-3.4,0.9-4.9,2c-2.5,2.1-2.7,5.9-0.6,8.3c0.1,0.1,0.2,0.3,0.4,0.4c1.3,1.1,3,1.7,4.7,1.7c1.6,0,3.1-0.3,4.5-1 c1.4-0.6,2.5-1.6,3.2-2.9c0.1,1.1,0.7,2.2,1.6,2.9c0.9,0.7,2.1,1.1,3.3,1.1c0.6,0,1.2-0.1,1.8-0.3c0.6-0.2,0.9-0.5,0.9-0.9 c0.1-0.3-0.1-0.7-0.4-0.8C277.5,309,277.4,309,277.2,309.1L277.2,309.1z M270.5,302.1c0,1.1-0.3,2.2-0.8,3.2 c-0.5,0.9-1.3,1.7-2.2,2.3c-0.9,0.5-2,0.8-3.1,0.8c-2.1,0-3.2-1.1-3.2-3.3c-0.1-1.6,0.7-3.2,2.1-4.1c1.4-0.8,3.8-1.4,7.2-1.7V302.1 z"></path> <linearGradient id="SVGID_13_" gradientUnits="userSpaceOnUse" x1="131.3172" y1="405.5991" x2="318.5531" y2="3.2355" gradientTransform="matrix(1 0 0 -1 0 361.0526)"> <stop offset="1.000000e-02" style="stop-color:#EAB245"></stop> <stop offset="0.27" style="stop-color:#F1E3A6"></stop> <stop offset="0.39" style="stop-color:#DCC07A"></stop> <stop offset="0.6" style="stop-color:#B27C23"></stop> <stop offset="0.86" style="stop-color:#E8CE7F"></stop> <stop offset="0.89" style="stop-color:#EED688"></stop> <stop offset="1" style="stop-color:#F6E8AA"></stop> </linearGradient> <path class="st12" d="M299.7,304.8c-0.2-0.1-0.4-0.1-0.5-0.2c-0.2,0-0.4,0.1-0.5,0.2c-0.7,1.1-1.6,2-2.7,2.7 c-1.1,0.6-2.3,0.9-3.6,0.9c-2,0-3.8-1-4.9-2.6c-1.3-2-1.9-4.3-1.9-6.7c-0.1-2.4,0.4-4.7,1.3-6.9c0.9-1.8,2.6-2.7,5.1-2.7 c0.9,0,1.9,0.2,2.6,0.8c0.7,0.5,1.1,1.4,1.1,2.3c0,0.5-0.1,0.9-0.4,1.3c-0.2,0.4-0.5,0.7-0.8,1c-0.2,0.1-0.3,0.3-0.4,0.4 c0,0.2,0.2,0.5,0.7,0.8c0.5,0.3,1,0.5,1.6,0.5c0.9,0,1.8-0.4,2.4-1.1c0.6-0.8,0.9-1.7,0.9-2.6c0.1-1.6-0.8-3.2-2.3-3.9 c-1.7-0.8-3.5-1.2-5.4-1.2c-2,0-4,0.6-5.7,1.6c-1.7,1-3.1,2.4-4.1,4.1c-2.6,4.6-2.1,10.2,1.2,14.3c3.3,3.4,8.4,4.1,12.5,1.8 c1.6-0.9,3-2.1,4-3.6c0.1-0.1,0.1-0.2,0.2-0.4c0-0.2-0.1-0.3-0.2-0.5C300.1,305,299.9,304.9,299.7,304.8z"></path> <linearGradient id="SVGID_14_" gradientUnits="userSpaceOnUse" x1="150.2119" y1="414.3941" x2="337.4479" y2="12.0305" gradientTransform="matrix(1 0 0 -1 0 361.0526)"> <stop offset="1.000000e-02" style="stop-color:#EAB245"></stop> <stop offset="0.27" style="stop-color:#F1E3A6"></stop> <stop offset="0.39" style="stop-color:#DCC07A"></stop> <stop offset="0.6" style="stop-color:#B27C23"></stop> <stop offset="0.86" style="stop-color:#E8CE7F"></stop> <stop offset="0.89" style="stop-color:#EED688"></stop> <stop offset="1" style="stop-color:#F6E8AA"></stop> </linearGradient> <path class="st13" d="M323.8,304.5c-0.2-0.1-0.4-0.2-0.6-0.2c-0.2,0-0.4,0.1-0.5,0.2c-0.7,1.2-1.6,2.2-2.8,3c-3.1,1.7-7,1-9.3-1.7 c-1.4-2.1-2-4.6-1.9-7.2h11.8c0.9,0.1,1.8-0.1,2.5-0.6c0.6-0.5,1-1.4,0.9-2.2c-0.1-2.2-1.1-4.4-2.7-6c-1.8-1.6-4.2-2.4-6.7-2.2 c-2,0-4,0.5-5.7,1.7c-1.6,1.1-2.9,2.6-3.8,4.3c-0.9,1.7-1.3,3.6-1.3,5.5c0,2,0.4,4.1,1.3,5.9c0.9,1.8,2.2,3.2,3.9,4.2 c1.9,1.1,4,1.6,6.2,1.6c1.8,0,3.6-0.4,5.2-1.3c1.6-0.9,2.9-2.2,3.8-3.8c0.1-0.1,0.1-0.3,0.1-0.4C324.3,305,324.1,304.7,323.8,304.5 z M310.5,291.5c1-1.3,2.5-2,4.1-2c1.3-0.1,2.6,0.5,3.5,1.6c0.8,1.1,1.3,2.4,1.2,3.8c-0.1,1.4-1,2-2.6,2h-7.9 C308.8,294.9,309.4,293,310.5,291.5z"></path> <linearGradient id="SVGID_15_" gradientUnits="userSpaceOnUse" x1="8.693" y1="316.2128" x2="173.5515" y2="-38.0533" gradientTransform="matrix(1 0 0 -1 0 361.0526)"> <stop offset="1.000000e-02" style="stop-color:#EAB245"></stop> <stop offset="0.27" style="stop-color:#F1E3A6"></stop> <stop offset="0.39" style="stop-color:#DCC07A"></stop> <stop offset="0.6" style="stop-color:#B27C23"></stop> <stop offset="0.86" style="stop-color:#E8CE7F"></stop> <stop offset="0.89" style="stop-color:#EED688"></stop> <stop offset="1" style="stop-color:#F6E8AA"></stop> </linearGradient> <polygon class="st14" points="48,114.8 47.2,114.7 46.6,120.2 37,119.2 36.9,120 47.3,121.1 "></polygon> <linearGradient id="SVGID_16_" gradientUnits="userSpaceOnUse" x1="14.5128" y1="318.9214" x2="179.3714" y2="-35.3448" gradientTransform="matrix(1 0 0 -1 0 361.0526)"> <stop offset="1.000000e-02" style="stop-color:#EAB245"></stop> <stop offset="0.27" style="stop-color:#F1E3A6"></stop> <stop offset="0.39" style="stop-color:#DCC07A"></stop> <stop offset="0.6" style="stop-color:#B27C23"></stop> <stop offset="0.86" style="stop-color:#E8CE7F"></stop> <stop offset="0.89" style="stop-color:#EED688"></stop> <stop offset="1" style="stop-color:#F6E8AA"></stop> </linearGradient> <path class="st15" d="M43.2,111.2c1.4,0.3,2.9,0.1,4.1-0.7c1.2-0.8,2-2,2.2-3.4c0.3-1.4,0.1-2.8-0.7-4c-0.8-1.2-2-1.9-3.4-2.2 c-1.4-0.3-2.9-0.1-4.1,0.7c-2.4,1.6-3.1,4.9-1.5,7.3C40.6,110.1,41.8,111,43.2,111.2z M39.7,105.2c0.2-1.2,0.9-2.2,1.9-2.8 c1-0.7,2.3-0.9,3.5-0.6c1.2,0.2,2.2,0.9,3,1.9c1.3,2,0.8,4.7-1.2,6.1c0,0,0,0-0.1,0c-1,0.6-2.3,0.8-3.4,0.6c-1.2-0.2-2.3-0.9-3-1.9 C39.7,107.5,39.4,106.3,39.7,105.2L39.7,105.2z"></path> <linearGradient id="SVGID_17_" gradientUnits="userSpaceOnUse" x1="20.5233" y1="321.7276" x2="185.3818" y2="-32.5485" gradientTransform="matrix(1 0 0 -1 6.460461e-03 361.0598)"> <stop offset="1.000000e-02" style="stop-color:#EAB245"></stop> <stop offset="0.27" style="stop-color:#F1E3A6"></stop> <stop offset="0.39" style="stop-color:#DCC07A"></stop> <stop offset="0.6" style="stop-color:#B27C23"></stop> <stop offset="0.86" style="stop-color:#E8CE7F"></stop> <stop offset="0.89" style="stop-color:#EED688"></stop> <stop offset="1" style="stop-color:#F6E8AA"></stop> </linearGradient> <polygon class="st16" points="41.7,94.6 41.9,93.8 51.9,97 51.6,97.8 "></polygon> <linearGradient id="SVGID_18_" gradientUnits="userSpaceOnUse" x1="24.4728" y1="323.5574" x2="189.3313" y2="-30.7088" gradientTransform="matrix(1 0 0 -1 0 361.0526)"> <stop offset="1.000000e-02" style="stop-color:#EAB245"></stop> <stop offset="0.27" style="stop-color:#F1E3A6"></stop> <stop offset="0.39" style="stop-color:#DCC07A"></stop> <stop offset="0.6" style="stop-color:#B27C23"></stop> <stop offset="0.86" style="stop-color:#E8CE7F"></stop> <stop offset="0.89" style="stop-color:#EED688"></stop> <stop offset="1" style="stop-color:#F6E8AA"></stop> </linearGradient> <polygon class="st17" points="53.6,91.7 53.9,90.7 47.1,93.9 43.9,87.7 43.6,88.6 46.8,94.8 "></polygon> <linearGradient id="SVGID_19_" gradientUnits="userSpaceOnUse" x1="31.5988" y1="326.8802" x2="196.4572" y2="-27.396" gradientTransform="matrix(1 0 0 -1 0 361.0526)"> <stop offset="1.000000e-02" style="stop-color:#EAB245"></stop> <stop offset="0.27" style="stop-color:#F1E3A6"></stop> <stop offset="0.39" style="stop-color:#DCC07A"></stop> <stop offset="0.6" style="stop-color:#B27C23"></stop> <stop offset="0.86" style="stop-color:#E8CE7F"></stop> <stop offset="0.89" style="stop-color:#EED688"></stop> <stop offset="1" style="stop-color:#F6E8AA"></stop> </linearGradient> <path class="st18" d="M55.1,87.6l-2.7-2.8l2-4.6h3.9l0.4-0.8H47.2L46.9,80l7.8,8.4L55.1,87.6z M48.1,80.1h5.5l-1.7,4L48.1,80.1z"></path> <linearGradient id="SVGID_20_" gradientUnits="userSpaceOnUse" x1="39.6502" y1="330.6208" x2="204.4987" y2="-23.6454" gradientTransform="matrix(1 0 0 -1 0 361.0526)"> <stop offset="1.000000e-02" style="stop-color:#EAB245"></stop> <stop offset="0.27" style="stop-color:#F1E3A6"></stop> <stop offset="0.39" style="stop-color:#DCC07A"></stop> <stop offset="0.6" style="stop-color:#B27C23"></stop> <stop offset="0.86" style="stop-color:#E8CE7F"></stop> <stop offset="0.89" style="stop-color:#EED688"></stop> <stop offset="1" style="stop-color:#F6E8AA"></stop> </linearGradient> <polygon class="st19" points="60.9,75.2 56.6,72.7 59.8,67.1 64.1,69.5 64.5,68.8 55.5,63.6 55,64.3 59.1,66.7 55.9,72.4 51.8,70 51.4,70.7 60.5,75.9 "></polygon> <linearGradient id="SVGID_21_" gradientUnits="userSpaceOnUse" x1="53.8553" y1="337.2278" x2="218.7038" y2="-17.0383" gradientTransform="matrix(1 0 0 -1 0 361.0526)"> <stop offset="1.000000e-02" style="stop-color:#EAB245"></stop> <stop offset="0.27" style="stop-color:#F1E3A6"></stop> <stop offset="0.39" style="stop-color:#DCC07A"></stop> <stop offset="0.6" style="stop-color:#B27C23"></stop> <stop offset="0.86" style="stop-color:#E8CE7F"></stop> <stop offset="0.89" style="stop-color:#EED688"></stop> <stop offset="1" style="stop-color:#F6E8AA"></stop> </linearGradient> <path class="st20" d="M64.1,55.4c2.7,2.2,5.2-2.7,7.6-0.9c0.5,0.3,0.7,0.9,0.7,1.5c0,0.6-0.3,1.2-0.7,1.7C71,58.4,70,58.9,69,58.9 l0.1,0.7c0.6,0.1,1.2,0,1.7-0.3c0.6-0.3,1.1-0.7,1.5-1.3c0.6-0.7,0.9-1.5,0.9-2.3c0-0.8-0.4-1.5-1-2c-2.8-2.3-5.3,2.7-7.5,0.9 c-0.9-0.7-0.9-1.8-0.1-2.9c0.5-0.7,1.3-1.2,2.1-1.3l-0.2-0.7c-1,0.1-2,0.7-2.6,1.6c-0.5,0.6-0.8,1.4-0.8,2.2 C63.2,54.3,63.5,54.9,64.1,55.4z"></path> <linearGradient id="SVGID_22_" gradientUnits="userSpaceOnUse" x1="65.2177" y1="342.519" x2="230.0763" y2="-11.7471" gradientTransform="matrix(1 0 0 -1 0 361.0526)"> <stop offset="1.000000e-02" style="stop-color:#EAB245"></stop> <stop offset="0.27" style="stop-color:#F1E3A6"></stop> <stop offset="0.39" style="stop-color:#DCC07A"></stop> <stop offset="0.6" style="stop-color:#B27C23"></stop> <stop offset="0.86" style="stop-color:#E8CE7F"></stop> <stop offset="0.89" style="stop-color:#EED688"></stop> <stop offset="1" style="stop-color:#F6E8AA"></stop> </linearGradient> <path class="st21" d="M76.8,52.4l-1.5-3.6l3.5-3.6l3.6,1.4l0.6-0.6l-10.8-4l-0.5,0.5L76.2,53L76.8,52.4z M72.8,43l5.2,1.9L75,48 L72.8,43z"></path> <linearGradient id="SVGID_23_" gradientUnits="userSpaceOnUse" x1="75.8547" y1="347.4769" x2="240.7132" y2="-6.7993" gradientTransform="matrix(1 0 0 -1 0 361.0526)"> <stop offset="1.000000e-02" style="stop-color:#EAB245"></stop> <stop offset="0.27" style="stop-color:#F1E3A6"></stop> <stop offset="0.39" style="stop-color:#DCC07A"></stop> <stop offset="0.6" style="stop-color:#B27C23"></stop> <stop offset="0.86" style="stop-color:#E8CE7F"></stop> <stop offset="0.89" style="stop-color:#EED688"></stop> <stop offset="1" style="stop-color:#F6E8AA"></stop> </linearGradient> <polygon class="st22" points="86.5,42.7 80.7,35.7 87.4,37.4 87.5,37.3 87,30.4 92.8,37.4 93.4,36.9 86.8,28.9 86.2,29.4 86.7,36.4 79.8,34.7 79.2,35.2 85.8,43.2 "></polygon> <linearGradient id="SVGID_24_" gradientUnits="userSpaceOnUse" x1="89.2554" y1="353.7072" x2="254.1139" y2="-0.5689" gradientTransform="matrix(1 0 0 -1 0 361.0526)"> <stop offset="1.000000e-02" style="stop-color:#EAB245"></stop> <stop offset="0.27" style="stop-color:#F1E3A6"></stop> <stop offset="0.39" style="stop-color:#DCC07A"></stop> <stop offset="0.6" style="stop-color:#B27C23"></stop> <stop offset="0.86" style="stop-color:#E8CE7F"></stop> <stop offset="0.89" style="stop-color:#EED688"></stop> <stop offset="1" style="stop-color:#F6E8AA"></stop> </linearGradient> <path class="st23" d="M97.3,34.1l-0.7-3.8l4.2-2.7l3.2,2.2l0.7-0.5l-9.5-6.3l-0.6,0.4l1.9,11.3L97.3,34.1z M95.5,24.1l4.6,3.1 l-3.6,2.4L95.5,24.1z"></path> <linearGradient id="SVGID_25_" gradientUnits="userSpaceOnUse" x1="99.3398" y1="358.3986" x2="264.1983" y2="4.1324" gradientTransform="matrix(1 0 0 -1 0 361.0526)"> <stop offset="1.000000e-02" style="stop-color:#EAB245"></stop> <stop offset="0.27" style="stop-color:#F1E3A6"></stop> <stop offset="0.39" style="stop-color:#DCC07A"></stop> <stop offset="0.6" style="stop-color:#B27C23"></stop> <stop offset="0.86" style="stop-color:#E8CE7F"></stop> <stop offset="0.89" style="stop-color:#EED688"></stop> <stop offset="1" style="stop-color:#F6E8AA"></stop> </linearGradient> <path class="st24" d="M111.4,22.8c0.3,0.5,0.3,1.1,0,1.6c-0.3,0.5-0.8,1-1.3,1.3c-0.9,0.5-2,0.5-3,0.1l-0.2,0.7 c0.5,0.3,1.1,0.4,1.7,0.4c0.7,0,1.3-0.2,1.9-0.5c0.8-0.4,1.4-1,1.8-1.8c0.3-0.7,0.3-1.5-0.1-2.2c-1.7-3.2-5.9,0.3-7.3-2.3 c-0.5-1-0.1-2,1.1-2.7c0.8-0.4,1.6-0.5,2.5-0.3l0.1-0.8c-1-0.3-2.1-0.2-3,0.4c-0.7,0.3-1.3,0.9-1.6,1.7c-0.3,0.7-0.2,1.4,0.1,2 C105.7,23.6,110,20.2,111.4,22.8z"></path> <linearGradient id="SVGID_26_" gradientUnits="userSpaceOnUse" x1="109.3558" y1="363.0567" x2="274.2143" y2="8.7906" gradientTransform="matrix(1 0 0 -1 0 361.0526)"> <stop offset="1.000000e-02" style="stop-color:#EAB245"></stop> <stop offset="0.27" style="stop-color:#F1E3A6"></stop> <stop offset="0.39" style="stop-color:#DCC07A"></stop> <stop offset="0.6" style="stop-color:#B27C23"></stop> <stop offset="0.86" style="stop-color:#E8CE7F"></stop> <stop offset="0.89" style="stop-color:#EED688"></stop> <stop offset="1" style="stop-color:#F6E8AA"></stop> </linearGradient> <polygon class="st25" points="115.9,13 119.6,21.9 120.3,21.6 116.6,12.7 120.2,11.2 119.9,10.5 112,13.8 112.3,14.5 "></polygon> <linearGradient id="SVGID_27_" gradientUnits="userSpaceOnUse" x1="118.4802" y1="367.3074" x2="283.3287" y2="13.0312" gradientTransform="matrix(1 0 0 -1 0 361.0526)"> <stop offset="1.000000e-02" style="stop-color:#EAB245"></stop> <stop offset="0.27" style="stop-color:#F1E3A6"></stop> <stop offset="0.39" style="stop-color:#DCC07A"></stop> <stop offset="0.6" style="stop-color:#B27C23"></stop> <stop offset="0.86" style="stop-color:#E8CE7F"></stop> <stop offset="0.89" style="stop-color:#EED688"></stop> <stop offset="1" style="stop-color:#F6E8AA"></stop> </linearGradient> <path class="st26" d="M126.4,15.6l4.8-1.5l2.5,2.9l0.8-0.3l-7.5-8.7l-0.6,0.2l-1.2,11.4l0.8-0.3L126.4,15.6z M127,9.2l3.6,4.2 l-4.2,1.3L127,9.2z"></path> <linearGradient id="SVGID_28_" gradientUnits="userSpaceOnUse" x1="131.0637" y1="373.165" x2="295.9222" y2="18.8889" gradientTransform="matrix(1 0 0 -1 0 361.0526)"> <stop offset="1.000000e-02" style="stop-color:#EAB245"></stop> <stop offset="0.27" style="stop-color:#F1E3A6"></stop> <stop offset="0.39" style="stop-color:#DCC07A"></stop> <stop offset="0.6" style="stop-color:#B27C23"></stop> <stop offset="0.86" style="stop-color:#E8CE7F"></stop> <stop offset="0.89" style="stop-color:#EED688"></stop> <stop offset="1" style="stop-color:#F6E8AA"></stop> </linearGradient> <polygon class="st27" points="139.1,15.7 138.2,10.8 144.6,9.6 145.5,14.4 146.3,14.3 144.3,4 143.5,4.2 144.4,8.8 138,10.1 137.1,5.4 136.3,5.6 138.3,15.8 "></polygon> <linearGradient id="SVGID_29_" gradientUnits="userSpaceOnUse" x1="146.6344" y1="380.4047" x2="311.4929" y2="26.1385" gradientTransform="matrix(1 0 0 -1 0 361.0526)"> <stop offset="1.000000e-02" style="stop-color:#EAB245"></stop> <stop offset="0.27" style="stop-color:#F1E3A6"></stop> <stop offset="0.39" style="stop-color:#DCC07A"></stop> <stop offset="0.6" style="stop-color:#B27C23"></stop> <stop offset="0.86" style="stop-color:#E8CE7F"></stop> <stop offset="0.89" style="stop-color:#EED688"></stop> <stop offset="1" style="stop-color:#F6E8AA"></stop> </linearGradient> <path class="st28" d="M161.9,10.3c0.1,0.6-0.2,1.1-0.7,1.5c-0.5,0.4-1.1,0.6-1.7,0.6c-1,0-2.1-0.4-2.8-1.2l-0.5,0.6 c0.3,0.5,0.8,0.8,1.3,1c0.6,0.2,1.3,0.3,1.9,0.3c0.9,0,1.7-0.3,2.3-0.9c0.6-0.5,0.9-1.2,0.9-2c-0.2-3.6-5.5-2.2-5.6-5.1 c-0.1-1.1,0.8-1.9,2.1-1.9c0.9-0.1,1.7,0.2,2.4,0.8l0.4-0.6c-0.8-0.7-1.8-1-2.9-0.9c-0.8,0-1.6,0.3-2.2,0.9 c-0.5,0.5-0.8,1.2-0.7,1.9C156.4,8.6,161.7,7.4,161.9,10.3z"></path> <linearGradient id="SVGID_30_" gradientUnits="userSpaceOnUse" x1="157.3611" y1="385.4018" x2="322.2196" y2="31.1356" gradientTransform="matrix(1 0 0 -1 0 361.0526)"> <stop offset="1.000000e-02" style="stop-color:#EAB245"></stop> <stop offset="0.27" style="stop-color:#F1E3A6"></stop> <stop offset="0.39" style="stop-color:#DCC07A"></stop> <stop offset="0.6" style="stop-color:#B27C23"></stop> <stop offset="0.86" style="stop-color:#E8CE7F"></stop> <stop offset="0.89" style="stop-color:#EED688"></stop> <stop offset="1" style="stop-color:#F6E8AA"></stop> </linearGradient> <path class="st29" d="M171.4,13.1c1.1,0.1,2.1-0.3,2.9-1c0.9-0.9,1.3-2.1,1.3-3.3l0.3-6.1h-0.8l-0.3,5.9c-0.1,2.6-1.4,3.8-3.3,3.7 c-2.1-0.1-3.3-1.6-3.2-4.1l0.3-5.9h-0.8l-0.3,6c-0.1,1.2,0.2,2.5,1,3.5C169.2,12.7,170.3,13.2,171.4,13.1z"></path> <linearGradient id="SVGID_31_" gradientUnits="userSpaceOnUse" x1="164.7027" y1="388.8132" x2="329.5612" y2="34.5471" gradientTransform="matrix(1 0 0 -1 -6.968024e-03 361.0604)"> <stop offset="1.000000e-02" style="stop-color:#EAB245"></stop> <stop offset="0.27" style="stop-color:#F1E3A6"></stop> <stop offset="0.39" style="stop-color:#DCC07A"></stop> <stop offset="0.6" style="stop-color:#B27C23"></stop> <stop offset="0.86" style="stop-color:#E8CE7F"></stop> <stop offset="0.89" style="stop-color:#EED688"></stop> <stop offset="1" style="stop-color:#F6E8AA"></stop> </linearGradient> <polygon class="st30" points="180.5,13.8 182.1,3.5 182.9,3.6 181.3,13.9 "></polygon> <linearGradient id="SVGID_32_" gradientUnits="userSpaceOnUse" x1="168.9764" y1="390.8003" x2="333.835" y2="36.5341" gradientTransform="matrix(1 0 0 -1 0 361.0526)"> <stop offset="1.000000e-02" style="stop-color:#EAB245"></stop> <stop offset="0.27" style="stop-color:#F1E3A6"></stop> <stop offset="0.39" style="stop-color:#DCC07A"></stop> <stop offset="0.6" style="stop-color:#B27C23"></stop> <stop offset="0.86" style="stop-color:#E8CE7F"></stop> <stop offset="0.89" style="stop-color:#EED688"></stop> <stop offset="1" style="stop-color:#F6E8AA"></stop> </linearGradient> <polygon class="st31" points="186.7,14.8 187.8,15 183.6,8.7 189.2,4.6 188.2,4.5 182.6,8.6 "></polygon> <linearGradient id="SVGID_33_" gradientUnits="userSpaceOnUse" x1="176.1391" y1="394.1415" x2="340.9976" y2="39.8654" gradientTransform="matrix(1 0 0 -1 0 361.0526)"> <stop offset="1.000000e-02" style="stop-color:#EAB245"></stop> <stop offset="0.27" style="stop-color:#F1E3A6"></stop> <stop offset="0.39" style="stop-color:#DCC07A"></stop> <stop offset="0.6" style="stop-color:#B27C23"></stop> <stop offset="0.86" style="stop-color:#E8CE7F"></stop> <stop offset="0.89" style="stop-color:#EED688"></stop> <stop offset="1" style="stop-color:#F6E8AA"></stop> </linearGradient> <polygon class="st32" points="193.8,11.3 200.1,13 198.8,17.7 199.6,17.9 202.3,7.9 201.5,7.6 200.3,12.2 194,10.5 195.2,6 194.5,5.7 191.8,15.8 192.5,16 "></polygon> <linearGradient id="SVGID_34_" gradientUnits="userSpaceOnUse" x1="183.2599" y1="397.4465" x2="348.1183" y2="43.1804" gradientTransform="matrix(1 0 0 -1 2.825245e-03 361.0476)"> <stop offset="1.000000e-02" style="stop-color:#EAB245"></stop> <stop offset="0.27" style="stop-color:#F1E3A6"></stop> <stop offset="0.39" style="stop-color:#DCC07A"></stop> <stop offset="0.6" style="stop-color:#B27C23"></stop> <stop offset="0.86" style="stop-color:#E8CE7F"></stop> <stop offset="0.89" style="stop-color:#EED688"></stop> <stop offset="1" style="stop-color:#F6E8AA"></stop> </linearGradient> <polygon class="st33" points="205,19.8 208.6,10 209.4,10.3 205.8,20.1 "></polygon> <linearGradient id="SVGID_35_" gradientUnits="userSpaceOnUse" x1="189.9019" y1="400.5374" x2="354.7604" y2="46.2713" gradientTransform="matrix(1 0 0 -1 0 361.0526)"> <stop offset="1.000000e-02" style="stop-color:#EAB245"></stop> <stop offset="0.27" style="stop-color:#F1E3A6"></stop> <stop offset="0.39" style="stop-color:#DCC07A"></stop> <stop offset="0.6" style="stop-color:#B27C23"></stop> <stop offset="0.86" style="stop-color:#E8CE7F"></stop> <stop offset="0.89" style="stop-color:#EED688"></stop> <stop offset="1" style="stop-color:#F6E8AA"></stop> </linearGradient> <polygon class="st34" points="215.6,14.3 218.3,25.4 218.9,25.7 223.3,16.3 222.6,15.9 218.8,24.1 216.1,12.9 215.5,12.6 211.1,22.1 211.8,22.4 "></polygon> <linearGradient id="SVGID_36_" gradientUnits="userSpaceOnUse" x1="197.7639" y1="404.1977" x2="362.6224" y2="49.9316" gradientTransform="matrix(1 0 0 -1 0 361.0526)"> <stop offset="1.000000e-02" style="stop-color:#EAB245"></stop> <stop offset="0.27" style="stop-color:#F1E3A6"></stop> <stop offset="0.39" style="stop-color:#DCC07A"></stop> <stop offset="0.6" style="stop-color:#B27C23"></stop> <stop offset="0.86" style="stop-color:#E8CE7F"></stop> <stop offset="0.89" style="stop-color:#EED688"></stop> <stop offset="1" style="stop-color:#F6E8AA"></stop> </linearGradient> <path class="st35" d="M227.2,30.7c1.2,0.8,2.6,1,4,0.7c1.4-0.3,2.6-1.2,3.3-2.5c0.8-1.2,1.1-2.7,0.7-4.1c-0.3-1.4-1.2-2.6-2.4-3.3 c-1.2-0.8-2.6-1-4-0.7c-1.4,0.3-2.6,1.2-3.3,2.5c-0.8,1.2-1.1,2.7-0.8,4.1C225.1,28.8,225.9,29.9,227.2,30.7z M226.3,23.8 c0.6-1.1,1.6-1.8,2.8-2.1c2.3-0.6,4.7,0.8,5.3,3.1c0,0,0,0.1,0,0.1c0.3,1.2,0,2.4-0.7,3.4c-0.6,1-1.6,1.8-2.8,2.1 c-1.1,0.3-2.4,0.1-3.4-0.5c-1-0.6-1.8-1.6-2-2.8C225.3,26,225.6,24.8,226.3,23.8z"></path> <linearGradient id="SVGID_37_" gradientUnits="userSpaceOnUse" x1="205.7166" y1="407.895" x2="370.5751" y2="53.6289" gradientTransform="matrix(1 0 0 -1 0 361.0526)"> <stop offset="1.000000e-02" style="stop-color:#EAB245"></stop> <stop offset="0.27" style="stop-color:#F1E3A6"></stop> <stop offset="0.39" style="stop-color:#DCC07A"></stop> <stop offset="0.6" style="stop-color:#B27C23"></stop> <stop offset="0.86" style="stop-color:#E8CE7F"></stop> <stop offset="0.89" style="stop-color:#EED688"></stop> <stop offset="1" style="stop-color:#F6E8AA"></stop> </linearGradient> <path class="st36" d="M246.5,41.4c0.9-1,0.8-2.5-0.2-3.4c0,0,0,0-0.1,0l0,0c1,0.6,2.4,0.4,3.1-0.5c1.1-1.3,0.8-2.7-0.8-4.1 c-0.2-0.2-0.9-0.8-2.1-1.7l-6.8,7.9c0.6,0.6,1.3,1.2,2,1.8C243.5,42.7,245.2,42.9,246.5,41.4z M246.6,32.6c0.7,0.5,1.2,0.9,1.5,1.2 c1.3,1.1,1.5,2.1,0.6,3.1c-0.4,0.5-0.9,0.7-1.5,0.7c-0.6,0-1.2-0.3-1.6-0.7l-1.5-1.3L246.6,32.6z M243.5,36.2l1.5,1.3 c1.4,1.2,1.7,2.4,0.8,3.4c-1,1.1-2.2,1-3.6-0.2c-0.1-0.1-0.6-0.5-1.4-1.3L243.5,36.2z"></path> <linearGradient id="SVGID_38_" gradientUnits="userSpaceOnUse" x1="210.3297" y1="410.0457" x2="375.1882" y2="55.7796" gradientTransform="matrix(1 0 0 -1 0 361.0526)"> <stop offset="1.000000e-02" style="stop-color:#EAB245"></stop> <stop offset="0.27" style="stop-color:#F1E3A6"></stop> <stop offset="0.39" style="stop-color:#DCC07A"></stop> <stop offset="0.6" style="stop-color:#B27C23"></stop> <stop offset="0.86" style="stop-color:#E8CE7F"></stop> <stop offset="0.89" style="stop-color:#EED688"></stop> <stop offset="1" style="stop-color:#F6E8AA"></stop> </linearGradient> <polygon class="st37" points="248.6,47.4 252.2,44 256.7,48.8 253.1,52.2 253.6,52.8 261.2,45.6 260.7,45 257.2,48.2 252.7,43.5 256.2,40.2 255.6,39.7 248,46.8 "></polygon> <linearGradient id="SVGID_39_" gradientUnits="userSpaceOnUse" x1="213.1631" y1="411.3673" x2="378.0216" y2="57.1012" gradientTransform="matrix(1 0 0 -1 0 361.0526)"> <stop offset="1.000000e-02" style="stop-color:#EAB245"></stop> <stop offset="0.27" style="stop-color:#F1E3A6"></stop> <stop offset="0.39" style="stop-color:#DCC07A"></stop> <stop offset="0.6" style="stop-color:#B27C23"></stop> <stop offset="0.86" style="stop-color:#E8CE7F"></stop> <stop offset="0.89" style="stop-color:#EED688"></stop> <stop offset="1" style="stop-color:#F6E8AA"></stop> </linearGradient> <path class="st38" d="M256.7,56.4l3.8-1l3,4l-1.9,3.4l0.5,0.7l5.6-10l-0.4-0.5l-11.1,2.8L256.7,56.4z M266.7,54l-2.7,4.8l-2.6-3.5 L266.7,54z"></path> <linearGradient id="SVGID_40_" gradientUnits="userSpaceOnUse" x1="215.5029" y1="412.4572" x2="380.3614" y2="58.1911" gradientTransform="matrix(1 0 0 -1 0 361.0526)"> <stop offset="1.000000e-02" style="stop-color:#EAB245"></stop> <stop offset="0.27" style="stop-color:#F1E3A6"></stop> <stop offset="0.39" style="stop-color:#DCC07A"></stop> <stop offset="0.6" style="stop-color:#B27C23"></stop> <stop offset="0.86" style="stop-color:#E8CE7F"></stop> <stop offset="0.89" style="stop-color:#EED688"></stop> <stop offset="1" style="stop-color:#F6E8AA"></stop> </linearGradient> <polygon class="st39" points="265.5,69.1 276.8,67.2 276.4,66.5 266.5,68.2 272.3,59.9 271.8,59.2 265.2,68.5 "></polygon> <linearGradient id="SVGID_41_" gradientUnits="userSpaceOnUse" x1="216.0542" y1="412.7178" x2="380.9127" y2="58.4417" gradientTransform="matrix(1 0 0 -1 0 361.0526)"> <stop offset="1.000000e-02" style="stop-color:#EAB245"></stop> <stop offset="0.27" style="stop-color:#F1E3A6"></stop> <stop offset="0.39" style="stop-color:#DCC07A"></stop> <stop offset="0.6" style="stop-color:#B27C23"></stop> <stop offset="0.86" style="stop-color:#E8CE7F"></stop> <stop offset="0.89" style="stop-color:#EED688"></stop> <stop offset="1" style="stop-color:#F6E8AA"></stop> </linearGradient> <path class="st40" d="M269,74.7l3.9-0.2l2.2,4.5l-2.5,2.9l0.4,0.8l7.4-8.8l-0.3-0.6L268.6,74L269,74.7z M279.2,74.1l-3.6,4.2 l-1.9-3.9L279.2,74.1z"></path> <linearGradient id="SVGID_42_" gradientUnits="userSpaceOnUse" x1="215.7143" y1="412.5579" x2="380.5728" y2="58.2817" gradientTransform="matrix(1 0 0 -1 0 361.0526)"> <stop offset="1.000000e-02" style="stop-color:#EAB245"></stop> <stop offset="0.27" style="stop-color:#F1E3A6"></stop> <stop offset="0.39" style="stop-color:#DCC07A"></stop> <stop offset="0.6" style="stop-color:#B27C23"></stop> <stop offset="0.86" style="stop-color:#E8CE7F"></stop> <stop offset="0.89" style="stop-color:#EED688"></stop> <stop offset="1" style="stop-color:#F6E8AA"></stop> </linearGradient> <polygon class="st41" points="274.8,87.1 283.2,84 277.2,93.8 277.5,94.4 287.3,90.8 287,90.1 278.6,93.2 284.5,83.4 284.3,82.8 274.5,86.3 "></polygon> <linearGradient id="SVGID_43_" gradientUnits="userSpaceOnUse" x1="214.4504" y1="411.9661" x2="379.3088" y2="57.6999" gradientTransform="matrix(1 0 0 -1 0 361.0526)"> <stop offset="1.000000e-02" style="stop-color:#EAB245"></stop> <stop offset="0.27" style="stop-color:#F1E3A6"></stop> <stop offset="0.39" style="stop-color:#DCC07A"></stop> <stop offset="0.6" style="stop-color:#B27C23"></stop> <stop offset="0.86" style="stop-color:#E8CE7F"></stop> <stop offset="0.89" style="stop-color:#EED688"></stop> <stop offset="1" style="stop-color:#F6E8AA"></stop> </linearGradient> <polygon class="st42" points="279.5,101.7 279.7,102.5 289.1,100.2 290,103.9 290.8,103.8 288.7,95.5 288,95.7 288.9,99.4 "></polygon> <linearGradient id="SVGID_44_" gradientUnits="userSpaceOnUse" x1="211.7735" y1="410.7228" x2="376.6319" y2="56.4467" gradientTransform="matrix(1 0 0 -1 0 361.0526)"> <stop offset="1.000000e-02" style="stop-color:#EAB245"></stop> <stop offset="0.27" style="stop-color:#F1E3A6"></stop> <stop offset="0.39" style="stop-color:#DCC07A"></stop> <stop offset="0.6" style="stop-color:#B27C23"></stop> <stop offset="0.86" style="stop-color:#E8CE7F"></stop> <stop offset="0.89" style="stop-color:#EED688"></stop> <stop offset="1" style="stop-color:#F6E8AA"></stop> </linearGradient> <path class="st43" d="M282.6,110.9c-0.7,0.9-0.9,2.1-0.7,3.2c0.1,1.1,0.7,2,1.5,2.7c1,0.7,2.3,0.9,3.5,0.6l6-0.9l-0.1-0.8l-5.8,0.8 c-2.6,0.4-4-0.7-4.3-2.5c-0.3-2.1,1-3.6,3.4-3.9l5.8-0.8l-0.1-0.8l-5.9,0.9C284.5,109.3,283.4,109.9,282.6,110.9z"></path> <linearGradient id="SVGID_45_" gradientUnits="userSpaceOnUse" x1="146.5632" y1="380.3695" x2="311.4218" y2="26.1033" gradientTransform="matrix(1 0 0 -1 0 361.0526)"> <stop offset="1.000000e-02" style="stop-color:#EAB245"></stop> <stop offset="0.27" style="stop-color:#F1E3A6"></stop> <stop offset="0.39" style="stop-color:#DCC07A"></stop> <stop offset="0.6" style="stop-color:#B27C23"></stop> <stop offset="0.86" style="stop-color:#E8CE7F"></stop> <stop offset="0.89" style="stop-color:#EED688"></stop> <stop offset="1" style="stop-color:#F6E8AA"></stop> </linearGradient> <path class="st44" d="M184.6,70.4c1-0.5,1.3-1.3,2.1,0c0.5,0.8,0,2.1,0.8,2.9c1,1.3,4.9-1,6.2-2.1l0,0c2.1-2.1,1.6-3.9,0.5-6.2 c-1.6-2.9-2.9-5.7-4.4-8.6c-1.3-2.1-2.6-2.9-4.7-1c-1.8,1.8-1,3.9-2.1,6c-1.6,2.6-3.4,3.9-3.6,7C179.4,71.4,182.2,71.7,184.6,70.4z "></path> <linearGradient id="SVGID_46_" gradientUnits="userSpaceOnUse" x1="88.0946" y1="353.1601" x2="252.9531" y2="-1.106" gradientTransform="matrix(1 0 0 -1 0 361.0526)"> <stop offset="1.000000e-02" style="stop-color:#EAB245"></stop> <stop offset="0.27" style="stop-color:#F1E3A6"></stop> <stop offset="0.39" style="stop-color:#DCC07A"></stop> <stop offset="0.6" style="stop-color:#B27C23"></stop> <stop offset="0.86" style="stop-color:#E8CE7F"></stop> <stop offset="0.89" style="stop-color:#EED688"></stop> <stop offset="1" style="stop-color:#F6E8AA"></stop> </linearGradient> <path class="st45" d="M312.9,172.9c-9.3-2.4-18.9-3.9-28.5-4.5c-4.2-0.3-9.1-0.4-14.2-0.2c1.6-4.9,2.9-9.8,3.9-14.8 c1.7-8.3,2.5-16.8,2.4-25.3c0-1.6-0.1-2.6-0.1-2.7l-0.1-1v-0.4H276C272.4,62.7,219.8,16,158.5,19.6c-56.2,3.3-101,48.1-104.3,104.3 h-0.1l-0.1,1.4c-0.4,9.4,0.4,18.8,2.3,28.1c1,5,2.3,10,3.9,14.8c-5.3-0.2-10.2,0-14.5,0.2c-9.6,0.5-19.2,2-28.5,4.5l-1.5,0.5 l0.7,1.5c4.2,8.6,9.2,16.7,15,24.2c9.2,12.1,24.6,28.5,45.8,38.1c17.1,7.7,35.1,9.8,49.5,9.8c3.5,0,6.8-0.1,9.8-0.3 c9.6-0.5,19.2-2,28.5-4.5l0.3-0.1l0.2,0.1c9.3,2.4,18.8,3.9,28.4,4.5c3,0.2,6.3,0.3,9.8,0.3c14.4,0,32.4-2.1,49.5-9.8 c21.2-9.6,36.6-26,45.8-38.1c5.8-7.5,10.8-15.6,15-24.2l0.7-1.5L312.9,172.9z M296.5,197.4c-9,11.8-24,27.8-44.7,37.2 c-20.6,9.4-42.9,10.2-57.9,9.2c-7.4-0.5-14.8-1.5-22.1-3c7.7-1,15.3-2.6,22.8-4.8c14.8-4.3,36-13.1,52.9-30.1 c9.6-9.9,17-21.8,21.6-34.9c5.5-0.2,10.5-0.1,15,0.2c8.9,0.6,17.7,1.9,26.3,4C306.5,183,301.9,190.4,296.5,197.4z M19.5,175.2 c8.7-2.1,17.5-3.4,26.4-4c5.1-0.3,10.1-0.4,15.2-0.2c4.6,13.1,12,25,21.6,34.9c16.9,17,37.9,25.8,52.5,30.1 c7.4,2.2,15.1,3.8,22.8,4.9c-7.2,1.5-14.5,2.5-21.9,2.9c-15,1-37.2,0.1-57.9-9.2s-35.7-25.4-44.7-37.2 C28.2,190.4,23.5,183,19.5,175.2z M109.6,47.5c0-1.8,0.8-6.5-0.5-8.1c-0.2-0.3-0.6-0.5-1-0.5c1.4-1,2.9-1.8,4.4-2.6 c0.5,0.5,1,1.3,1.6,1.8c7,6.8,13.8,13.5,20.8,20.3c2.6,2.6,4.9,6.2,9.1,5.5c1.6-0.3,4.2-0.5,3.9-2.6c0-1.8-1.3-3.6-2.1-5.2 c-0.8-1.8-2.1-3.9-1.8-5.7c0.3-1.6,1.6-2.9,2.1-4.4c0.8-2.1-0.5-3.6-0.8-5.7c-0.5-2.1,0-4.4,0-6.5c0-2.1,0.5-4.4-1-6.2 c-0.8-0.8-1.6-1.3-2.3-2.1c7.5-2.6,15.1-3.4,23.2-3.4l0,0c15.7,0,31.3,3.4,45.5,10.2c-2.6,2.6-3.1,7.5-4.9,10.1 c-1,1.6-2.6,2.3-3.9,3.6c-1.6,1.6-1.6,3.6-1.6,5.7c-0.8,0,0.5,4.4,1,4.9c1.6,1.3,3.1,0.3,4.4-0.3c5.2-2.6,3.6,3.4,6,6 c3.4,3.6,6.5-3.6,7.3-5.7c0.8-2.3,1.3-3.6,0-5.7c-1-1.6-1.6-2.3-1-4.4c0.7-2,1.7-3.9,2.9-5.7c0.5-0.5,1-1.3,1.6-1.8 c0.9,0.6,1.9,1.1,2.9,1.6c-0.4,0.7-0.8,1.4-1.3,2.1c-0.8,1-1.6,1.8-1.3,3.4c0.3,1.6,0.9,3.1,1.7,4.4c1,1.6,2.3,1.3,4.2,0.8 c2.6-0.5,4.9,1.3,1.6,2.9c-1.6,0.8-2.9,1-2.9,3.1c0,1,0.3,2.1-1,2.6c-1.3,0.8-2.3,0-3.4,1.6c-0.6,1.3-1.1,2.6-1.6,3.9 c-1.6,3.1-5.5,2.1-8.6,2.1c-1.6,0-2.9,0-3.9-1.3c-0.5-0.8-0.8-2.1-1.6-2.6c-2.6-1.6-2.3,4.2-3.6,4.9c-1,0.8-2.1,0.8-3.1,1.6 c-0.8,0.8-1.5,1.8-2.1,2.9c-1.3,1.6-2.3,2.9-4.2,3.6c-1.6,0.5-3.4,0.8-4.7,1.6c-2.9,1.8,0,5.5,1.3,7.5c0.5,1,2.1,2.9,0.5,3.9 c-1,0.8-3.1,0.3-4.2,0c-1.3,0-3.1-0.5-4.2,0c-1.8,0.8-1.3,2.3-1.3,3.9c0.1,1.4,0.3,2.8,0.5,4.2c0.7,1,1.9,1.7,3.1,1.8 c2.9,0.8,6,2.3,8.1-0.3c2.1-2.6,3.1-5.7,6.2-7.5c1.8-1,5.2-3.4,7.3-2.3c2.9,1.3,4.4,5.7,6.8,8.1c1,1,1.8,1.6,3.1,0.8 c1.2-0.6,1.7-2,1.1-3.2c0-0.1-0.1-0.1-0.1-0.2c-1.3-2.1-7.3-3.4-5.7-6.8c1.3-2.6,5.5,1.6,6.8,2.6c1.2,0.9,1.9,2.2,2.1,3.6 c-0.1,1.2,0.1,2.3,0.5,3.4l0.3,0.4c-3.2,1.9-7.4,4.5-12,7.8c-0.3-0.9-0.6-1.8-0.8-2.7c-1.3-3.1-4.9-1.6-7.5-1l-10.1,1.5 c-3.6,0.8-5.7,1.3-8.1,4.2l-0.1,0.2l-8.5-20.3c0-0.1-0.1-0.2-0.1-0.4l0,0c-1.7-2.7-5.3-3.5-8-1.7c-0.2,0.1-0.3,0.2-0.5,0.4 c-0.4,0.4-1,0.4-1.4,0l-0.1-0.1l0,0c-2.4-2.1-6.1-1.8-8.2,0.6c-0.3,0.3-0.5,0.6-0.7,1l-0.2,0.2l-14.9,35.6 c-4.8-5-9.9-9.6-15.4-13.8c-3.2-2.5-6.3-4.6-9.1-6.5l0.6-0.3c4.9-2.8,9.9-5.3,15.1-7.5c1.6-0.8,5.5-1.6,6.3-3.6 c0.8-2.1-1.8-5.7-2.6-7.5c-1.3-2.9-2.6-5.7-3.9-8.6c-0.8-1.8-1.6-5.2-3.9-5.2c-1.3,0-2.1,1-3.4,0.3c-0.5-0.6-0.8-1.3-1-2.1 c-0.8-1.8-1-5.2-3.1-6.2c-1.6-0.8-4.9-0.5-6.2,0c-2.3,0.8-2.1,3.6-2.3,5.7c-0.3,2.6,0,14.8-5.5,12c-2.3-1.3-4.4-4.4-6.2-6.5 c-1.6-1.8-4.2-3.6-5.2-5.7s0-5.5,1.3-7.3c1.3-1.8,3.6-1.8,5.5-2.3c2.1-0.5,6.2-0.5,7.5-2.1C110.4,54,109.6,49.6,109.6,47.5 L109.6,47.5z M265.7,93.3c0.5,1.6,0.8,3.3,0.8,4.9c0,1.8-0.5,2.3-2.3,2.6c-1,0-3.4,0-4.2-0.8c-1-1-0.5-2.1-0.3-3.4 c0.2-1.6,0.1-3.2-0.5-4.7c-0.5-1.3-1.6-3.1-1.3-4.4c0.3-1.6,2.1-2.3,3.1-3.1c0.8-0.3,1-0.8,1.6-1c0.5,1.6,1.3,2.9,1.8,4.2 c-0.4,0.5-0.6,1.2-0.5,1.8C264.2,90.7,265.5,92,265.7,93.3L265.7,93.3z M271.4,152.8c-1,5.2-2.4,10.4-4.2,15.5 c-12.9,0.5-25.6,3.1-37.6,7.7c5.1-13.7,6.7-27.7,6.8-39.6c4-1.7,8-3.1,12.2-4.4c8.2-2.5,16.6-4.2,25.1-5.1 C273.8,135.6,273.1,144.3,271.4,152.8L271.4,152.8z M189,224c-6.2,4.9-12.9,9.2-19.8,13c3.7-6.7,7.8-13.2,12.5-19.3 c8.7-11.4,23.1-26.9,42.7-36.3C215.4,200.8,200.3,215.2,189,224L189,224z M105.7,181.3c19.7,9.5,34,24.9,42.7,36.3 c4.6,6.1,8.8,12.5,12.5,19.3C150.5,231.3,120.1,212.6,105.7,181.3L105.7,181.3z M58.9,152.9c-1.7-8.6-2.5-17.3-2.3-26 c12.7,1.4,25.2,4.6,37,9.5c0.1,11.9,1.7,25.9,6.8,39.7c-12-4.6-24.6-7.2-37.4-7.7C61.4,163.3,60,158.1,58.9,152.9L58.9,152.9z M96.5,134.5c0-4.1,0.2-8,0.6-11.4c0.7-8.7,2.3-17.2,4.6-25.6c14,7.4,26.8,17,37.8,28.4l-5.6,13.3c-2.3,5.5-3.7,11.4-4.2,17.3 C120.1,147.1,108.8,139.7,96.5,134.5z M165.1,238.9c-4.1-8-8.9-15.7-14.4-22.8l-0.5-0.7l5.6-6.5c3.7-4.3,6.5-9.3,8.3-14.7 c0.1-0.4,0.5-0.7,1-0.7c0.5,0,0.9,0.3,1.1,0.7c1.8,5.4,4.7,10.4,8.4,14.8l5.4,6.3l-0.6,0.8C173.9,223.2,169.1,230.8,165.1,238.9 L165.1,238.9z M132.9,186.8c1.6-3.8,1.9-8,0.9-11.9c-3-11.5-2.1-23.7,2.5-34.6L154.4,97l3.5-8.3c0-0.1,0-0.1,0.1-0.2 c0.9-1.5,2.9-1.9,4.4-1c0.9,0.6,1.5,1.6,1.5,2.7V180c0,10-3.5,19.6-10,27.2l-5.2,6.1c-5.9-7.5-12.6-14.3-19.9-20.4 C130.5,191.2,131.9,189.1,132.9,186.8L132.9,186.8z M176.5,207.1c-6.5-7.6-10.1-17.2-10.1-27.2V90.1c0-1.5,1-2.7,2.4-3.1h0.1 c0.3,0,0.5,0,0.8,0c1,0,1.9,0.5,2.4,1.4c0,0.1,0.1,0.1,0.1,0.2l4.1,9.7l17.6,41.9c4.6,11,5.5,23.2,2.5,34.8 c-1.7,6.4,0.3,13.3,5.2,17.8c-7.4,6.1-14.1,12.9-20,20.4L176.5,207.1z M196.3,139.3l-6.3-15l0.6,1.2l0.1,0.4 c4.9-5.2,10.2-10,15.9-14.4c6.9-5.3,14.2-10,21.9-14c2.3,8.4,3.8,17,4.6,25.6c0.3,3.5,0.5,7.4,0.6,11.5 c-12.3,5.2-23.5,12.7-33.1,22C200,150.7,198.6,144.8,196.3,139.3L196.3,139.3z M96.5,137.6c12.3,5.3,23.5,13,32.9,22.6 c-0.1,5.2,0.5,10.4,1.8,15.4c1.5,5.7-0.3,11.7-4.7,15.5c-6.6-5.3-13.9-9.7-21.6-13.2l-0.9-0.4C98.5,163.8,96.7,149.7,96.5,137.6 L96.5,137.6z M225.2,177.9c-7.7,3.5-15,8-21.6,13.3c-4.4-3.9-6.2-10-4.6-15.7c1.3-4.9,1.9-10,1.8-15.1c10-10.7,22-17.9,32.9-22.8 c-0.2,12.1-2,26.2-7.5,39.9L225.2,177.9z M246.8,95.5c-1,0.7-2.3,0.6-3.1-0.3c-1.3-0.9-2.7-1.6-4.2-2.1c-0.7-0.2-1.4-0.5-2.1-0.8 h-0.3c-0.1,0-0.3-0.1-0.3-0.2c0,0,0,0,0,0l-0.3-0.3c-1-0.3-1.3-0.5-1.3-1c-0.2-0.9,0.1-1.9,0.8-2.6l0,0c0.9-1.2,2.2-2,3.6-2.3h1 c2.1,0.5,4.7,5.2,5.7,6.5C247.3,93.6,247.3,94.6,246.8,95.5z M95,116.3c-0.3,2-0.5,4.2-0.7,6.5c-0.1,1.2-0.2,2.4-0.3,3.7 c-2.3-0.4-3.6,2.8-6,2.6c-2.6-0.3-3.1-3.9-2.6-5.7c0.5-2.1,1.3-4.9,3.4-5.7C90.8,116.8,92.9,116.4,95,116.3z M57,124.1 c0.5-7.2,1.6-14.2,3.5-21.2c2.2,4.5,4.6,8.8,7.3,13c1.6,2.6,3.4,5.2,4.9,7.8c0.7,1.3,1.5,2.5,2.5,3.6 C69.2,125.8,63.1,124.8,57,124.1L57,124.1z M84.7,203.9c-9.1-9.3-16.1-20.5-20.6-32.8c13,0.6,25.8,3.5,37.8,8.5l0.5,1.2 c9.1,20.9,25.2,36.2,37,45.4c5.6,4.3,11.4,8.3,17.6,11.8c-7.2-1-14.2-2.5-21.1-4.6C121.6,229.1,101.2,220.6,84.7,203.9L84.7,203.9z M194,233.3c-6.8,2-13.8,3.5-20.8,4.5c6.1-3.5,11.9-7.4,17.4-11.7c11.9-9.2,27.9-24.5,37-45.4c0.2-0.4,0.3-0.8,0.5-1.2 c12.1-5,25-7.8,38-8.5c-4.5,12.3-11.5,23.4-20.6,32.8C229.2,220.6,208.5,229.1,194,233.3L194,233.3z"></path> <linearGradient id="SVGID_47_" gradientUnits="userSpaceOnUse" x1="117.5995" y1="372.348" x2="290.094" y2="1.6691" gradientTransform="matrix(1 0 0 -1 0 361.0526)"> <stop offset="1.000000e-02" style="stop-color:#EAB245"></stop> <stop offset="0.27" style="stop-color:#F1E3A6"></stop> <stop offset="0.39" style="stop-color:#DCC07A"></stop> <stop offset="0.6" style="stop-color:#B27C23"></stop> <stop offset="0.86" style="stop-color:#E8CE7F"></stop> <stop offset="0.89" style="stop-color:#EED688"></stop> <stop offset="1" style="stop-color:#F6E8AA"></stop> </linearGradient> <path class="st46" d="M185.2,143.3C185.2,143.3,185.2,143.4,185.2,143.3c0.2,0.7,0.9,1,1.5,0.8c0.6-0.2,1-0.9,0.8-1.5 c0,0,0,0,0-0.1l-17.1-49.8L185.2,143.3z"></path> <linearGradient id="SVGID_48_" gradientUnits="userSpaceOnUse" x1="110.884" y1="369.2294" x2="283.3784" y2="-1.4495" gradientTransform="matrix(1 0 0 -1 0 361.0526)"> <stop offset="1.000000e-02" style="stop-color:#EAB245"></stop> <stop offset="0.27" style="stop-color:#F1E3A6"></stop> <stop offset="0.39" style="stop-color:#DCC07A"></stop> <stop offset="0.6" style="stop-color:#B27C23"></stop> <stop offset="0.86" style="stop-color:#E8CE7F"></stop> <stop offset="0.89" style="stop-color:#EED688"></stop> <stop offset="1" style="stop-color:#F6E8AA"></stop> </linearGradient> <path class="st47" d="M175.7,148.5C175.7,148.5,175.7,148.5,175.7,148.5c0.1,0.7,0.8,1.1,1.4,1c0.6-0.1,1-0.7,0.9-1.4l-8.8-48.2 L175.7,148.5z"></path> <linearGradient id="SVGID_49_" gradientUnits="userSpaceOnUse" x1="95.6999" y1="362.1575" x2="268.1943" y2="-8.5214" gradientTransform="matrix(1 0 0 -1 0 361.0526)"> <stop offset="1.000000e-02" style="stop-color:#EAB245"></stop> <stop offset="0.27" style="stop-color:#F1E3A6"></stop> <stop offset="0.39" style="stop-color:#DCC07A"></stop> <stop offset="0.6" style="stop-color:#B27C23"></stop> <stop offset="0.86" style="stop-color:#E8CE7F"></stop> <stop offset="0.89" style="stop-color:#EED688"></stop> <stop offset="1" style="stop-color:#F6E8AA"></stop> </linearGradient> <path class="st48" d="M142.6,142.6c-0.2,0.6,0.2,1.3,0.9,1.5c0.6,0.1,1.2-0.2,1.4-0.8l14.8-50.5L142.6,142.6L142.6,142.6z"></path> <linearGradient id="SVGID_50_" gradientUnits="userSpaceOnUse" x1="97.6393" y1="363.0626" x2="270.1338" y2="-7.6163" gradientTransform="matrix(1 0 0 -1 0 361.0526)"> <stop offset="1.000000e-02" style="stop-color:#EAB245"></stop> <stop offset="0.27" style="stop-color:#F1E3A6"></stop> <stop offset="0.39" style="stop-color:#DCC07A"></stop> <stop offset="0.6" style="stop-color:#B27C23"></stop> <stop offset="0.86" style="stop-color:#E8CE7F"></stop> <stop offset="0.89" style="stop-color:#EED688"></stop> <stop offset="1" style="stop-color:#F6E8AA"></stop> </linearGradient> <path class="st49" d="M152,148.2C152,148.2,152,148.2,152,148.2c-0.1,0.7,0.4,1.3,1.1,1.4c0.7,0.1,1.3-0.4,1.3-1l6.4-48.6 L152,148.2z"></path></g> </svg> 