<?xml version="1.0" encoding="utf-8"?>
<!-- Generator: Adobe Illustrator 24.0.3, SVG Export Plug-In . SVG Version: 6.00 Build 0)  -->
<svg version="1.1" id="Layer_1" xmlns="http://www.w3.org/2000/svg" xmlns:xlink="http://www.w3.org/1999/xlink" x="0px" y="0px"
	 viewBox="0 0 1147 1147" style="enable-background:new 0 0 1147 1147;" xml:space="preserve">
<style type="text/css">
	.st0{fill:none;}
</style>
<g transform="translate(62,62)">
	<g transform="translate(248,0) scale(0.31,0.31)">
		<g transform="">
			<rect x="0" y="0" width="100" height="100"/>
		</g>
	</g>
	<g transform="translate(310,0) scale(0.31,0.31)">
		<g transform="">
			<rect x="0" y="0" width="100" height="100"/>
		</g>
	</g>
	<g transform="translate(372,0) scale(0.31,0.31)">
		<g transform="">
			<rect x="0" y="0" width="100" height="100"/>
		</g>
	</g>
	<g transform="translate(403,0) scale(0.31,0.31)">
		<g transform="">
			<rect x="0" y="0" width="100" height="100"/>
		</g>
	</g>
	<g transform="translate(434,0) scale(0.31,0.31)">
		<g transform="">
			<rect x="0" y="0" width="100" height="100"/>
		</g>
	</g>
	<g transform="translate(527,0) scale(0.31,0.31)">
		<g transform="">
			<rect x="0" y="0" width="100" height="100"/>
		</g>
	</g>
	<g transform="translate(558,0) scale(0.31,0.31)">
		<g transform="">
			<rect x="0" y="0" width="100" height="100"/>
		</g>
	</g>
	<g transform="translate(620,0) scale(0.31,0.31)">
		<g transform="">
			<rect x="0" y="0" width="100" height="100"/>
		</g>
	</g>
	<g transform="translate(651,0) scale(0.31,0.31)">
		<g transform="">
			<rect x="0" y="0" width="100" height="100"/>
		</g>
	</g>
	<g transform="translate(682,0) scale(0.31,0.31)">
		<g transform="">
			<rect x="0" y="0" width="100" height="100"/>
		</g>
	</g>
	<g transform="translate(248,31) scale(0.31,0.31)">
		<g transform="">
			<rect x="0" y="0" width="100" height="100"/>
		</g>
	</g>
	<g transform="translate(341,31) scale(0.31,0.31)">
		<g transform="">
			<rect x="0" y="0" width="100" height="100"/>
		</g>
	</g>
	<g transform="translate(403,31) scale(0.31,0.31)">
		<g transform="">
			<rect x="0" y="0" width="100" height="100"/>
		</g>
	</g>
	<g transform="translate(434,31) scale(0.31,0.31)">
		<g transform="">
			<rect x="0" y="0" width="100" height="100"/>
		</g>
	</g>
	<g transform="translate(558,31) scale(0.31,0.31)">
		<g transform="">
			<rect x="0" y="0" width="100" height="100"/>
		</g>
	</g>
	<g transform="translate(589,31) scale(0.31,0.31)">
		<g transform="">
			<rect x="0" y="0" width="100" height="100"/>
		</g>
	</g>
	<g transform="translate(682,31) scale(0.31,0.31)">
		<g transform="">
			<rect x="0" y="0" width="100" height="100"/>
		</g>
	</g>
	<g transform="translate(248,62) scale(0.31,0.31)">
		<g transform="">
			<rect x="0" y="0" width="100" height="100"/>
		</g>
	</g>
	<g transform="translate(403,62) scale(0.31,0.31)">
		<g transform="">
			<rect x="0" y="0" width="100" height="100"/>
		</g>
	</g>
	<g transform="translate(434,62) scale(0.31,0.31)">
		<g transform="">
			<rect x="0" y="0" width="100" height="100"/>
		</g>
	</g>
	<g transform="translate(496,62) scale(0.31,0.31)">
		<g transform="">
			<rect x="0" y="0" width="100" height="100"/>
		</g>
	</g>
	<g transform="translate(589,62) scale(0.31,0.31)">
		<g transform="">
			<rect x="0" y="0" width="100" height="100"/>
		</g>
	</g>
	<g transform="translate(620,62) scale(0.31,0.31)">
		<g transform="">
			<rect x="0" y="0" width="100" height="100"/>
		</g>
	</g>
	<g transform="translate(651,62) scale(0.31,0.31)">
		<g transform="">
			<rect x="0" y="0" width="100" height="100"/>
		</g>
	</g>
	<g transform="translate(744,62) scale(0.31,0.31)">
		<g transform="">
			<rect x="0" y="0" width="100" height="100"/>
		</g>
	</g>
	<g transform="translate(310,93) scale(0.31,0.31)">
		<g transform="">
			<rect x="0" y="0" width="100" height="100"/>
		</g>
	</g>
	<g transform="translate(341,93) scale(0.31,0.31)">
		<g transform="">
			<rect x="0" y="0" width="100" height="100"/>
		</g>
	</g>
	<g transform="translate(372,93) scale(0.31,0.31)">
		<g transform="">
			<rect x="0" y="0" width="100" height="100"/>
		</g>
	</g>
	<g transform="translate(434,93) scale(0.31,0.31)">
		<g transform="">
			<rect x="0" y="0" width="100" height="100"/>
		</g>
	</g>
	<g transform="translate(496,93) scale(0.31,0.31)">
		<g transform="">
			<rect x="0" y="0" width="100" height="100"/>
		</g>
	</g>
	<g transform="translate(558,93) scale(0.31,0.31)">
		<g transform="">
			<rect x="0" y="0" width="100" height="100"/>
		</g>
	</g>
	<g transform="translate(589,93) scale(0.31,0.31)">
		<g transform="">
			<rect x="0" y="0" width="100" height="100"/>
		</g>
	</g>
	<g transform="translate(620,93) scale(0.31,0.31)">
		<g transform="">
			<rect x="0" y="0" width="100" height="100"/>
		</g>
	</g>
	<g transform="translate(651,93) scale(0.31,0.31)">
		<g transform="">
			<rect x="0" y="0" width="100" height="100"/>
		</g>
	</g>
	<g transform="translate(713,93) scale(0.31,0.31)">
		<g transform="">
			<rect x="0" y="0" width="100" height="100"/>
		</g>
	</g>
	<g transform="translate(744,93) scale(0.31,0.31)">
		<g transform="">
			<rect x="0" y="0" width="100" height="100"/>
		</g>
	</g>
	<g transform="translate(248,124) scale(0.31,0.31)">
		<g transform="">
			<rect x="0" y="0" width="100" height="100"/>
		</g>
	</g>
	<g transform="translate(372,124) scale(0.31,0.31)">
		<g transform="">
			<rect x="0" y="0" width="100" height="100"/>
		</g>
	</g>
	<g transform="translate(403,124) scale(0.31,0.31)">
		<g transform="">
			<rect x="0" y="0" width="100" height="100"/>
		</g>
	</g>
	<g transform="translate(465,124) scale(0.31,0.31)">
		<g transform="">
			<rect x="0" y="0" width="100" height="100"/>
		</g>
	</g>
	<g transform="translate(496,124) scale(0.31,0.31)">
		<g transform="">
			<rect x="0" y="0" width="100" height="100"/>
		</g>
	</g>
	<g transform="translate(279,155) scale(0.31,0.31)">
		<g transform="">
			<rect x="0" y="0" width="100" height="100"/>
		</g>
	</g>
	<g transform="translate(310,155) scale(0.31,0.31)">
		<g transform="">
			<rect x="0" y="0" width="100" height="100"/>
		</g>
	</g>
	<g transform="translate(372,155) scale(0.31,0.31)">
		<g transform="">
			<rect x="0" y="0" width="100" height="100"/>
		</g>
	</g>
	<g transform="translate(434,155) scale(0.31,0.31)">
		<g transform="">
			<rect x="0" y="0" width="100" height="100"/>
		</g>
	</g>
	<g transform="translate(465,155) scale(0.31,0.31)">
		<g transform="">
			<rect x="0" y="0" width="100" height="100"/>
		</g>
	</g>
	<g transform="translate(496,155) scale(0.31,0.31)">
		<g transform="">
			<rect x="0" y="0" width="100" height="100"/>
		</g>
	</g>
	<g transform="translate(589,155) scale(0.31,0.31)">
		<g transform="">
			<rect x="0" y="0" width="100" height="100"/>
		</g>
	</g>
	<g transform="translate(651,155) scale(0.31,0.31)">
		<g transform="">
			<rect x="0" y="0" width="100" height="100"/>
		</g>
	</g>
	<g transform="translate(713,155) scale(0.31,0.31)">
		<g transform="">
			<rect x="0" y="0" width="100" height="100"/>
		</g>
	</g>
	<g transform="translate(744,155) scale(0.31,0.31)">
		<g transform="">
			<rect x="0" y="0" width="100" height="100"/>
		</g>
	</g>
	<g transform="translate(248,186) scale(0.31,0.31)">
		<g transform="">
			<rect x="0" y="0" width="100" height="100"/>
		</g>
	</g>
	<g transform="translate(310,186) scale(0.31,0.31)">
		<g transform="">
			<rect x="0" y="0" width="100" height="100"/>
		</g>
	</g>
	<g transform="translate(372,186) scale(0.31,0.31)">
		<g transform="">
			<rect x="0" y="0" width="100" height="100"/>
		</g>
	</g>
	<g transform="translate(434,186) scale(0.31,0.31)">
		<g transform="">
			<rect x="0" y="0" width="100" height="100"/>
		</g>
	</g>
	<g transform="translate(496,186) scale(0.31,0.31)">
		<g transform="">
			<rect x="0" y="0" width="100" height="100"/>
		</g>
	</g>
	<g transform="translate(558,186) scale(0.31,0.31)">
		<g transform="">
			<rect x="0" y="0" width="100" height="100"/>
		</g>
	</g>
	<g transform="translate(620,186) scale(0.31,0.31)">
		<g transform="">
			<rect x="0" y="0" width="100" height="100"/>
		</g>
	</g>
	<g transform="translate(682,186) scale(0.31,0.31)">
		<g transform="">
			<rect x="0" y="0" width="100" height="100"/>
		</g>
	</g>
	<g transform="translate(744,186) scale(0.31,0.31)">
		<g transform="">
			<rect x="0" y="0" width="100" height="100"/>
		</g>
	</g>
	<g transform="translate(310,217) scale(0.31,0.31)">
		<g transform="">
			<rect x="0" y="0" width="100" height="100"/>
		</g>
	</g>
	<g transform="translate(341,217) scale(0.31,0.31)">
		<g transform="">
			<rect x="0" y="0" width="100" height="100"/>
		</g>
	</g>
	<g transform="translate(372,217) scale(0.31,0.31)">
		<g transform="">
			<rect x="0" y="0" width="100" height="100"/>
		</g>
	</g>
	<g transform="translate(403,217) scale(0.31,0.31)">
		<g transform="">
			<rect x="0" y="0" width="100" height="100"/>
		</g>
	</g>
	<g transform="translate(434,217) scale(0.31,0.31)">
		<g transform="">
			<rect x="0" y="0" width="100" height="100"/>
		</g>
	</g>
	<g transform="translate(465,217) scale(0.31,0.31)">
		<g transform="">
			<rect x="0" y="0" width="100" height="100"/>
		</g>
	</g>
	<g transform="translate(496,217) scale(0.31,0.31)">
		<g transform="">
			<rect x="0" y="0" width="100" height="100"/>
		</g>
	</g>
	<g transform="translate(558,217) scale(0.31,0.31)">
		<g transform="">
			<rect x="0" y="0" width="100" height="100"/>
		</g>
	</g>
	<g transform="translate(744,217) scale(0.31,0.31)">
		<g transform="">
			<rect x="0" y="0" width="100" height="100"/>
		</g>
	</g>
	<g transform="translate(0,248) scale(0.31,0.31)">
		<g transform="">
			<rect x="0" y="0" width="100" height="100"/>
		</g>
	</g>
	<g transform="translate(93,248) scale(0.31,0.31)">
		<g transform="">
			<rect x="0" y="0" width="100" height="100"/>
		</g>
	</g>
	<g transform="translate(124,248) scale(0.31,0.31)">
		<g transform="">
			<rect x="0" y="0" width="100" height="100"/>
		</g>
	</g>
	<g transform="translate(155,248) scale(0.31,0.31)">
		<g transform="">
			<rect x="0" y="0" width="100" height="100"/>
		</g>
	</g>
	<g transform="translate(186,248) scale(0.31,0.31)">
		<g transform="">
			<rect x="0" y="0" width="100" height="100"/>
		</g>
	</g>
	<g transform="translate(217,248) scale(0.31,0.31)">
		<g transform="">
			<rect x="0" y="0" width="100" height="100"/>
		</g>
	</g>
	<g transform="translate(248,248) scale(0.31,0.31)">
		<g transform="">
			<rect x="0" y="0" width="100" height="100"/>
		</g>
	</g>
	<g transform="translate(279,248) scale(0.31,0.31)">
		<g transform="">
			<rect x="0" y="0" width="100" height="100"/>
		</g>
	</g>
	<g transform="translate(341,248) scale(0.31,0.31)">
		<g transform="">
			<rect x="0" y="0" width="100" height="100"/>
		</g>
	</g>
	<g transform="translate(434,248) scale(0.31,0.31)">
		<g transform="">
			<rect x="0" y="0" width="100" height="100"/>
		</g>
	</g>
	<g transform="translate(527,248) scale(0.31,0.31)">
		<g transform="">
			<rect x="0" y="0" width="100" height="100"/>
		</g>
	</g>
	<g transform="translate(744,248) scale(0.31,0.31)">
		<g transform="">
			<rect x="0" y="0" width="100" height="100"/>
		</g>
	</g>
	<g transform="translate(775,248) scale(0.31,0.31)">
		<g transform="">
			<rect x="0" y="0" width="100" height="100"/>
		</g>
	</g>
	<g transform="translate(868,248) scale(0.31,0.31)">
		<g transform="">
			<rect x="0" y="0" width="100" height="100"/>
		</g>
	</g>
	<g transform="translate(930,248) scale(0.31,0.31)">
		<g transform="">
			<rect x="0" y="0" width="100" height="100"/>
		</g>
	</g>
	<g transform="translate(961,248) scale(0.31,0.31)">
		<g transform="">
			<rect x="0" y="0" width="100" height="100"/>
		</g>
	</g>
	<g transform="translate(992,248) scale(0.31,0.31)">
		<g transform="">
			<rect x="0" y="0" width="100" height="100"/>
		</g>
	</g>
	<g transform="translate(62,279) scale(0.31,0.31)">
		<g transform="">
			<rect x="0" y="0" width="100" height="100"/>
		</g>
	</g>
	<g transform="translate(124,279) scale(0.31,0.31)">
		<g transform="">
			<rect x="0" y="0" width="100" height="100"/>
		</g>
	</g>
	<g transform="translate(310,279) scale(0.31,0.31)">
		<g transform="">
			<rect x="0" y="0" width="100" height="100"/>
		</g>
	</g>
	<g transform="translate(403,279) scale(0.31,0.31)">
		<g transform="">
			<rect x="0" y="0" width="100" height="100"/>
		</g>
	</g>
	<g transform="translate(434,279) scale(0.31,0.31)">
		<g transform="">
			<rect x="0" y="0" width="100" height="100"/>
		</g>
	</g>
	<g transform="translate(465,279) scale(0.31,0.31)">
		<g transform="">
			<rect x="0" y="0" width="100" height="100"/>
		</g>
	</g>
	<g transform="translate(527,279) scale(0.31,0.31)">
		<g transform="">
			<rect x="0" y="0" width="100" height="100"/>
		</g>
	</g>
	<g transform="translate(558,279) scale(0.31,0.31)">
		<g transform="">
			<rect x="0" y="0" width="100" height="100"/>
		</g>
	</g>
	<g transform="translate(589,279) scale(0.31,0.31)">
		<g transform="">
			<rect x="0" y="0" width="100" height="100"/>
		</g>
	</g>
	<g transform="translate(713,279) scale(0.31,0.31)">
		<g transform="">
			<rect x="0" y="0" width="100" height="100"/>
		</g>
	</g>
	<g transform="translate(868,279) scale(0.31,0.31)">
		<g transform="">
			<rect x="0" y="0" width="100" height="100"/>
		</g>
	</g>
	<g transform="translate(899,279) scale(0.31,0.31)">
		<g transform="">
			<rect x="0" y="0" width="100" height="100"/>
		</g>
	</g>
	<g transform="translate(930,279) scale(0.31,0.31)">
		<g transform="">
			<rect x="0" y="0" width="100" height="100"/>
		</g>
	</g>
	<g transform="translate(961,279) scale(0.31,0.31)">
		<g transform="">
			<rect x="0" y="0" width="100" height="100"/>
		</g>
	</g>
	<g transform="translate(0,310) scale(0.31,0.31)">
		<g transform="">
			<rect x="0" y="0" width="100" height="100"/>
		</g>
	</g>
	<g transform="translate(31,310) scale(0.31,0.31)">
		<g transform="">
			<rect x="0" y="0" width="100" height="100"/>
		</g>
	</g>
	<g transform="translate(62,310) scale(0.31,0.31)">
		<g transform="">
			<rect x="0" y="0" width="100" height="100"/>
		</g>
	</g>
	<g transform="translate(93,310) scale(0.31,0.31)">
		<g transform="">
			<rect x="0" y="0" width="100" height="100"/>
		</g>
	</g>
	<g transform="translate(155,310) scale(0.31,0.31)">
		<g transform="">
			<rect x="0" y="0" width="100" height="100"/>
		</g>
	</g>
	<g transform="translate(186,310) scale(0.31,0.31)">
		<g transform="">
			<rect x="0" y="0" width="100" height="100"/>
		</g>
	</g>
	<g transform="translate(248,310) scale(0.31,0.31)">
		<g transform="">
			<rect x="0" y="0" width="100" height="100"/>
		</g>
	</g>
	<g transform="translate(279,310) scale(0.31,0.31)">
		<g transform="">
			<rect x="0" y="0" width="100" height="100"/>
		</g>
	</g>
	<g transform="translate(310,310) scale(0.31,0.31)">
		<g transform="">
			<rect x="0" y="0" width="100" height="100"/>
		</g>
	</g>
	<g transform="translate(372,310) scale(0.31,0.31)">
		<g transform="">
			<rect x="0" y="0" width="100" height="100"/>
		</g>
	</g>
	<g transform="translate(403,310) scale(0.31,0.31)">
		<g transform="">
			<rect x="0" y="0" width="100" height="100"/>
		</g>
	</g>
	<g transform="translate(465,310) scale(0.31,0.31)">
		<g transform="">
			<rect x="0" y="0" width="100" height="100"/>
		</g>
	</g>
	<g transform="translate(496,310) scale(0.31,0.31)">
		<g transform="">
			<rect x="0" y="0" width="100" height="100"/>
		</g>
	</g>
	<g transform="translate(651,310) scale(0.31,0.31)">
		<g transform="">
			<rect x="0" y="0" width="100" height="100"/>
		</g>
	</g>
	<g transform="translate(713,310) scale(0.31,0.31)">
		<g transform="">
			<rect x="0" y="0" width="100" height="100"/>
		</g>
	</g>
	<g transform="translate(744,310) scale(0.31,0.31)">
		<g transform="">
			<rect x="0" y="0" width="100" height="100"/>
		</g>
	</g>
	<g transform="translate(775,310) scale(0.31,0.31)">
		<g transform="">
			<rect x="0" y="0" width="100" height="100"/>
		</g>
	</g>
	<g transform="translate(868,310) scale(0.31,0.31)">
		<g transform="">
			<rect x="0" y="0" width="100" height="100"/>
		</g>
	</g>
	<g transform="translate(899,310) scale(0.31,0.31)">
		<g transform="">
			<rect x="0" y="0" width="100" height="100"/>
		</g>
	</g>
	<g transform="translate(930,310) scale(0.31,0.31)">
		<g transform="">
			<rect x="0" y="0" width="100" height="100"/>
		</g>
	</g>
	<g transform="translate(961,310) scale(0.31,0.31)">
		<g transform="">
			<rect x="0" y="0" width="100" height="100"/>
		</g>
	</g>
	<g transform="translate(992,310) scale(0.31,0.31)">
		<g transform="">
			<rect x="0" y="0" width="100" height="100"/>
		</g>
	</g>
	<g transform="translate(0,341) scale(0.31,0.31)">
		<g transform="">
			<rect x="0" y="0" width="100" height="100"/>
		</g>
	</g>
	<g transform="translate(62,341) scale(0.31,0.31)">
		<g transform="">
			<rect x="0" y="0" width="100" height="100"/>
		</g>
	</g>
	<g transform="translate(124,341) scale(0.31,0.31)">
		<g transform="">
			<rect x="0" y="0" width="100" height="100"/>
		</g>
	</g>
	<g transform="translate(248,341) scale(0.31,0.31)">
		<g transform="">
			<rect x="0" y="0" width="100" height="100"/>
		</g>
	</g>
	<g transform="translate(279,341) scale(0.31,0.31)">
		<g transform="">
			<rect x="0" y="0" width="100" height="100"/>
		</g>
	</g>
	<g transform="translate(372,341) scale(0.31,0.31)">
		<g transform="">
			<rect x="0" y="0" width="100" height="100"/>
		</g>
	</g>
	<g transform="translate(403,341) scale(0.31,0.31)">
		<g transform="">
			<rect x="0" y="0" width="100" height="100"/>
		</g>
	</g>
	<g transform="translate(465,341) scale(0.31,0.31)">
		<g transform="">
			<rect x="0" y="0" width="100" height="100"/>
		</g>
	</g>
	<g transform="translate(558,341) scale(0.31,0.31)">
		<g transform="">
			<rect x="0" y="0" width="100" height="100"/>
		</g>
	</g>
	<g transform="translate(806,341) scale(0.31,0.31)">
		<g transform="">
			<rect x="0" y="0" width="100" height="100"/>
		</g>
	</g>
	<g transform="translate(837,341) scale(0.31,0.31)">
		<g transform="">
			<rect x="0" y="0" width="100" height="100"/>
		</g>
	</g>
	<g transform="translate(930,341) scale(0.31,0.31)">
		<g transform="">
			<rect x="0" y="0" width="100" height="100"/>
		</g>
	</g>
	<g transform="translate(992,341) scale(0.31,0.31)">
		<g transform="">
			<rect x="0" y="0" width="100" height="100"/>
		</g>
	</g>
	<g transform="translate(0,372) scale(0.31,0.31)">
		<g transform="">
			<rect x="0" y="0" width="100" height="100"/>
		</g>
	</g>
	<g transform="translate(31,372) scale(0.31,0.31)">
		<g transform="">
			<rect x="0" y="0" width="100" height="100"/>
		</g>
	</g>
	<g transform="translate(93,372) scale(0.31,0.31)">
		<g transform="">
			<rect x="0" y="0" width="100" height="100"/>
		</g>
	</g>
	<g transform="translate(124,372) scale(0.31,0.31)">
		<g transform="">
			<rect x="0" y="0" width="100" height="100"/>
		</g>
	</g>
	<g transform="translate(186,372) scale(0.31,0.31)">
		<g transform="">
			<rect x="0" y="0" width="100" height="100"/>
		</g>
	</g>
	<g transform="translate(279,372) scale(0.31,0.31)">
		<g transform="">
			<rect x="0" y="0" width="100" height="100"/>
		</g>
	</g>
	<g transform="translate(310,372) scale(0.31,0.31)">
		<g transform="">
			<rect x="0" y="0" width="100" height="100"/>
		</g>
	</g>
	<g transform="translate(341,372) scale(0.31,0.31)">
		<g transform="">
			<rect x="0" y="0" width="100" height="100"/>
		</g>
	</g>
	<g transform="translate(403,372) scale(0.31,0.31)">
		<g transform="">
			<rect x="0" y="0" width="100" height="100"/>
		</g>
	</g>
	<g transform="translate(527,372) scale(0.31,0.31)">
		<g transform="">
			<rect x="0" y="0" width="100" height="100"/>
		</g>
	</g>
	<g transform="translate(589,372) scale(0.31,0.31)">
		<g transform="">
			<rect x="0" y="0" width="100" height="100"/>
		</g>
	</g>
	<g transform="translate(806,372) scale(0.31,0.31)">
		<g transform="">
			<rect x="0" y="0" width="100" height="100"/>
		</g>
	</g>
	<g transform="translate(837,372) scale(0.31,0.31)">
		<g transform="">
			<rect x="0" y="0" width="100" height="100"/>
		</g>
	</g>
	<g transform="translate(62,403) scale(0.31,0.31)">
		<g transform="">
			<rect x="0" y="0" width="100" height="100"/>
		</g>
	</g>
	<g transform="translate(124,403) scale(0.31,0.31)">
		<g transform="">
			<rect x="0" y="0" width="100" height="100"/>
		</g>
	</g>
	<g transform="translate(155,403) scale(0.31,0.31)">
		<g transform="">
			<rect x="0" y="0" width="100" height="100"/>
		</g>
	</g>
	<g transform="translate(279,403) scale(0.31,0.31)">
		<g transform="">
			<rect x="0" y="0" width="100" height="100"/>
		</g>
	</g>
	<g transform="translate(341,403) scale(0.31,0.31)">
		<g transform="">
			<rect x="0" y="0" width="100" height="100"/>
		</g>
	</g>
	<g transform="translate(372,403) scale(0.31,0.31)">
		<g transform="">
			<rect x="0" y="0" width="100" height="100"/>
		</g>
	</g>
	<g transform="translate(434,403) scale(0.31,0.31)">
		<g transform="">
			<rect x="0" y="0" width="100" height="100"/>
		</g>
	</g>
	<g transform="translate(558,403) scale(0.31,0.31)">
		<g transform="">
			<rect x="0" y="0" width="100" height="100"/>
		</g>
	</g>
	<g transform="translate(589,403) scale(0.31,0.31)">
		<g transform="">
			<rect x="0" y="0" width="100" height="100"/>
		</g>
	</g>
	<g transform="translate(620,403) scale(0.31,0.31)">
		<g transform="">
			<rect x="0" y="0" width="100" height="100"/>
		</g>
	</g>
	<g transform="translate(713,403) scale(0.31,0.31)">
		<g transform="">
			<rect x="0" y="0" width="100" height="100"/>
		</g>
	</g>
	<g transform="translate(775,403) scale(0.31,0.31)">
		<g transform="">
			<rect x="0" y="0" width="100" height="100"/>
		</g>
	</g>
	<g transform="translate(31,434) scale(0.31,0.31)">
		<g transform="">
			<rect x="0" y="0" width="100" height="100"/>
		</g>
	</g>
	<g transform="translate(93,434) scale(0.31,0.31)">
		<g transform="">
			<rect x="0" y="0" width="100" height="100"/>
		</g>
	</g>
	<g transform="translate(124,434) scale(0.31,0.31)">
		<g transform="">
			<rect x="0" y="0" width="100" height="100"/>
		</g>
	</g>
	<g transform="translate(186,434) scale(0.31,0.31)">
		<g transform="">
			<rect x="0" y="0" width="100" height="100"/>
		</g>
	</g>
	<g transform="translate(279,434) scale(0.31,0.31)">
		<g transform="">
			<rect x="0" y="0" width="100" height="100"/>
		</g>
	</g>
	<g transform="translate(403,434) scale(0.31,0.31)">
		<g transform="">
			<rect x="0" y="0" width="100" height="100"/>
		</g>
	</g>
	<g transform="translate(434,434) scale(0.31,0.31)">
		<g transform="">
			<rect x="0" y="0" width="100" height="100"/>
		</g>
	</g>
	<g transform="translate(465,434) scale(0.31,0.31)">
		<g transform="">
			<rect x="0" y="0" width="100" height="100"/>
		</g>
	</g>
	<g transform="translate(527,434) scale(0.31,0.31)">
		<g transform="">
			<rect x="0" y="0" width="100" height="100"/>
		</g>
	</g>
	<g transform="translate(558,434) scale(0.31,0.31)">
		<g transform="">
			<rect x="0" y="0" width="100" height="100"/>
		</g>
	</g>
	<g transform="translate(589,434) scale(0.31,0.31)">
		<g transform="">
			<rect x="0" y="0" width="100" height="100"/>
		</g>
	</g>
	<g transform="translate(620,434) scale(0.31,0.31)">
		<g transform="">
			<rect x="0" y="0" width="100" height="100"/>
		</g>
	</g>
	<g transform="translate(682,434) scale(0.31,0.31)">
		<g transform="">
			<rect x="0" y="0" width="100" height="100"/>
		</g>
	</g>
	<g transform="translate(744,434) scale(0.31,0.31)">
		<g transform="">
			<rect x="0" y="0" width="100" height="100"/>
		</g>
	</g>
	<g transform="translate(806,434) scale(0.31,0.31)">
		<g transform="">
			<rect x="0" y="0" width="100" height="100"/>
		</g>
	</g>
	<g transform="translate(899,434) scale(0.31,0.31)">
		<g transform="">
			<rect x="0" y="0" width="100" height="100"/>
		</g>
	</g>
	<g transform="translate(930,434) scale(0.31,0.31)">
		<g transform="">
			<rect x="0" y="0" width="100" height="100"/>
		</g>
	</g>
	<g transform="translate(0,465) scale(0.31,0.31)">
		<g transform="">
			<rect x="0" y="0" width="100" height="100"/>
		</g>
	</g>
	<g transform="translate(62,465) scale(0.31,0.31)">
		<g transform="">
			<rect x="0" y="0" width="100" height="100"/>
		</g>
	</g>
	<g transform="translate(124,465) scale(0.31,0.31)">
		<g transform="">
			<rect x="0" y="0" width="100" height="100"/>
		</g>
	</g>
	<g transform="translate(155,465) scale(0.31,0.31)">
		<g transform="">
			<rect x="0" y="0" width="100" height="100"/>
		</g>
	</g>
	<g transform="translate(217,465) scale(0.31,0.31)">
		<g transform="">
			<rect x="0" y="0" width="100" height="100"/>
		</g>
	</g>
	<g transform="translate(248,465) scale(0.31,0.31)">
		<g transform="">
			<rect x="0" y="0" width="100" height="100"/>
		</g>
	</g>
	<g transform="translate(310,465) scale(0.31,0.31)">
		<g transform="">
			<rect x="0" y="0" width="100" height="100"/>
		</g>
	</g>
	<g transform="translate(403,465) scale(0.31,0.31)">
		<g transform="">
			<rect x="0" y="0" width="100" height="100"/>
		</g>
	</g>
	<g transform="translate(496,465) scale(0.31,0.31)">
		<g transform="">
			<rect x="0" y="0" width="100" height="100"/>
		</g>
	</g>
	<g transform="translate(620,465) scale(0.31,0.31)">
		<g transform="">
			<rect x="0" y="0" width="100" height="100"/>
		</g>
	</g>
	<g transform="translate(713,465) scale(0.31,0.31)">
		<g transform="">
			<rect x="0" y="0" width="100" height="100"/>
		</g>
	</g>
	<g transform="translate(775,465) scale(0.31,0.31)">
		<g transform="">
			<rect x="0" y="0" width="100" height="100"/>
		</g>
	</g>
	<g transform="translate(868,465) scale(0.31,0.31)">
		<g transform="">
			<rect x="0" y="0" width="100" height="100"/>
		</g>
	</g>
	<g transform="translate(899,465) scale(0.31,0.31)">
		<g transform="">
			<rect x="0" y="0" width="100" height="100"/>
		</g>
	</g>
	<g transform="translate(930,465) scale(0.31,0.31)">
		<g transform="">
			<rect x="0" y="0" width="100" height="100"/>
		</g>
	</g>
	<g transform="translate(992,465) scale(0.31,0.31)">
		<g transform="">
			<rect x="0" y="0" width="100" height="100"/>
		</g>
	</g>
	<g transform="translate(93,496) scale(0.31,0.31)">
		<g transform="">
			<rect x="0" y="0" width="100" height="100"/>
		</g>
	</g>
	<g transform="translate(155,496) scale(0.31,0.31)">
		<g transform="">
			<rect x="0" y="0" width="100" height="100"/>
		</g>
	</g>
	<g transform="translate(186,496) scale(0.31,0.31)">
		<g transform="">
			<rect x="0" y="0" width="100" height="100"/>
		</g>
	</g>
	<g transform="translate(217,496) scale(0.31,0.31)">
		<g transform="">
			<rect x="0" y="0" width="100" height="100"/>
		</g>
	</g>
	<g transform="translate(248,496) scale(0.31,0.31)">
		<g transform="">
			<rect x="0" y="0" width="100" height="100"/>
		</g>
	</g>
	<g transform="translate(310,496) scale(0.31,0.31)">
		<g transform="">
			<rect x="0" y="0" width="100" height="100"/>
		</g>
	</g>
	<g transform="translate(403,496) scale(0.31,0.31)">
		<g transform="">
			<rect x="0" y="0" width="100" height="100"/>
		</g>
	</g>
	<g transform="translate(465,496) scale(0.31,0.31)">
		<g transform="">
			<rect x="0" y="0" width="100" height="100"/>
		</g>
	</g>
	<g transform="translate(620,496) scale(0.31,0.31)">
		<g transform="">
			<rect x="0" y="0" width="100" height="100"/>
		</g>
	</g>
	<g transform="translate(682,496) scale(0.31,0.31)">
		<g transform="">
			<rect x="0" y="0" width="100" height="100"/>
		</g>
	</g>
	<g transform="translate(744,496) scale(0.31,0.31)">
		<g transform="">
			<rect x="0" y="0" width="100" height="100"/>
		</g>
	</g>
	<g transform="translate(775,496) scale(0.31,0.31)">
		<g transform="">
			<rect x="0" y="0" width="100" height="100"/>
		</g>
	</g>
	<g transform="translate(806,496) scale(0.31,0.31)">
		<g transform="">
			<rect x="0" y="0" width="100" height="100"/>
		</g>
	</g>
	<g transform="translate(837,496) scale(0.31,0.31)">
		<g transform="">
			<rect x="0" y="0" width="100" height="100"/>
		</g>
	</g>
	<g transform="translate(868,496) scale(0.31,0.31)">
		<g transform="">
			<rect x="0" y="0" width="100" height="100"/>
		</g>
	</g>
	<g transform="translate(899,496) scale(0.31,0.31)">
		<g transform="">
			<rect x="0" y="0" width="100" height="100"/>
		</g>
	</g>
	<g transform="translate(0,527) scale(0.31,0.31)">
		<g transform="">
			<rect x="0" y="0" width="100" height="100"/>
		</g>
	</g>
	<g transform="translate(31,527) scale(0.31,0.31)">
		<g transform="">
			<rect x="0" y="0" width="100" height="100"/>
		</g>
	</g>
	<g transform="translate(62,527) scale(0.31,0.31)">
		<g transform="">
			<rect x="0" y="0" width="100" height="100"/>
		</g>
	</g>
	<g transform="translate(155,527) scale(0.31,0.31)">
		<g transform="">
			<rect x="0" y="0" width="100" height="100"/>
		</g>
	</g>
	<g transform="translate(279,527) scale(0.31,0.31)">
		<g transform="">
			<rect x="0" y="0" width="100" height="100"/>
		</g>
	</g>
	<g transform="translate(372,527) scale(0.31,0.31)">
		<g transform="">
			<rect x="0" y="0" width="100" height="100"/>
		</g>
	</g>
	<g transform="translate(403,527) scale(0.31,0.31)">
		<g transform="">
			<rect x="0" y="0" width="100" height="100"/>
		</g>
	</g>
	<g transform="translate(465,527) scale(0.31,0.31)">
		<g transform="">
			<rect x="0" y="0" width="100" height="100"/>
		</g>
	</g>
	<g transform="translate(527,527) scale(0.31,0.31)">
		<g transform="">
			<rect x="0" y="0" width="100" height="100"/>
		</g>
	</g>
	<g transform="translate(558,527) scale(0.31,0.31)">
		<g transform="">
			<rect x="0" y="0" width="100" height="100"/>
		</g>
	</g>
	<g transform="translate(589,527) scale(0.31,0.31)">
		<g transform="">
			<rect x="0" y="0" width="100" height="100"/>
		</g>
	</g>
	<g transform="translate(620,527) scale(0.31,0.31)">
		<g transform="">
			<rect x="0" y="0" width="100" height="100"/>
		</g>
	</g>
	<g transform="translate(744,527) scale(0.31,0.31)">
		<g transform="">
			<rect x="0" y="0" width="100" height="100"/>
		</g>
	</g>
	<g transform="translate(775,527) scale(0.31,0.31)">
		<g transform="">
			<rect x="0" y="0" width="100" height="100"/>
		</g>
	</g>
	<g transform="translate(806,527) scale(0.31,0.31)">
		<g transform="">
			<rect x="0" y="0" width="100" height="100"/>
		</g>
	</g>
	<g transform="translate(868,527) scale(0.31,0.31)">
		<g transform="">
			<rect x="0" y="0" width="100" height="100"/>
		</g>
	</g>
	<g transform="translate(930,527) scale(0.31,0.31)">
		<g transform="">
			<rect x="0" y="0" width="100" height="100"/>
		</g>
	</g>
	<g transform="translate(992,527) scale(0.31,0.31)">
		<g transform="">
			<rect x="0" y="0" width="100" height="100"/>
		</g>
	</g>
	<g transform="translate(31,558) scale(0.31,0.31)">
		<g transform="">
			<rect x="0" y="0" width="100" height="100"/>
		</g>
	</g>
	<g transform="translate(62,558) scale(0.31,0.31)">
		<g transform="">
			<rect x="0" y="0" width="100" height="100"/>
		</g>
	</g>
	<g transform="translate(93,558) scale(0.31,0.31)">
		<g transform="">
			<rect x="0" y="0" width="100" height="100"/>
		</g>
	</g>
	<g transform="translate(124,558) scale(0.31,0.31)">
		<g transform="">
			<rect x="0" y="0" width="100" height="100"/>
		</g>
	</g>
	<g transform="translate(155,558) scale(0.31,0.31)">
		<g transform="">
			<rect x="0" y="0" width="100" height="100"/>
		</g>
	</g>
	<g transform="translate(186,558) scale(0.31,0.31)">
		<g transform="">
			<rect x="0" y="0" width="100" height="100"/>
		</g>
	</g>
	<g transform="translate(217,558) scale(0.31,0.31)">
		<g transform="">
			<rect x="0" y="0" width="100" height="100"/>
		</g>
	</g>
	<g transform="translate(248,558) scale(0.31,0.31)">
		<g transform="">
			<rect x="0" y="0" width="100" height="100"/>
		</g>
	</g>
	<g transform="translate(279,558) scale(0.31,0.31)">
		<g transform="">
			<rect x="0" y="0" width="100" height="100"/>
		</g>
	</g>
	<g transform="translate(310,558) scale(0.31,0.31)">
		<g transform="">
			<rect x="0" y="0" width="100" height="100"/>
		</g>
	</g>
	<g transform="translate(372,558) scale(0.31,0.31)">
		<g transform="">
			<rect x="0" y="0" width="100" height="100"/>
		</g>
	</g>
	<g transform="translate(403,558) scale(0.31,0.31)">
		<g transform="">
			<rect x="0" y="0" width="100" height="100"/>
		</g>
	</g>
	<g transform="translate(465,558) scale(0.31,0.31)">
		<g transform="">
			<rect x="0" y="0" width="100" height="100"/>
		</g>
	</g>
	<g transform="translate(527,558) scale(0.31,0.31)">
		<g transform="">
			<rect x="0" y="0" width="100" height="100"/>
		</g>
	</g>
	<g transform="translate(558,558) scale(0.31,0.31)">
		<g transform="">
			<rect x="0" y="0" width="100" height="100"/>
		</g>
	</g>
	<g transform="translate(589,558) scale(0.31,0.31)">
		<g transform="">
			<rect x="0" y="0" width="100" height="100"/>
		</g>
	</g>
	<g transform="translate(620,558) scale(0.31,0.31)">
		<g transform="">
			<rect x="0" y="0" width="100" height="100"/>
		</g>
	</g>
	<g transform="translate(682,558) scale(0.31,0.31)">
		<g transform="">
			<rect x="0" y="0" width="100" height="100"/>
		</g>
	</g>
	<g transform="translate(713,558) scale(0.31,0.31)">
		<g transform="">
			<rect x="0" y="0" width="100" height="100"/>
		</g>
	</g>
	<g transform="translate(806,558) scale(0.31,0.31)">
		<g transform="">
			<rect x="0" y="0" width="100" height="100"/>
		</g>
	</g>
	<g transform="translate(837,558) scale(0.31,0.31)">
		<g transform="">
			<rect x="0" y="0" width="100" height="100"/>
		</g>
	</g>
	<g transform="translate(899,558) scale(0.31,0.31)">
		<g transform="">
			<rect x="0" y="0" width="100" height="100"/>
		</g>
	</g>
	<g transform="translate(930,558) scale(0.31,0.31)">
		<g transform="">
			<rect x="0" y="0" width="100" height="100"/>
		</g>
	</g>
	<g transform="translate(961,558) scale(0.31,0.31)">
		<g transform="">
			<rect x="0" y="0" width="100" height="100"/>
		</g>
	</g>
	<g transform="translate(992,558) scale(0.31,0.31)">
		<g transform="">
			<rect x="0" y="0" width="100" height="100"/>
		</g>
	</g>
	<g transform="translate(0,589) scale(0.31,0.31)">
		<g transform="">
			<rect x="0" y="0" width="100" height="100"/>
		</g>
	</g>
	<g transform="translate(155,589) scale(0.31,0.31)">
		<g transform="">
			<rect x="0" y="0" width="100" height="100"/>
		</g>
	</g>
	<g transform="translate(279,589) scale(0.31,0.31)">
		<g transform="">
			<rect x="0" y="0" width="100" height="100"/>
		</g>
	</g>
	<g transform="translate(341,589) scale(0.31,0.31)">
		<g transform="">
			<rect x="0" y="0" width="100" height="100"/>
		</g>
	</g>
	<g transform="translate(465,589) scale(0.31,0.31)">
		<g transform="">
			<rect x="0" y="0" width="100" height="100"/>
		</g>
	</g>
	<g transform="translate(496,589) scale(0.31,0.31)">
		<g transform="">
			<rect x="0" y="0" width="100" height="100"/>
		</g>
	</g>
	<g transform="translate(620,589) scale(0.31,0.31)">
		<g transform="">
			<rect x="0" y="0" width="100" height="100"/>
		</g>
	</g>
	<g transform="translate(682,589) scale(0.31,0.31)">
		<g transform="">
			<rect x="0" y="0" width="100" height="100"/>
		</g>
	</g>
	<g transform="translate(713,589) scale(0.31,0.31)">
		<g transform="">
			<rect x="0" y="0" width="100" height="100"/>
		</g>
	</g>
	<g transform="translate(775,589) scale(0.31,0.31)">
		<g transform="">
			<rect x="0" y="0" width="100" height="100"/>
		</g>
	</g>
	<g transform="translate(868,589) scale(0.31,0.31)">
		<g transform="">
			<rect x="0" y="0" width="100" height="100"/>
		</g>
	</g>
	<g transform="translate(899,589) scale(0.31,0.31)">
		<g transform="">
			<rect x="0" y="0" width="100" height="100"/>
		</g>
	</g>
	<g transform="translate(930,589) scale(0.31,0.31)">
		<g transform="">
			<rect x="0" y="0" width="100" height="100"/>
		</g>
	</g>
	<g transform="translate(31,620) scale(0.31,0.31)">
		<g transform="">
			<rect x="0" y="0" width="100" height="100"/>
		</g>
	</g>
	<g transform="translate(62,620) scale(0.31,0.31)">
		<g transform="">
			<rect x="0" y="0" width="100" height="100"/>
		</g>
	</g>
	<g transform="translate(124,620) scale(0.31,0.31)">
		<g transform="">
			<rect x="0" y="0" width="100" height="100"/>
		</g>
	</g>
	<g transform="translate(186,620) scale(0.31,0.31)">
		<g transform="">
			<rect x="0" y="0" width="100" height="100"/>
		</g>
	</g>
	<g transform="translate(248,620) scale(0.31,0.31)">
		<g transform="">
			<rect x="0" y="0" width="100" height="100"/>
		</g>
	</g>
	<g transform="translate(310,620) scale(0.31,0.31)">
		<g transform="">
			<rect x="0" y="0" width="100" height="100"/>
		</g>
	</g>
	<g transform="translate(341,620) scale(0.31,0.31)">
		<g transform="">
			<rect x="0" y="0" width="100" height="100"/>
		</g>
	</g>
	<g transform="translate(465,620) scale(0.31,0.31)">
		<g transform="">
			<rect x="0" y="0" width="100" height="100"/>
		</g>
	</g>
	<g transform="translate(496,620) scale(0.31,0.31)">
		<g transform="">
			<rect x="0" y="0" width="100" height="100"/>
		</g>
	</g>
	<g transform="translate(558,620) scale(0.31,0.31)">
		<g transform="">
			<rect x="0" y="0" width="100" height="100"/>
		</g>
	</g>
	<g transform="translate(589,620) scale(0.31,0.31)">
		<g transform="">
			<rect x="0" y="0" width="100" height="100"/>
		</g>
	</g>
	<g transform="translate(744,620) scale(0.31,0.31)">
		<g transform="">
			<rect x="0" y="0" width="100" height="100"/>
		</g>
	</g>
	<g transform="translate(899,620) scale(0.31,0.31)">
		<g transform="">
			<rect x="0" y="0" width="100" height="100"/>
		</g>
	</g>
	<g transform="translate(961,620) scale(0.31,0.31)">
		<g transform="">
			<rect x="0" y="0" width="100" height="100"/>
		</g>
	</g>
	<g transform="translate(0,651) scale(0.31,0.31)">
		<g transform="">
			<rect x="0" y="0" width="100" height="100"/>
		</g>
	</g>
	<g transform="translate(62,651) scale(0.31,0.31)">
		<g transform="">
			<rect x="0" y="0" width="100" height="100"/>
		</g>
	</g>
	<g transform="translate(155,651) scale(0.31,0.31)">
		<g transform="">
			<rect x="0" y="0" width="100" height="100"/>
		</g>
	</g>
	<g transform="translate(248,651) scale(0.31,0.31)">
		<g transform="">
			<rect x="0" y="0" width="100" height="100"/>
		</g>
	</g>
	<g transform="translate(310,651) scale(0.31,0.31)">
		<g transform="">
			<rect x="0" y="0" width="100" height="100"/>
		</g>
	</g>
	<g transform="translate(527,651) scale(0.31,0.31)">
		<g transform="">
			<rect x="0" y="0" width="100" height="100"/>
		</g>
	</g>
	<g transform="translate(682,651) scale(0.31,0.31)">
		<g transform="">
			<rect x="0" y="0" width="100" height="100"/>
		</g>
	</g>
	<g transform="translate(713,651) scale(0.31,0.31)">
		<g transform="">
			<rect x="0" y="0" width="100" height="100"/>
		</g>
	</g>
	<g transform="translate(744,651) scale(0.31,0.31)">
		<g transform="">
			<rect x="0" y="0" width="100" height="100"/>
		</g>
	</g>
	<g transform="translate(837,651) scale(0.31,0.31)">
		<g transform="">
			<rect x="0" y="0" width="100" height="100"/>
		</g>
	</g>
	<g transform="translate(868,651) scale(0.31,0.31)">
		<g transform="">
			<rect x="0" y="0" width="100" height="100"/>
		</g>
	</g>
	<g transform="translate(899,651) scale(0.31,0.31)">
		<g transform="">
			<rect x="0" y="0" width="100" height="100"/>
		</g>
	</g>
	<g transform="translate(0,682) scale(0.31,0.31)">
		<g transform="">
			<rect x="0" y="0" width="100" height="100"/>
		</g>
	</g>
	<g transform="translate(186,682) scale(0.31,0.31)">
		<g transform="">
			<rect x="0" y="0" width="100" height="100"/>
		</g>
	</g>
	<g transform="translate(217,682) scale(0.31,0.31)">
		<g transform="">
			<rect x="0" y="0" width="100" height="100"/>
		</g>
	</g>
	<g transform="translate(341,682) scale(0.31,0.31)">
		<g transform="">
			<rect x="0" y="0" width="100" height="100"/>
		</g>
	</g>
	<g transform="translate(372,682) scale(0.31,0.31)">
		<g transform="">
			<rect x="0" y="0" width="100" height="100"/>
		</g>
	</g>
	<g transform="translate(403,682) scale(0.31,0.31)">
		<g transform="">
			<rect x="0" y="0" width="100" height="100"/>
		</g>
	</g>
	<g transform="translate(589,682) scale(0.31,0.31)">
		<g transform="">
			<rect x="0" y="0" width="100" height="100"/>
		</g>
	</g>
	<g transform="translate(620,682) scale(0.31,0.31)">
		<g transform="">
			<rect x="0" y="0" width="100" height="100"/>
		</g>
	</g>
	<g transform="translate(651,682) scale(0.31,0.31)">
		<g transform="">
			<rect x="0" y="0" width="100" height="100"/>
		</g>
	</g>
	<g transform="translate(682,682) scale(0.31,0.31)">
		<g transform="">
			<rect x="0" y="0" width="100" height="100"/>
		</g>
	</g>
	<g transform="translate(713,682) scale(0.31,0.31)">
		<g transform="">
			<rect x="0" y="0" width="100" height="100"/>
		</g>
	</g>
	<g transform="translate(744,682) scale(0.31,0.31)">
		<g transform="">
			<rect x="0" y="0" width="100" height="100"/>
		</g>
	</g>
	<g transform="translate(775,682) scale(0.31,0.31)">
		<g transform="">
			<rect x="0" y="0" width="100" height="100"/>
		</g>
	</g>
	<g transform="translate(806,682) scale(0.31,0.31)">
		<g transform="">
			<rect x="0" y="0" width="100" height="100"/>
		</g>
	</g>
	<g transform="translate(961,682) scale(0.31,0.31)">
		<g transform="">
			<rect x="0" y="0" width="100" height="100"/>
		</g>
	</g>
	<g transform="translate(992,682) scale(0.31,0.31)">
		<g transform="">
			<rect x="0" y="0" width="100" height="100"/>
		</g>
	</g>
	<g transform="translate(0,713) scale(0.31,0.31)">
		<g transform="">
			<rect x="0" y="0" width="100" height="100"/>
		</g>
	</g>
	<g transform="translate(93,713) scale(0.31,0.31)">
		<g transform="">
			<rect x="0" y="0" width="100" height="100"/>
		</g>
	</g>
	<g transform="translate(124,713) scale(0.31,0.31)">
		<g transform="">
			<rect x="0" y="0" width="100" height="100"/>
		</g>
	</g>
	<g transform="translate(310,713) scale(0.31,0.31)">
		<g transform="">
			<rect x="0" y="0" width="100" height="100"/>
		</g>
	</g>
	<g transform="translate(434,713) scale(0.31,0.31)">
		<g transform="">
			<rect x="0" y="0" width="100" height="100"/>
		</g>
	</g>
	<g transform="translate(465,713) scale(0.31,0.31)">
		<g transform="">
			<rect x="0" y="0" width="100" height="100"/>
		</g>
	</g>
	<g transform="translate(527,713) scale(0.31,0.31)">
		<g transform="">
			<rect x="0" y="0" width="100" height="100"/>
		</g>
	</g>
	<g transform="translate(589,713) scale(0.31,0.31)">
		<g transform="">
			<rect x="0" y="0" width="100" height="100"/>
		</g>
	</g>
	<g transform="translate(620,713) scale(0.31,0.31)">
		<g transform="">
			<rect x="0" y="0" width="100" height="100"/>
		</g>
	</g>
	<g transform="translate(682,713) scale(0.31,0.31)">
		<g transform="">
			<rect x="0" y="0" width="100" height="100"/>
		</g>
	</g>
	<g transform="translate(744,713) scale(0.31,0.31)">
		<g transform="">
			<rect x="0" y="0" width="100" height="100"/>
		</g>
	</g>
	<g transform="translate(775,713) scale(0.31,0.31)">
		<g transform="">
			<rect x="0" y="0" width="100" height="100"/>
		</g>
	</g>
	<g transform="translate(806,713) scale(0.31,0.31)">
		<g transform="">
			<rect x="0" y="0" width="100" height="100"/>
		</g>
	</g>
	<g transform="translate(930,713) scale(0.31,0.31)">
		<g transform="">
			<rect x="0" y="0" width="100" height="100"/>
		</g>
	</g>
	<g transform="translate(961,713) scale(0.31,0.31)">
		<g transform="">
			<rect x="0" y="0" width="100" height="100"/>
		</g>
	</g>
	<g transform="translate(0,744) scale(0.31,0.31)">
		<g transform="">
			<rect x="0" y="0" width="100" height="100"/>
		</g>
	</g>
	<g transform="translate(31,744) scale(0.31,0.31)">
		<g transform="">
			<rect x="0" y="0" width="100" height="100"/>
		</g>
	</g>
	<g transform="translate(124,744) scale(0.31,0.31)">
		<g transform="">
			<rect x="0" y="0" width="100" height="100"/>
		</g>
	</g>
	<g transform="translate(186,744) scale(0.31,0.31)">
		<g transform="">
			<rect x="0" y="0" width="100" height="100"/>
		</g>
	</g>
	<g transform="translate(248,744) scale(0.31,0.31)">
		<g transform="">
			<rect x="0" y="0" width="100" height="100"/>
		</g>
	</g>
	<g transform="translate(279,744) scale(0.31,0.31)">
		<g transform="">
			<rect x="0" y="0" width="100" height="100"/>
		</g>
	</g>
	<g transform="translate(310,744) scale(0.31,0.31)">
		<g transform="">
			<rect x="0" y="0" width="100" height="100"/>
		</g>
	</g>
	<g transform="translate(341,744) scale(0.31,0.31)">
		<g transform="">
			<rect x="0" y="0" width="100" height="100"/>
		</g>
	</g>
	<g transform="translate(372,744) scale(0.31,0.31)">
		<g transform="">
			<rect x="0" y="0" width="100" height="100"/>
		</g>
	</g>
	<g transform="translate(403,744) scale(0.31,0.31)">
		<g transform="">
			<rect x="0" y="0" width="100" height="100"/>
		</g>
	</g>
	<g transform="translate(713,744) scale(0.31,0.31)">
		<g transform="">
			<rect x="0" y="0" width="100" height="100"/>
		</g>
	</g>
	<g transform="translate(744,744) scale(0.31,0.31)">
		<g transform="">
			<rect x="0" y="0" width="100" height="100"/>
		</g>
	</g>
	<g transform="translate(775,744) scale(0.31,0.31)">
		<g transform="">
			<rect x="0" y="0" width="100" height="100"/>
		</g>
	</g>
	<g transform="translate(806,744) scale(0.31,0.31)">
		<g transform="">
			<rect x="0" y="0" width="100" height="100"/>
		</g>
	</g>
	<g transform="translate(837,744) scale(0.31,0.31)">
		<g transform="">
			<rect x="0" y="0" width="100" height="100"/>
		</g>
	</g>
	<g transform="translate(868,744) scale(0.31,0.31)">
		<g transform="">
			<rect x="0" y="0" width="100" height="100"/>
		</g>
	</g>
	<g transform="translate(899,744) scale(0.31,0.31)">
		<g transform="">
			<rect x="0" y="0" width="100" height="100"/>
		</g>
	</g>
	<g transform="translate(961,744) scale(0.31,0.31)">
		<g transform="">
			<rect x="0" y="0" width="100" height="100"/>
		</g>
	</g>
	<g transform="translate(992,744) scale(0.31,0.31)">
		<g transform="">
			<rect x="0" y="0" width="100" height="100"/>
		</g>
	</g>
	<g transform="translate(248,775) scale(0.31,0.31)">
		<g transform="">
			<rect x="0" y="0" width="100" height="100"/>
		</g>
	</g>
	<g transform="translate(310,775) scale(0.31,0.31)">
		<g transform="">
			<rect x="0" y="0" width="100" height="100"/>
		</g>
	</g>
	<g transform="translate(372,775) scale(0.31,0.31)">
		<g transform="">
			<rect x="0" y="0" width="100" height="100"/>
		</g>
	</g>
	<g transform="translate(465,775) scale(0.31,0.31)">
		<g transform="">
			<rect x="0" y="0" width="100" height="100"/>
		</g>
	</g>
	<g transform="translate(496,775) scale(0.31,0.31)">
		<g transform="">
			<rect x="0" y="0" width="100" height="100"/>
		</g>
	</g>
	<g transform="translate(527,775) scale(0.31,0.31)">
		<g transform="">
			<rect x="0" y="0" width="100" height="100"/>
		</g>
	</g>
	<g transform="translate(558,775) scale(0.31,0.31)">
		<g transform="">
			<rect x="0" y="0" width="100" height="100"/>
		</g>
	</g>
	<g transform="translate(713,775) scale(0.31,0.31)">
		<g transform="">
			<rect x="0" y="0" width="100" height="100"/>
		</g>
	</g>
	<g transform="translate(744,775) scale(0.31,0.31)">
		<g transform="">
			<rect x="0" y="0" width="100" height="100"/>
		</g>
	</g>
	<g transform="translate(868,775) scale(0.31,0.31)">
		<g transform="">
			<rect x="0" y="0" width="100" height="100"/>
		</g>
	</g>
	<g transform="translate(930,775) scale(0.31,0.31)">
		<g transform="">
			<rect x="0" y="0" width="100" height="100"/>
		</g>
	</g>
	<g transform="translate(248,806) scale(0.31,0.31)">
		<g transform="">
			<rect x="0" y="0" width="100" height="100"/>
		</g>
	</g>
	<g transform="translate(279,806) scale(0.31,0.31)">
		<g transform="">
			<rect x="0" y="0" width="100" height="100"/>
		</g>
	</g>
	<g transform="translate(341,806) scale(0.31,0.31)">
		<g transform="">
			<rect x="0" y="0" width="100" height="100"/>
		</g>
	</g>
	<g transform="translate(372,806) scale(0.31,0.31)">
		<g transform="">
			<rect x="0" y="0" width="100" height="100"/>
		</g>
	</g>
	<g transform="translate(465,806) scale(0.31,0.31)">
		<g transform="">
			<rect x="0" y="0" width="100" height="100"/>
		</g>
	</g>
	<g transform="translate(527,806) scale(0.31,0.31)">
		<g transform="">
			<rect x="0" y="0" width="100" height="100"/>
		</g>
	</g>
	<g transform="translate(589,806) scale(0.31,0.31)">
		<g transform="">
			<rect x="0" y="0" width="100" height="100"/>
		</g>
	</g>
	<g transform="translate(620,806) scale(0.31,0.31)">
		<g transform="">
			<rect x="0" y="0" width="100" height="100"/>
		</g>
	</g>
	<g transform="translate(651,806) scale(0.31,0.31)">
		<g transform="">
			<rect x="0" y="0" width="100" height="100"/>
		</g>
	</g>
	<g transform="translate(713,806) scale(0.31,0.31)">
		<g transform="">
			<rect x="0" y="0" width="100" height="100"/>
		</g>
	</g>
	<g transform="translate(744,806) scale(0.31,0.31)">
		<g transform="">
			<rect x="0" y="0" width="100" height="100"/>
		</g>
	</g>
	<g transform="translate(806,806) scale(0.31,0.31)">
		<g transform="">
			<rect x="0" y="0" width="100" height="100"/>
		</g>
	</g>
	<g transform="translate(868,806) scale(0.31,0.31)">
		<g transform="">
			<rect x="0" y="0" width="100" height="100"/>
		</g>
	</g>
	<g transform="translate(930,806) scale(0.31,0.31)">
		<g transform="">
			<rect x="0" y="0" width="100" height="100"/>
		</g>
	</g>
	<g transform="translate(248,837) scale(0.31,0.31)">
		<g transform="">
			<rect x="0" y="0" width="100" height="100"/>
		</g>
	</g>
	<g transform="translate(403,837) scale(0.31,0.31)">
		<g transform="">
			<rect x="0" y="0" width="100" height="100"/>
		</g>
	</g>
	<g transform="translate(465,837) scale(0.31,0.31)">
		<g transform="">
			<rect x="0" y="0" width="100" height="100"/>
		</g>
	</g>
	<g transform="translate(527,837) scale(0.31,0.31)">
		<g transform="">
			<rect x="0" y="0" width="100" height="100"/>
		</g>
	</g>
	<g transform="translate(558,837) scale(0.31,0.31)">
		<g transform="">
			<rect x="0" y="0" width="100" height="100"/>
		</g>
	</g>
	<g transform="translate(589,837) scale(0.31,0.31)">
		<g transform="">
			<rect x="0" y="0" width="100" height="100"/>
		</g>
	</g>
	<g transform="translate(713,837) scale(0.31,0.31)">
		<g transform="">
			<rect x="0" y="0" width="100" height="100"/>
		</g>
	</g>
	<g transform="translate(744,837) scale(0.31,0.31)">
		<g transform="">
			<rect x="0" y="0" width="100" height="100"/>
		</g>
	</g>
	<g transform="translate(868,837) scale(0.31,0.31)">
		<g transform="">
			<rect x="0" y="0" width="100" height="100"/>
		</g>
	</g>
	<g transform="translate(899,837) scale(0.31,0.31)">
		<g transform="">
			<rect x="0" y="0" width="100" height="100"/>
		</g>
	</g>
	<g transform="translate(930,837) scale(0.31,0.31)">
		<g transform="">
			<rect x="0" y="0" width="100" height="100"/>
		</g>
	</g>
	<g transform="translate(992,837) scale(0.31,0.31)">
		<g transform="">
			<rect x="0" y="0" width="100" height="100"/>
		</g>
	</g>
	<g transform="translate(248,868) scale(0.31,0.31)">
		<g transform="">
			<rect x="0" y="0" width="100" height="100"/>
		</g>
	</g>
	<g transform="translate(372,868) scale(0.31,0.31)">
		<g transform="">
			<rect x="0" y="0" width="100" height="100"/>
		</g>
	</g>
	<g transform="translate(496,868) scale(0.31,0.31)">
		<g transform="">
			<rect x="0" y="0" width="100" height="100"/>
		</g>
	</g>
	<g transform="translate(527,868) scale(0.31,0.31)">
		<g transform="">
			<rect x="0" y="0" width="100" height="100"/>
		</g>
	</g>
	<g transform="translate(620,868) scale(0.31,0.31)">
		<g transform="">
			<rect x="0" y="0" width="100" height="100"/>
		</g>
	</g>
	<g transform="translate(713,868) scale(0.31,0.31)">
		<g transform="">
			<rect x="0" y="0" width="100" height="100"/>
		</g>
	</g>
	<g transform="translate(744,868) scale(0.31,0.31)">
		<g transform="">
			<rect x="0" y="0" width="100" height="100"/>
		</g>
	</g>
	<g transform="translate(775,868) scale(0.31,0.31)">
		<g transform="">
			<rect x="0" y="0" width="100" height="100"/>
		</g>
	</g>
	<g transform="translate(806,868) scale(0.31,0.31)">
		<g transform="">
			<rect x="0" y="0" width="100" height="100"/>
		</g>
	</g>
	<g transform="translate(837,868) scale(0.31,0.31)">
		<g transform="">
			<rect x="0" y="0" width="100" height="100"/>
		</g>
	</g>
	<g transform="translate(868,868) scale(0.31,0.31)">
		<g transform="">
			<rect x="0" y="0" width="100" height="100"/>
		</g>
	</g>
	<g transform="translate(961,868) scale(0.31,0.31)">
		<g transform="">
			<rect x="0" y="0" width="100" height="100"/>
		</g>
	</g>
	<g transform="translate(992,868) scale(0.31,0.31)">
		<g transform="">
			<rect x="0" y="0" width="100" height="100"/>
		</g>
	</g>
	<g transform="translate(248,899) scale(0.31,0.31)">
		<g transform="">
			<rect x="0" y="0" width="100" height="100"/>
		</g>
	</g>
	<g transform="translate(403,899) scale(0.31,0.31)">
		<g transform="">
			<rect x="0" y="0" width="100" height="100"/>
		</g>
	</g>
	<g transform="translate(434,899) scale(0.31,0.31)">
		<g transform="">
			<rect x="0" y="0" width="100" height="100"/>
		</g>
	</g>
	<g transform="translate(496,899) scale(0.31,0.31)">
		<g transform="">
			<rect x="0" y="0" width="100" height="100"/>
		</g>
	</g>
	<g transform="translate(558,899) scale(0.31,0.31)">
		<g transform="">
			<rect x="0" y="0" width="100" height="100"/>
		</g>
	</g>
	<g transform="translate(682,899) scale(0.31,0.31)">
		<g transform="">
			<rect x="0" y="0" width="100" height="100"/>
		</g>
	</g>
	<g transform="translate(775,899) scale(0.31,0.31)">
		<g transform="">
			<rect x="0" y="0" width="100" height="100"/>
		</g>
	</g>
	<g transform="translate(837,899) scale(0.31,0.31)">
		<g transform="">
			<rect x="0" y="0" width="100" height="100"/>
		</g>
	</g>
	<g transform="translate(930,899) scale(0.31,0.31)">
		<g transform="">
			<rect x="0" y="0" width="100" height="100"/>
		</g>
	</g>
	<g transform="translate(961,899) scale(0.31,0.31)">
		<g transform="">
			<rect x="0" y="0" width="100" height="100"/>
		</g>
	</g>
	<g transform="translate(992,899) scale(0.31,0.31)">
		<g transform="">
			<rect x="0" y="0" width="100" height="100"/>
		</g>
	</g>
	<g transform="translate(310,930) scale(0.31,0.31)">
		<g transform="">
			<rect x="0" y="0" width="100" height="100"/>
		</g>
	</g>
	<g transform="translate(341,930) scale(0.31,0.31)">
		<g transform="">
			<rect x="0" y="0" width="100" height="100"/>
		</g>
	</g>
	<g transform="translate(465,930) scale(0.31,0.31)">
		<g transform="">
			<rect x="0" y="0" width="100" height="100"/>
		</g>
	</g>
	<g transform="translate(527,930) scale(0.31,0.31)">
		<g transform="">
			<rect x="0" y="0" width="100" height="100"/>
		</g>
	</g>
	<g transform="translate(589,930) scale(0.31,0.31)">
		<g transform="">
			<rect x="0" y="0" width="100" height="100"/>
		</g>
	</g>
	<g transform="translate(651,930) scale(0.31,0.31)">
		<g transform="">
			<rect x="0" y="0" width="100" height="100"/>
		</g>
	</g>
	<g transform="translate(682,930) scale(0.31,0.31)">
		<g transform="">
			<rect x="0" y="0" width="100" height="100"/>
		</g>
	</g>
	<g transform="translate(744,930) scale(0.31,0.31)">
		<g transform="">
			<rect x="0" y="0" width="100" height="100"/>
		</g>
	</g>
	<g transform="translate(837,930) scale(0.31,0.31)">
		<g transform="">
			<rect x="0" y="0" width="100" height="100"/>
		</g>
	</g>
	<g transform="translate(868,930) scale(0.31,0.31)">
		<g transform="">
			<rect x="0" y="0" width="100" height="100"/>
		</g>
	</g>
	<g transform="translate(961,930) scale(0.31,0.31)">
		<g transform="">
			<rect x="0" y="0" width="100" height="100"/>
		</g>
	</g>
	<g transform="translate(992,930) scale(0.31,0.31)">
		<g transform="">
			<rect x="0" y="0" width="100" height="100"/>
		</g>
	</g>
	<g transform="translate(310,961) scale(0.31,0.31)">
		<g transform="">
			<rect x="0" y="0" width="100" height="100"/>
		</g>
	</g>
	<g transform="translate(434,961) scale(0.31,0.31)">
		<g transform="">
			<rect x="0" y="0" width="100" height="100"/>
		</g>
	</g>
	<g transform="translate(682,961) scale(0.31,0.31)">
		<g transform="">
			<rect x="0" y="0" width="100" height="100"/>
		</g>
	</g>
	<g transform="translate(713,961) scale(0.31,0.31)">
		<g transform="">
			<rect x="0" y="0" width="100" height="100"/>
		</g>
	</g>
	<g transform="translate(837,961) scale(0.31,0.31)">
		<g transform="">
			<rect x="0" y="0" width="100" height="100"/>
		</g>
	</g>
	<g transform="translate(868,961) scale(0.31,0.31)">
		<g transform="">
			<rect x="0" y="0" width="100" height="100"/>
		</g>
	</g>
	<g transform="translate(899,961) scale(0.31,0.31)">
		<g transform="">
			<rect x="0" y="0" width="100" height="100"/>
		</g>
	</g>
	<g transform="translate(930,961) scale(0.31,0.31)">
		<g transform="">
			<rect x="0" y="0" width="100" height="100"/>
		</g>
	</g>
	<g transform="translate(961,961) scale(0.31,0.31)">
		<g transform="">
			<rect x="0" y="0" width="100" height="100"/>
		</g>
	</g>
	<g transform="translate(992,961) scale(0.31,0.31)">
		<g transform="">
			<rect x="0" y="0" width="100" height="100"/>
		</g>
	</g>
	<g transform="translate(248,992) scale(0.31,0.31)">
		<g transform="">
			<rect x="0" width="100" height="100"/>
		</g>
	</g>
	<g transform="translate(279,992) scale(0.31,0.31)">
		<g transform="">
			<rect x="0" width="100" height="100"/>
		</g>
	</g>
	<g transform="translate(341,992) scale(0.31,0.31)">
		<g transform="">
			<rect x="0" width="100" height="100"/>
		</g>
	</g>
	<g transform="translate(403,992) scale(0.31,0.31)">
		<g transform="">
			<rect x="0" width="100" height="100"/>
		</g>
	</g>
	<g transform="translate(434,992) scale(0.31,0.31)">
		<g transform="">
			<rect x="0" width="100" height="100"/>
		</g>
	</g>
	<g transform="translate(465,992) scale(0.31,0.31)">
		<g transform="">
			<rect x="0" width="100" height="100"/>
		</g>
	</g>
	<g transform="translate(496,992) scale(0.31,0.31)">
		<g transform="">
			<rect x="0" width="100" height="100"/>
		</g>
	</g>
	<g transform="translate(527,992) scale(0.31,0.31)">
		<g transform="">
			<rect x="0" width="100" height="100"/>
		</g>
	</g>
	<g transform="translate(558,992) scale(0.31,0.31)">
		<g transform="">
			<rect x="0" width="100" height="100"/>
		</g>
	</g>
	<g transform="translate(713,992) scale(0.31,0.31)">
		<g transform="">
			<rect x="0" width="100" height="100"/>
		</g>
	</g>
	<g transform="translate(744,992) scale(0.31,0.31)">
		<g transform="">
			<rect x="0" width="100" height="100"/>
		</g>
	</g>
	<g transform="translate(806,992) scale(0.31,0.31)">
		<g transform="">
			<rect x="0" width="100" height="100"/>
		</g>
	</g>
	<g transform="translate(837,992) scale(0.31,0.31)">
		<g transform="">
			<rect x="0" width="100" height="100"/>
		</g>
	</g>
	<g transform="translate(868,992) scale(0.31,0.31)">
		<g transform="">
			<rect x="0" width="100" height="100"/>
		</g>
	</g>
	<g transform="translate(0,0) scale(2.1485148514851, 2.1485148514851)">
		<g transform="">
			<g>
				<path class="st0" d="M90.1,71.2c-2.9-1-5.1-3.8-5.1-7.1s2.1-6.1,5.1-7.1c-2.9-1-5.1-3.8-5.1-7.1c0-3.3,2.1-6.1,5.1-7.1
					c-2.9-1-5.1-3.8-5.1-7.1s2.1-6.1,5.1-7.1c-2.9-1-5.1-3.8-5.1-7.1s2.1-6.1,5.1-7.1c-2.2-0.8-3.9-2.5-4.6-4.6
					c-1,2.9-3.8,5.1-7.1,5.1c-3.3,0-6.1-2.1-7.1-5.1c-1,2.9-3.8,5.1-7.1,5.1c-3.3,0-6.1-2.1-7.1-5.1c-1,2.9-3.8,5.1-7.1,5.1
					c-3.3,0-6.1-2.1-7.1-5.1c-1,2.9-3.8,5.1-7.1,5.1s-6.1-2.1-7.1-5.1c-1,2.9-3.8,5.1-7.1,5.1s-6.1-2.1-7.1-5.1
					c-0.8,2.2-2.5,3.9-4.6,4.6c2.9,1,5.1,3.8,5.1,7.1s-2.1,6.1-5.1,7.1c2.9,1,5.1,3.8,5.1,7.1s-2.1,6.1-5.1,7.1
					c2.9,1,5.1,3.8,5.1,7.1c0,3.3-2.1,6.1-5.1,7.1c2.9,1,5.1,3.8,5.1,7.1c0,3.3-2.1,6.1-5.1,7.1c2.9,1,5.1,3.8,5.1,7.1
					c0,3.3-2.1,6.1-5.1,7.1c2.2,0.8,3.9,2.5,4.6,4.6c1-2.9,3.8-5.1,7.1-5.1s6.1,2.1,7.1,5.1c1-2.9,3.8-5.1,7.1-5.1s6.1,2.1,7.1,5.1
					c1-2.9,3.8-5.1,7.1-5.1c3.3,0,6.1,2.1,7.1,5.1c1-2.9,3.8-5.1,7.1-5.1c3.3,0,6.1,2.1,7.1,5.1c1-2.9,3.8-5.1,7.1-5.1
					c3.3,0,6.1,2.1,7.1,5.1c0.8-2.2,2.5-3.9,4.6-4.6c-2.9-1-5.1-3.8-5.1-7.1C85,75,87.1,72.3,90.1,71.2z"/>
				<path d="M100,21.7c0-3.3-2.1-6.1-5.1-7.1c2.9-1,5.1-3.8,5.1-7.1c0-4.1-3.4-7.5-7.5-7.5c-3.3,0-6.1,2.1-7.1,5.1
					c-1-2.9-3.8-5.1-7.1-5.1c-3.3,0-6.1,2.1-7.1,5.1c-1-2.9-3.8-5.1-7.1-5.1c-3.3,0-6.1,2.1-7.1,5.1C56.1,2.1,53.3,0,50,0
					c-3.3,0-6.1,2.1-7.1,5.1c-1-2.9-3.8-5.1-7.1-5.1s-6.1,2.1-7.1,5.1C27.7,2.1,25,0,21.7,0s-6.1,2.1-7.1,5.1C13.6,2.1,10.8,0,7.5,0
					C3.4,0,0,3.4,0,7.5c0,3.3,2.1,6.1,5.1,7.1c-2.9,1-5.1,3.8-5.1,7.1s2.1,6.1,5.1,7.1c-2.9,1-5.1,3.8-5.1,7.1s2.1,6.1,5.1,7.1
					C2.1,43.9,0,46.7,0,50c0,3.3,2.1,6.1,5.1,7.1c-2.9,1-5.1,3.8-5.1,7.1c0,3.3,2.1,6.1,5.1,7.1C2.1,72.3,0,75,0,78.3
					c0,3.3,2.1,6.1,5.1,7.1c-2.9,1-5.1,3.8-5.1,7.1c0,4.1,3.4,7.5,7.5,7.5c0.5,0,1-0.1,1.5-0.2c2.6-0.5,4.7-2.4,5.6-4.9
					c1,2.9,3.8,5.1,7.1,5.1s6.1-2.1,7.1-5.1c1,2.9,3.8,5.1,7.1,5.1s6.1-2.1,7.1-5.1c1,2.9,3.8,5,7.1,5c3.3,0,6.1-2.1,7.1-5.1
					c1,2.9,3.8,5.1,7.1,5.1c3.3,0,6.1-2.1,7.1-5.1c1,2.9,3.8,5.1,7.1,5.1c3.3,0,6.1-2.1,7.1-5.1c1,2.9,3.8,5.1,7.1,5.1
					c4.1,0,7.5-3.4,7.5-7.5c0-3.3-2.1-6.1-5.1-7.1c2.9-1,5.1-3.8,5.1-7.1c0-3.3-2.1-6.1-5.1-7.1c2.9-1,5.1-3.8,5.1-7.1
					s-2.1-6.1-5.1-7.1c2.9-1,5.1-3.8,5.1-7.1c0-3.3-2.1-6.1-5.1-7.1c2.9-1,5.1-3.8,5.1-7.1s-2.1-6.1-5.1-7.1
					C97.9,27.7,100,25,100,21.7z M90.1,85.4c-2.2,0.8-3.9,2.5-4.6,4.6c-1-2.9-3.8-5.1-7.1-5.1c-3.3,0-6.1,2.1-7.1,5.1
					c-1-2.9-3.8-5.1-7.1-5.1c-3.3,0-6.1,2.1-7.1,5.1c-1-2.9-3.8-5.1-7.1-5.1c-3.3,0-6.1,2.1-7.1,5.1c-1-2.9-3.8-5.1-7.1-5.1
					s-6.1,2.1-7.1,5.1c-1-2.9-3.8-5.1-7.1-5.1s-6.1,2.1-7.1,5.1c-0.8-2.2-2.5-3.9-4.6-4.6c2.9-1,5.1-3.8,5.1-7.1
					c0-3.3-2.1-6.1-5.1-7.1c2.9-1,5.1-3.8,5.1-7.1s-2.1-6.1-5.1-7.1c2.9-1,5.1-3.8,5.1-7.1c0-3.3-2.1-6.1-5.1-7.1
					c2.9-1,5.1-3.8,5.1-7.1s-2.1-6.1-5.1-7.1c2.9-1,5.1-3.8,5.1-7.1s-2.1-6.1-5.1-7.1c2.2-0.8,3.9-2.5,4.6-4.6
					c1,2.9,3.8,5.1,7.1,5.1s6.1-2.1,7.1-5.1c1,2.9,3.8,5.1,7.1,5.1s6.1-2.1,7.1-5.1c1,2.9,3.8,5.1,7.1,5.1c3.3,0,6.1-2.1,7.1-5.1
					c1,2.9,3.8,5.1,7.1,5.1c3.3,0,6.1-2.1,7.1-5.1c1,2.9,3.8,5.1,7.1,5.1c3.3,0,6.1-2.1,7.1-5.1c0.8,2.2,2.5,3.9,4.6,4.6
					c-2.9,1-5.1,3.8-5.1,7.1s2.1,6.1,5.1,7.1c-2.9,1-5.1,3.8-5.1,7.1s2.1,6.1,5.1,7.1c-2.9,1-5.1,3.8-5.1,7.1c0,3.3,2.1,6.1,5.1,7.1
					c-2.9,1-5.1,3.8-5.1,7.1c0,3.3,2.1,6.1,5.1,7.1c-2.9,1-5.1,3.8-5.1,7.1C85,81.6,87.1,84.4,90.1,85.4z"/>
			</g>
		</g>
	</g>
	<g transform="translate(806,0) scale(2.1485148514851, 2.1485148514851)">
		<g transform="">
			<g>
				<path class="st0" d="M90.1,71.2c-2.9-1-5.1-3.8-5.1-7.1s2.1-6.1,5.1-7.1c-2.9-1-5.1-3.8-5.1-7.1c0-3.3,2.1-6.1,5.1-7.1
					c-2.9-1-5.1-3.8-5.1-7.1s2.1-6.1,5.1-7.1c-2.9-1-5.1-3.8-5.1-7.1s2.1-6.1,5.1-7.1c-2.2-0.8-3.9-2.5-4.6-4.6
					c-1,2.9-3.8,5.1-7.1,5.1c-3.3,0-6.1-2.1-7.1-5.1c-1,2.9-3.8,5.1-7.1,5.1c-3.3,0-6.1-2.1-7.1-5.1c-1,2.9-3.8,5.1-7.1,5.1
					c-3.3,0-6.1-2.1-7.1-5.1c-1,2.9-3.8,5.1-7.1,5.1s-6.1-2.1-7.1-5.1c-1,2.9-3.8,5.1-7.1,5.1s-6.1-2.1-7.1-5.1
					c-0.8,2.2-2.5,3.9-4.6,4.6c2.9,1,5.1,3.8,5.1,7.1s-2.1,6.1-5.1,7.1c2.9,1,5.1,3.8,5.1,7.1s-2.1,6.1-5.1,7.1
					c2.9,1,5.1,3.8,5.1,7.1c0,3.3-2.1,6.1-5.1,7.1c2.9,1,5.1,3.8,5.1,7.1c0,3.3-2.1,6.1-5.1,7.1c2.9,1,5.1,3.8,5.1,7.1
					c0,3.3-2.1,6.1-5.1,7.1c2.2,0.8,3.9,2.5,4.6,4.6c1-2.9,3.8-5.1,7.1-5.1s6.1,2.1,7.1,5.1c1-2.9,3.8-5.1,7.1-5.1s6.1,2.1,7.1,5.1
					c1-2.9,3.8-5.1,7.1-5.1c3.3,0,6.1,2.1,7.1,5.1c1-2.9,3.8-5.1,7.1-5.1c3.3,0,6.1,2.1,7.1,5.1c1-2.9,3.8-5.1,7.1-5.1
					c3.3,0,6.1,2.1,7.1,5.1c0.8-2.2,2.5-3.9,4.6-4.6c-2.9-1-5.1-3.8-5.1-7.1C85,75,87.1,72.3,90.1,71.2z"/>
				<path d="M100,21.7c0-3.3-2.1-6.1-5.1-7.1c2.9-1,5.1-3.8,5.1-7.1c0-4.1-3.4-7.5-7.5-7.5c-3.3,0-6.1,2.1-7.1,5.1
					c-1-2.9-3.8-5.1-7.1-5.1c-3.3,0-6.1,2.1-7.1,5.1c-1-2.9-3.8-5.1-7.1-5.1c-3.3,0-6.1,2.1-7.1,5.1C56.1,2.1,53.3,0,50,0
					c-3.3,0-6.1,2.1-7.1,5.1c-1-2.9-3.8-5.1-7.1-5.1s-6.1,2.1-7.1,5.1C27.7,2.1,25,0,21.7,0s-6.1,2.1-7.1,5.1C13.6,2.1,10.8,0,7.5,0
					C3.4,0,0,3.4,0,7.5c0,3.3,2.1,6.1,5.1,7.1c-2.9,1-5.1,3.8-5.1,7.1s2.1,6.1,5.1,7.1c-2.9,1-5.1,3.8-5.1,7.1s2.1,6.1,5.1,7.1
					C2.1,43.9,0,46.7,0,50c0,3.3,2.1,6.1,5.1,7.1c-2.9,1-5.1,3.8-5.1,7.1c0,3.3,2.1,6.1,5.1,7.1C2.1,72.3,0,75,0,78.3
					c0,3.3,2.1,6.1,5.1,7.1c-2.9,1-5.1,3.8-5.1,7.1c0,4.1,3.4,7.5,7.5,7.5c0.5,0,1-0.1,1.5-0.2c2.6-0.5,4.7-2.4,5.6-4.9
					c1,2.9,3.8,5.1,7.1,5.1s6.1-2.1,7.1-5.1c1,2.9,3.8,5.1,7.1,5.1s6.1-2.1,7.1-5.1c1,2.9,3.8,5,7.1,5c3.3,0,6.1-2.1,7.1-5.1
					c1,2.9,3.8,5.1,7.1,5.1c3.3,0,6.1-2.1,7.1-5.1c1,2.9,3.8,5.1,7.1,5.1c3.3,0,6.1-2.1,7.1-5.1c1,2.9,3.8,5.1,7.1,5.1
					c4.1,0,7.5-3.4,7.5-7.5c0-3.3-2.1-6.1-5.1-7.1c2.9-1,5.1-3.8,5.1-7.1c0-3.3-2.1-6.1-5.1-7.1c2.9-1,5.1-3.8,5.1-7.1
					s-2.1-6.1-5.1-7.1c2.9-1,5.1-3.8,5.1-7.1c0-3.3-2.1-6.1-5.1-7.1c2.9-1,5.1-3.8,5.1-7.1s-2.1-6.1-5.1-7.1
					C97.9,27.7,100,25,100,21.7z M90.1,85.4c-2.2,0.8-3.9,2.5-4.6,4.6c-1-2.9-3.8-5.1-7.1-5.1c-3.3,0-6.1,2.1-7.1,5.1
					c-1-2.9-3.8-5.1-7.1-5.1c-3.3,0-6.1,2.1-7.1,5.1c-1-2.9-3.8-5.1-7.1-5.1c-3.3,0-6.1,2.1-7.1,5.1c-1-2.9-3.8-5.1-7.1-5.1
					s-6.1,2.1-7.1,5.1c-1-2.9-3.8-5.1-7.1-5.1s-6.1,2.1-7.1,5.1c-0.8-2.2-2.5-3.9-4.6-4.6c2.9-1,5.1-3.8,5.1-7.1
					c0-3.3-2.1-6.1-5.1-7.1c2.9-1,5.1-3.8,5.1-7.1s-2.1-6.1-5.1-7.1c2.9-1,5.1-3.8,5.1-7.1c0-3.3-2.1-6.1-5.1-7.1
					c2.9-1,5.1-3.8,5.1-7.1s-2.1-6.1-5.1-7.1c2.9-1,5.1-3.8,5.1-7.1s-2.1-6.1-5.1-7.1c2.2-0.8,3.9-2.5,4.6-4.6
					c1,2.9,3.8,5.1,7.1,5.1s6.1-2.1,7.1-5.1c1,2.9,3.8,5.1,7.1,5.1s6.1-2.1,7.1-5.1c1,2.9,3.8,5.1,7.1,5.1c3.3,0,6.1-2.1,7.1-5.1
					c1,2.9,3.8,5.1,7.1,5.1c3.3,0,6.1-2.1,7.1-5.1c1,2.9,3.8,5.1,7.1,5.1c3.3,0,6.1-2.1,7.1-5.1c0.8,2.2,2.5,3.9,4.6,4.6
					c-2.9,1-5.1,3.8-5.1,7.1s2.1,6.1,5.1,7.1c-2.9,1-5.1,3.8-5.1,7.1s2.1,6.1,5.1,7.1c-2.9,1-5.1,3.8-5.1,7.1c0,3.3,2.1,6.1,5.1,7.1
					c-2.9,1-5.1,3.8-5.1,7.1c0,3.3,2.1,6.1,5.1,7.1c-2.9,1-5.1,3.8-5.1,7.1C85,81.6,87.1,84.4,90.1,85.4z"/>
			</g>
		</g>
	</g>
	<g transform="translate(0,806) scale(2.1485148514851, 2.1485148514851)">
		<g transform="">
			<g>
				<path class="st0" d="M90.1,71.2c-2.9-1-5.1-3.8-5.1-7.1s2.1-6.1,5.1-7.1c-2.9-1-5.1-3.8-5.1-7.1c0-3.3,2.1-6.1,5.1-7.1
					c-2.9-1-5.1-3.8-5.1-7.1s2.1-6.1,5.1-7.1c-2.9-1-5.1-3.8-5.1-7.1s2.1-6.1,5.1-7.1c-2.2-0.8-3.9-2.5-4.6-4.6
					c-1,2.9-3.8,5.1-7.1,5.1c-3.3,0-6.1-2.1-7.1-5.1c-1,2.9-3.8,5.1-7.1,5.1c-3.3,0-6.1-2.1-7.1-5.1c-1,2.9-3.8,5.1-7.1,5.1
					c-3.3,0-6.1-2.1-7.1-5.1c-1,2.9-3.8,5.1-7.1,5.1s-6.1-2.1-7.1-5.1c-1,2.9-3.8,5.1-7.1,5.1s-6.1-2.1-7.1-5.1
					c-0.8,2.2-2.5,3.9-4.6,4.6c2.9,1,5.1,3.8,5.1,7.1s-2.1,6.1-5.1,7.1c2.9,1,5.1,3.8,5.1,7.1s-2.1,6.1-5.1,7.1
					c2.9,1,5.1,3.8,5.1,7.1c0,3.3-2.1,6.1-5.1,7.1c2.9,1,5.1,3.8,5.1,7.1c0,3.3-2.1,6.1-5.1,7.1c2.9,1,5.1,3.8,5.1,7.1
					c0,3.3-2.1,6.1-5.1,7.1c2.2,0.8,3.9,2.5,4.6,4.6c1-2.9,3.8-5.1,7.1-5.1s6.1,2.1,7.1,5.1c1-2.9,3.8-5.1,7.1-5.1s6.1,2.1,7.1,5.1
					c1-2.9,3.8-5.1,7.1-5.1c3.3,0,6.1,2.1,7.1,5.1c1-2.9,3.8-5.1,7.1-5.1c3.3,0,6.1,2.1,7.1,5.1c1-2.9,3.8-5.1,7.1-5.1
					c3.3,0,6.1,2.1,7.1,5.1c0.8-2.2,2.5-3.9,4.6-4.6c-2.9-1-5.1-3.8-5.1-7.1C85,75,87.1,72.3,90.1,71.2z"/>
				<path d="M100,21.7c0-3.3-2.1-6.1-5.1-7.1c2.9-1,5.1-3.8,5.1-7.1c0-4.1-3.4-7.5-7.5-7.5c-3.3,0-6.1,2.1-7.1,5.1
					c-1-2.9-3.8-5.1-7.1-5.1c-3.3,0-6.1,2.1-7.1,5.1c-1-2.9-3.8-5.1-7.1-5.1c-3.3,0-6.1,2.1-7.1,5.1C56.1,2.1,53.3,0,50,0
					c-3.3,0-6.1,2.1-7.1,5.1c-1-2.9-3.8-5.1-7.1-5.1s-6.1,2.1-7.1,5.1C27.7,2.1,25,0,21.7,0s-6.1,2.1-7.1,5.1C13.6,2.1,10.8,0,7.5,0
					C3.4,0,0,3.4,0,7.5c0,3.3,2.1,6.1,5.1,7.1c-2.9,1-5.1,3.8-5.1,7.1s2.1,6.1,5.1,7.1c-2.9,1-5.1,3.8-5.1,7.1s2.1,6.1,5.1,7.1
					C2.1,43.9,0,46.7,0,50c0,3.3,2.1,6.1,5.1,7.1c-2.9,1-5.1,3.8-5.1,7.1c0,3.3,2.1,6.1,5.1,7.1C2.1,72.3,0,75,0,78.3
					c0,3.3,2.1,6.1,5.1,7.1c-2.9,1-5.1,3.8-5.1,7.1c0,4.1,3.4,7.5,7.5,7.5c0.5,0,1-0.1,1.5-0.2c2.6-0.5,4.7-2.4,5.6-4.9
					c1,2.9,3.8,5.1,7.1,5.1s6.1-2.1,7.1-5.1c1,2.9,3.8,5.1,7.1,5.1s6.1-2.1,7.1-5.1c1,2.9,3.8,5,7.1,5c3.3,0,6.1-2.1,7.1-5.1
					c1,2.9,3.8,5.1,7.1,5.1c3.3,0,6.1-2.1,7.1-5.1c1,2.9,3.8,5.1,7.1,5.1c3.3,0,6.1-2.1,7.1-5.1c1,2.9,3.8,5.1,7.1,5.1
					c4.1,0,7.5-3.4,7.5-7.5c0-3.3-2.1-6.1-5.1-7.1c2.9-1,5.1-3.8,5.1-7.1c0-3.3-2.1-6.1-5.1-7.1c2.9-1,5.1-3.8,5.1-7.1
					s-2.1-6.1-5.1-7.1c2.9-1,5.1-3.8,5.1-7.1c0-3.3-2.1-6.1-5.1-7.1c2.9-1,5.1-3.8,5.1-7.1s-2.1-6.1-5.1-7.1
					C97.9,27.7,100,25,100,21.7z M90.1,85.4c-2.2,0.8-3.9,2.5-4.6,4.6c-1-2.9-3.8-5.1-7.1-5.1c-3.3,0-6.1,2.1-7.1,5.1
					c-1-2.9-3.8-5.1-7.1-5.1c-3.3,0-6.1,2.1-7.1,5.1c-1-2.9-3.8-5.1-7.1-5.1c-3.3,0-6.1,2.1-7.1,5.1c-1-2.9-3.8-5.1-7.1-5.1
					s-6.1,2.1-7.1,5.1c-1-2.9-3.8-5.1-7.1-5.1s-6.1,2.1-7.1,5.1c-0.8-2.2-2.5-3.9-4.6-4.6c2.9-1,5.1-3.8,5.1-7.1
					c0-3.3-2.1-6.1-5.1-7.1c2.9-1,5.1-3.8,5.1-7.1s-2.1-6.1-5.1-7.1c2.9-1,5.1-3.8,5.1-7.1c0-3.3-2.1-6.1-5.1-7.1
					c2.9-1,5.1-3.8,5.1-7.1s-2.1-6.1-5.1-7.1c2.9-1,5.1-3.8,5.1-7.1s-2.1-6.1-5.1-7.1c2.2-0.8,3.9-2.5,4.6-4.6
					c1,2.9,3.8,5.1,7.1,5.1s6.1-2.1,7.1-5.1c1,2.9,3.8,5.1,7.1,5.1s6.1-2.1,7.1-5.1c1,2.9,3.8,5.1,7.1,5.1c3.3,0,6.1-2.1,7.1-5.1
					c1,2.9,3.8,5.1,7.1,5.1c3.3,0,6.1-2.1,7.1-5.1c1,2.9,3.8,5.1,7.1,5.1c3.3,0,6.1-2.1,7.1-5.1c0.8,2.2,2.5,3.9,4.6,4.6
					c-2.9,1-5.1,3.8-5.1,7.1s2.1,6.1,5.1,7.1c-2.9,1-5.1,3.8-5.1,7.1s2.1,6.1,5.1,7.1c-2.9,1-5.1,3.8-5.1,7.1c0,3.3,2.1,6.1,5.1,7.1
					c-2.9,1-5.1,3.8-5.1,7.1c0,3.3,2.1,6.1,5.1,7.1c-2.9,1-5.1,3.8-5.1,7.1C85,81.6,87.1,84.4,90.1,85.4z"/>
			</g>
		</g>
	</g>
	<g transform="translate(62,62) scale(0.93, 0.93)">
		<g transform="">
			<rect x="0" y="0" width="100" height="100"/>
		</g>
	</g>
	<g transform="translate(868,62) scale(0.93, 0.93)">
		<g transform="">
			<rect x="0" y="0" width="100" height="100"/>
		</g>
	</g>
	<g transform="translate(62,868) scale(0.93, 0.93)">
		<g transform="">
			<rect x="0" y="0" width="100" height="100"/>
		</g>
	</g>
</g>
</svg>
