<?xml version="1.0" encoding="utf-8"?>
<!-- Generator: Adobe Illustrator 24.0.3, SVG Export Plug-In . SVG Version: 6.00 Build 0)  -->
<svg version="1.1" id="Layer_1" xmlns="http://www.w3.org/2000/svg" xmlns:xlink="http://www.w3.org/1999/xlink" x="0px" y="0px"
	 viewBox="0 0 1147 1147" style="enable-background:new 0 0 1147 1147;" xml:space="preserve">
<style type="text/css">
	.st0{fill:none;}
</style>
<g transform="translate(62,62)">
	<g transform="translate(248,0) scale(0.31,0.31)">
		<g transform="">
			<rect x="0" y="0" width="100" height="100"/>
		</g>
	</g>
	<g transform="translate(341,0) scale(0.31,0.31)">
		<g transform="">
			<rect x="0" y="0" width="100" height="100"/>
		</g>
	</g>
	<g transform="translate(403,0) scale(0.31,0.31)">
		<g transform="">
			<rect x="0" y="0" width="100" height="100"/>
		</g>
	</g>
	<g transform="translate(434,0) scale(0.31,0.31)">
		<g transform="">
			<rect x="0" y="0" width="100" height="100"/>
		</g>
	</g>
	<g transform="translate(465,0) scale(0.31,0.31)">
		<g transform="">
			<rect x="0" y="0" width="100" height="100"/>
		</g>
	</g>
	<g transform="translate(496,0) scale(0.31,0.31)">
		<g transform="">
			<rect x="0" y="0" width="100" height="100"/>
		</g>
	</g>
	<g transform="translate(527,0) scale(0.31,0.31)">
		<g transform="">
			<rect x="0" y="0" width="100" height="100"/>
		</g>
	</g>
	<g transform="translate(558,0) scale(0.31,0.31)">
		<g transform="">
			<rect x="0" y="0" width="100" height="100"/>
		</g>
	</g>
	<g transform="translate(620,0) scale(0.31,0.31)">
		<g transform="">
			<rect x="0" y="0" width="100" height="100"/>
		</g>
	</g>
	<g transform="translate(713,0) scale(0.31,0.31)">
		<g transform="">
			<rect x="0" y="0" width="100" height="100"/>
		</g>
	</g>
	<g transform="translate(279,31) scale(0.31,0.31)">
		<g transform="">
			<rect x="0" y="0" width="100" height="100"/>
		</g>
	</g>
	<g transform="translate(310,31) scale(0.31,0.31)">
		<g transform="">
			<rect x="0" y="0" width="100" height="100"/>
		</g>
	</g>
	<g transform="translate(403,31) scale(0.31,0.31)">
		<g transform="">
			<rect x="0" y="0" width="100" height="100"/>
		</g>
	</g>
	<g transform="translate(434,31) scale(0.31,0.31)">
		<g transform="">
			<rect x="0" y="0" width="100" height="100"/>
		</g>
	</g>
	<g transform="translate(527,31) scale(0.31,0.31)">
		<g transform="">
			<rect x="0" y="0" width="100" height="100"/>
		</g>
	</g>
	<g transform="translate(589,31) scale(0.31,0.31)">
		<g transform="">
			<rect x="0" y="0" width="100" height="100"/>
		</g>
	</g>
	<g transform="translate(682,31) scale(0.31,0.31)">
		<g transform="">
			<rect x="0" y="0" width="100" height="100"/>
		</g>
	</g>
	<g transform="translate(341,62) scale(0.31,0.31)">
		<g transform="">
			<rect x="0" y="0" width="100" height="100"/>
		</g>
	</g>
	<g transform="translate(372,62) scale(0.31,0.31)">
		<g transform="">
			<rect x="0" y="0" width="100" height="100"/>
		</g>
	</g>
	<g transform="translate(434,62) scale(0.31,0.31)">
		<g transform="">
			<rect x="0" y="0" width="100" height="100"/>
		</g>
	</g>
	<g transform="translate(496,62) scale(0.31,0.31)">
		<g transform="">
			<rect x="0" y="0" width="100" height="100"/>
		</g>
	</g>
	<g transform="translate(527,62) scale(0.31,0.31)">
		<g transform="">
			<rect x="0" y="0" width="100" height="100"/>
		</g>
	</g>
	<g transform="translate(558,62) scale(0.31,0.31)">
		<g transform="">
			<rect x="0" y="0" width="100" height="100"/>
		</g>
	</g>
	<g transform="translate(620,62) scale(0.31,0.31)">
		<g transform="">
			<rect x="0" y="0" width="100" height="100"/>
		</g>
	</g>
	<g transform="translate(651,62) scale(0.31,0.31)">
		<g transform="">
			<rect x="0" y="0" width="100" height="100"/>
		</g>
	</g>
	<g transform="translate(713,62) scale(0.31,0.31)">
		<g transform="">
			<rect x="0" y="0" width="100" height="100"/>
		</g>
	</g>
	<g transform="translate(248,93) scale(0.31,0.31)">
		<g transform="">
			<rect x="0" y="0" width="100" height="100"/>
		</g>
	</g>
	<g transform="translate(279,93) scale(0.31,0.31)">
		<g transform="">
			<rect x="0" y="0" width="100" height="100"/>
		</g>
	</g>
	<g transform="translate(310,93) scale(0.31,0.31)">
		<g transform="">
			<rect x="0" y="0" width="100" height="100"/>
		</g>
	</g>
	<g transform="translate(372,93) scale(0.31,0.31)">
		<g transform="">
			<rect x="0" y="0" width="100" height="100"/>
		</g>
	</g>
	<g transform="translate(465,93) scale(0.31,0.31)">
		<g transform="">
			<rect x="0" y="0" width="100" height="100"/>
		</g>
	</g>
	<g transform="translate(496,93) scale(0.31,0.31)">
		<g transform="">
			<rect x="0" y="0" width="100" height="100"/>
		</g>
	</g>
	<g transform="translate(527,93) scale(0.31,0.31)">
		<g transform="">
			<rect x="0" y="0" width="100" height="100"/>
		</g>
	</g>
	<g transform="translate(589,93) scale(0.31,0.31)">
		<g transform="">
			<rect x="0" y="0" width="100" height="100"/>
		</g>
	</g>
	<g transform="translate(248,124) scale(0.31,0.31)">
		<g transform="">
			<rect x="0" y="0" width="100" height="100"/>
		</g>
	</g>
	<g transform="translate(496,124) scale(0.31,0.31)">
		<g transform="">
			<rect x="0" y="0" width="100" height="100"/>
		</g>
	</g>
	<g transform="translate(527,124) scale(0.31,0.31)">
		<g transform="">
			<rect x="0" y="0" width="100" height="100"/>
		</g>
	</g>
	<g transform="translate(558,124) scale(0.31,0.31)">
		<g transform="">
			<rect x="0" y="0" width="100" height="100"/>
		</g>
	</g>
	<g transform="translate(620,124) scale(0.31,0.31)">
		<g transform="">
			<rect x="0" y="0" width="100" height="100"/>
		</g>
	</g>
	<g transform="translate(651,124) scale(0.31,0.31)">
		<g transform="">
			<rect x="0" y="0" width="100" height="100"/>
		</g>
	</g>
	<g transform="translate(713,124) scale(0.31,0.31)">
		<g transform="">
			<rect x="0" y="0" width="100" height="100"/>
		</g>
	</g>
	<g transform="translate(248,155) scale(0.31,0.31)">
		<g transform="">
			<rect x="0" y="0" width="100" height="100"/>
		</g>
	</g>
	<g transform="translate(341,155) scale(0.31,0.31)">
		<g transform="">
			<rect x="0" y="0" width="100" height="100"/>
		</g>
	</g>
	<g transform="translate(403,155) scale(0.31,0.31)">
		<g transform="">
			<rect x="0" y="0" width="100" height="100"/>
		</g>
	</g>
	<g transform="translate(465,155) scale(0.31,0.31)">
		<g transform="">
			<rect x="0" y="0" width="100" height="100"/>
		</g>
	</g>
	<g transform="translate(527,155) scale(0.31,0.31)">
		<g transform="">
			<rect x="0" y="0" width="100" height="100"/>
		</g>
	</g>
	<g transform="translate(589,155) scale(0.31,0.31)">
		<g transform="">
			<rect x="0" y="0" width="100" height="100"/>
		</g>
	</g>
	<g transform="translate(651,155) scale(0.31,0.31)">
		<g transform="">
			<rect x="0" y="0" width="100" height="100"/>
		</g>
	</g>
	<g transform="translate(682,155) scale(0.31,0.31)">
		<g transform="">
			<rect x="0" y="0" width="100" height="100"/>
		</g>
	</g>
	<g transform="translate(744,155) scale(0.31,0.31)">
		<g transform="">
			<rect x="0" y="0" width="100" height="100"/>
		</g>
	</g>
	<g transform="translate(248,186) scale(0.31,0.31)">
		<g transform="">
			<rect x="0" y="0" width="100" height="100"/>
		</g>
	</g>
	<g transform="translate(310,186) scale(0.31,0.31)">
		<g transform="">
			<rect x="0" y="0" width="100" height="100"/>
		</g>
	</g>
	<g transform="translate(372,186) scale(0.31,0.31)">
		<g transform="">
			<rect x="0" y="0" width="100" height="100"/>
		</g>
	</g>
	<g transform="translate(434,186) scale(0.31,0.31)">
		<g transform="">
			<rect x="0" y="0" width="100" height="100"/>
		</g>
	</g>
	<g transform="translate(496,186) scale(0.31,0.31)">
		<g transform="">
			<rect x="0" y="0" width="100" height="100"/>
		</g>
	</g>
	<g transform="translate(558,186) scale(0.31,0.31)">
		<g transform="">
			<rect x="0" y="0" width="100" height="100"/>
		</g>
	</g>
	<g transform="translate(620,186) scale(0.31,0.31)">
		<g transform="">
			<rect x="0" y="0" width="100" height="100"/>
		</g>
	</g>
	<g transform="translate(682,186) scale(0.31,0.31)">
		<g transform="">
			<rect x="0" y="0" width="100" height="100"/>
		</g>
	</g>
	<g transform="translate(744,186) scale(0.31,0.31)">
		<g transform="">
			<rect x="0" y="0" width="100" height="100"/>
		</g>
	</g>
	<g transform="translate(248,217) scale(0.31,0.31)">
		<g transform="">
			<rect x="0" y="0" width="100" height="100"/>
		</g>
	</g>
	<g transform="translate(310,217) scale(0.31,0.31)">
		<g transform="">
			<rect x="0" y="0" width="100" height="100"/>
		</g>
	</g>
	<g transform="translate(372,217) scale(0.31,0.31)">
		<g transform="">
			<rect x="0" y="0" width="100" height="100"/>
		</g>
	</g>
	<g transform="translate(527,217) scale(0.31,0.31)">
		<g transform="">
			<rect x="0" y="0" width="100" height="100"/>
		</g>
	</g>
	<g transform="translate(651,217) scale(0.31,0.31)">
		<g transform="">
			<rect x="0" y="0" width="100" height="100"/>
		</g>
	</g>
	<g transform="translate(682,217) scale(0.31,0.31)">
		<g transform="">
			<rect x="0" y="0" width="100" height="100"/>
		</g>
	</g>
	<g transform="translate(713,217) scale(0.31,0.31)">
		<g transform="">
			<rect x="0" y="0" width="100" height="100"/>
		</g>
	</g>
	<g transform="translate(0,248) scale(0.31,0.31)">
		<g transform="">
			<rect x="0" y="0" width="100" height="100"/>
		</g>
	</g>
	<g transform="translate(124,248) scale(0.31,0.31)">
		<g transform="">
			<rect x="0" y="0" width="100" height="100"/>
		</g>
	</g>
	<g transform="translate(186,248) scale(0.31,0.31)">
		<g transform="">
			<rect x="0" y="0" width="100" height="100"/>
		</g>
	</g>
	<g transform="translate(217,248) scale(0.31,0.31)">
		<g transform="">
			<rect x="0" y="0" width="100" height="100"/>
		</g>
	</g>
	<g transform="translate(248,248) scale(0.31,0.31)">
		<g transform="">
			<rect x="0" y="0" width="100" height="100"/>
		</g>
	</g>
	<g transform="translate(279,248) scale(0.31,0.31)">
		<g transform="">
			<rect x="0" y="0" width="100" height="100"/>
		</g>
	</g>
	<g transform="translate(372,248) scale(0.31,0.31)">
		<g transform="">
			<rect x="0" y="0" width="100" height="100"/>
		</g>
	</g>
	<g transform="translate(465,248) scale(0.31,0.31)">
		<g transform="">
			<rect x="0" y="0" width="100" height="100"/>
		</g>
	</g>
	<g transform="translate(496,248) scale(0.31,0.31)">
		<g transform="">
			<rect x="0" y="0" width="100" height="100"/>
		</g>
	</g>
	<g transform="translate(527,248) scale(0.31,0.31)">
		<g transform="">
			<rect x="0" y="0" width="100" height="100"/>
		</g>
	</g>
	<g transform="translate(589,248) scale(0.31,0.31)">
		<g transform="">
			<rect x="0" y="0" width="100" height="100"/>
		</g>
	</g>
	<g transform="translate(620,248) scale(0.31,0.31)">
		<g transform="">
			<rect x="0" y="0" width="100" height="100"/>
		</g>
	</g>
	<g transform="translate(651,248) scale(0.31,0.31)">
		<g transform="">
			<rect x="0" y="0" width="100" height="100"/>
		</g>
	</g>
	<g transform="translate(682,248) scale(0.31,0.31)">
		<g transform="">
			<rect x="0" y="0" width="100" height="100"/>
		</g>
	</g>
	<g transform="translate(744,248) scale(0.31,0.31)">
		<g transform="">
			<rect x="0" y="0" width="100" height="100"/>
		</g>
	</g>
	<g transform="translate(775,248) scale(0.31,0.31)">
		<g transform="">
			<rect x="0" y="0" width="100" height="100"/>
		</g>
	</g>
	<g transform="translate(806,248) scale(0.31,0.31)">
		<g transform="">
			<rect x="0" y="0" width="100" height="100"/>
		</g>
	</g>
	<g transform="translate(837,248) scale(0.31,0.31)">
		<g transform="">
			<rect x="0" y="0" width="100" height="100"/>
		</g>
	</g>
	<g transform="translate(868,248) scale(0.31,0.31)">
		<g transform="">
			<rect x="0" y="0" width="100" height="100"/>
		</g>
	</g>
	<g transform="translate(899,248) scale(0.31,0.31)">
		<g transform="">
			<rect x="0" y="0" width="100" height="100"/>
		</g>
	</g>
	<g transform="translate(992,248) scale(0.31,0.31)">
		<g transform="">
			<rect x="0" y="0" width="100" height="100"/>
		</g>
	</g>
	<g transform="translate(0,279) scale(0.31,0.31)">
		<g transform="">
			<rect x="0" y="0" width="100" height="100"/>
		</g>
	</g>
	<g transform="translate(62,279) scale(0.31,0.31)">
		<g transform="">
			<rect x="0" y="0" width="100" height="100"/>
		</g>
	</g>
	<g transform="translate(93,279) scale(0.31,0.31)">
		<g transform="">
			<rect x="0" y="0" width="100" height="100"/>
		</g>
	</g>
	<g transform="translate(155,279) scale(0.31,0.31)">
		<g transform="">
			<rect x="0" y="0" width="100" height="100"/>
		</g>
	</g>
	<g transform="translate(310,279) scale(0.31,0.31)">
		<g transform="">
			<rect x="0" y="0" width="100" height="100"/>
		</g>
	</g>
	<g transform="translate(372,279) scale(0.31,0.31)">
		<g transform="">
			<rect x="0" y="0" width="100" height="100"/>
		</g>
	</g>
	<g transform="translate(434,279) scale(0.31,0.31)">
		<g transform="">
			<rect x="0" y="0" width="100" height="100"/>
		</g>
	</g>
	<g transform="translate(465,279) scale(0.31,0.31)">
		<g transform="">
			<rect x="0" y="0" width="100" height="100"/>
		</g>
	</g>
	<g transform="translate(496,279) scale(0.31,0.31)">
		<g transform="">
			<rect x="0" y="0" width="100" height="100"/>
		</g>
	</g>
	<g transform="translate(527,279) scale(0.31,0.31)">
		<g transform="">
			<rect x="0" y="0" width="100" height="100"/>
		</g>
	</g>
	<g transform="translate(558,279) scale(0.31,0.31)">
		<g transform="">
			<rect x="0" y="0" width="100" height="100"/>
		</g>
	</g>
	<g transform="translate(682,279) scale(0.31,0.31)">
		<g transform="">
			<rect x="0" y="0" width="100" height="100"/>
		</g>
	</g>
	<g transform="translate(713,279) scale(0.31,0.31)">
		<g transform="">
			<rect x="0" y="0" width="100" height="100"/>
		</g>
	</g>
	<g transform="translate(775,279) scale(0.31,0.31)">
		<g transform="">
			<rect x="0" y="0" width="100" height="100"/>
		</g>
	</g>
	<g transform="translate(899,279) scale(0.31,0.31)">
		<g transform="">
			<rect x="0" y="0" width="100" height="100"/>
		</g>
	</g>
	<g transform="translate(930,279) scale(0.31,0.31)">
		<g transform="">
			<rect x="0" y="0" width="100" height="100"/>
		</g>
	</g>
	<g transform="translate(0,310) scale(0.31,0.31)">
		<g transform="">
			<rect x="0" y="0" width="100" height="100"/>
		</g>
	</g>
	<g transform="translate(186,310) scale(0.31,0.31)">
		<g transform="">
			<rect x="0" y="0" width="100" height="100"/>
		</g>
	</g>
	<g transform="translate(248,310) scale(0.31,0.31)">
		<g transform="">
			<rect x="0" y="0" width="100" height="100"/>
		</g>
	</g>
	<g transform="translate(279,310) scale(0.31,0.31)">
		<g transform="">
			<rect x="0" y="0" width="100" height="100"/>
		</g>
	</g>
	<g transform="translate(372,310) scale(0.31,0.31)">
		<g transform="">
			<rect x="0" y="0" width="100" height="100"/>
		</g>
	</g>
	<g transform="translate(403,310) scale(0.31,0.31)">
		<g transform="">
			<rect x="0" y="0" width="100" height="100"/>
		</g>
	</g>
	<g transform="translate(434,310) scale(0.31,0.31)">
		<g transform="">
			<rect x="0" y="0" width="100" height="100"/>
		</g>
	</g>
	<g transform="translate(465,310) scale(0.31,0.31)">
		<g transform="">
			<rect x="0" y="0" width="100" height="100"/>
		</g>
	</g>
	<g transform="translate(558,310) scale(0.31,0.31)">
		<g transform="">
			<rect x="0" y="0" width="100" height="100"/>
		</g>
	</g>
	<g transform="translate(620,310) scale(0.31,0.31)">
		<g transform="">
			<rect x="0" y="0" width="100" height="100"/>
		</g>
	</g>
	<g transform="translate(651,310) scale(0.31,0.31)">
		<g transform="">
			<rect x="0" y="0" width="100" height="100"/>
		</g>
	</g>
	<g transform="translate(682,310) scale(0.31,0.31)">
		<g transform="">
			<rect x="0" y="0" width="100" height="100"/>
		</g>
	</g>
	<g transform="translate(713,310) scale(0.31,0.31)">
		<g transform="">
			<rect x="0" y="0" width="100" height="100"/>
		</g>
	</g>
	<g transform="translate(775,310) scale(0.31,0.31)">
		<g transform="">
			<rect x="0" y="0" width="100" height="100"/>
		</g>
	</g>
	<g transform="translate(806,310) scale(0.31,0.31)">
		<g transform="">
			<rect x="0" y="0" width="100" height="100"/>
		</g>
	</g>
	<g transform="translate(899,310) scale(0.31,0.31)">
		<g transform="">
			<rect x="0" y="0" width="100" height="100"/>
		</g>
	</g>
	<g transform="translate(961,310) scale(0.31,0.31)">
		<g transform="">
			<rect x="0" y="0" width="100" height="100"/>
		</g>
	</g>
	<g transform="translate(31,341) scale(0.31,0.31)">
		<g transform="">
			<rect x="0" y="0" width="100" height="100"/>
		</g>
	</g>
	<g transform="translate(93,341) scale(0.31,0.31)">
		<g transform="">
			<rect x="0" y="0" width="100" height="100"/>
		</g>
	</g>
	<g transform="translate(279,341) scale(0.31,0.31)">
		<g transform="">
			<rect x="0" y="0" width="100" height="100"/>
		</g>
	</g>
	<g transform="translate(341,341) scale(0.31,0.31)">
		<g transform="">
			<rect x="0" y="0" width="100" height="100"/>
		</g>
	</g>
	<g transform="translate(403,341) scale(0.31,0.31)">
		<g transform="">
			<rect x="0" y="0" width="100" height="100"/>
		</g>
	</g>
	<g transform="translate(651,341) scale(0.31,0.31)">
		<g transform="">
			<rect x="0" y="0" width="100" height="100"/>
		</g>
	</g>
	<g transform="translate(744,341) scale(0.31,0.31)">
		<g transform="">
			<rect x="0" y="0" width="100" height="100"/>
		</g>
	</g>
	<g transform="translate(806,341) scale(0.31,0.31)">
		<g transform="">
			<rect x="0" y="0" width="100" height="100"/>
		</g>
	</g>
	<g transform="translate(992,341) scale(0.31,0.31)">
		<g transform="">
			<rect x="0" y="0" width="100" height="100"/>
		</g>
	</g>
	<g transform="translate(31,372) scale(0.31,0.31)">
		<g transform="">
			<rect x="0" y="0" width="100" height="100"/>
		</g>
	</g>
	<g transform="translate(93,372) scale(0.31,0.31)">
		<g transform="">
			<rect x="0" y="0" width="100" height="100"/>
		</g>
	</g>
	<g transform="translate(155,372) scale(0.31,0.31)">
		<g transform="">
			<rect x="0" y="0" width="100" height="100"/>
		</g>
	</g>
	<g transform="translate(186,372) scale(0.31,0.31)">
		<g transform="">
			<rect x="0" y="0" width="100" height="100"/>
		</g>
	</g>
	<g transform="translate(310,372) scale(0.31,0.31)">
		<g transform="">
			<rect x="0" y="0" width="100" height="100"/>
		</g>
	</g>
	<g transform="translate(372,372) scale(0.31,0.31)">
		<g transform="">
			<rect x="0" y="0" width="100" height="100"/>
		</g>
	</g>
	<g transform="translate(403,372) scale(0.31,0.31)">
		<g transform="">
			<rect x="0" y="0" width="100" height="100"/>
		</g>
	</g>
	<g transform="translate(465,372) scale(0.31,0.31)">
		<g transform="">
			<rect x="0" y="0" width="100" height="100"/>
		</g>
	</g>
	<g transform="translate(496,372) scale(0.31,0.31)">
		<g transform="">
			<rect x="0" y="0" width="100" height="100"/>
		</g>
	</g>
	<g transform="translate(589,372) scale(0.31,0.31)">
		<g transform="">
			<rect x="0" y="0" width="100" height="100"/>
		</g>
	</g>
	<g transform="translate(620,372) scale(0.31,0.31)">
		<g transform="">
			<rect x="0" y="0" width="100" height="100"/>
		</g>
	</g>
	<g transform="translate(651,372) scale(0.31,0.31)">
		<g transform="">
			<rect x="0" y="0" width="100" height="100"/>
		</g>
	</g>
	<g transform="translate(682,372) scale(0.31,0.31)">
		<g transform="">
			<rect x="0" y="0" width="100" height="100"/>
		</g>
	</g>
	<g transform="translate(713,372) scale(0.31,0.31)">
		<g transform="">
			<rect x="0" y="0" width="100" height="100"/>
		</g>
	</g>
	<g transform="translate(806,372) scale(0.31,0.31)">
		<g transform="">
			<rect x="0" y="0" width="100" height="100"/>
		</g>
	</g>
	<g transform="translate(868,372) scale(0.31,0.31)">
		<g transform="">
			<rect x="0" y="0" width="100" height="100"/>
		</g>
	</g>
	<g transform="translate(899,372) scale(0.31,0.31)">
		<g transform="">
			<rect x="0" y="0" width="100" height="100"/>
		</g>
	</g>
	<g transform="translate(0,403) scale(0.31,0.31)">
		<g transform="">
			<rect x="0" y="0" width="100" height="100"/>
		</g>
	</g>
	<g transform="translate(62,403) scale(0.31,0.31)">
		<g transform="">
			<rect x="0" y="0" width="100" height="100"/>
		</g>
	</g>
	<g transform="translate(93,403) scale(0.31,0.31)">
		<g transform="">
			<rect x="0" y="0" width="100" height="100"/>
		</g>
	</g>
	<g transform="translate(155,403) scale(0.31,0.31)">
		<g transform="">
			<rect x="0" y="0" width="100" height="100"/>
		</g>
	</g>
	<g transform="translate(279,403) scale(0.31,0.31)">
		<g transform="">
			<rect x="0" y="0" width="100" height="100"/>
		</g>
	</g>
	<g transform="translate(341,403) scale(0.31,0.31)">
		<g transform="">
			<rect x="0" y="0" width="100" height="100"/>
		</g>
	</g>
	<g transform="translate(372,403) scale(0.31,0.31)">
		<g transform="">
			<rect x="0" y="0" width="100" height="100"/>
		</g>
	</g>
	<g transform="translate(403,403) scale(0.31,0.31)">
		<g transform="">
			<rect x="0" y="0" width="100" height="100"/>
		</g>
	</g>
	<g transform="translate(434,403) scale(0.31,0.31)">
		<g transform="">
			<rect x="0" y="0" width="100" height="100"/>
		</g>
	</g>
	<g transform="translate(558,403) scale(0.31,0.31)">
		<g transform="">
			<rect x="0" y="0" width="100" height="100"/>
		</g>
	</g>
	<g transform="translate(713,403) scale(0.31,0.31)">
		<g transform="">
			<rect x="0" y="0" width="100" height="100"/>
		</g>
	</g>
	<g transform="translate(775,403) scale(0.31,0.31)">
		<g transform="">
			<rect x="0" y="0" width="100" height="100"/>
		</g>
	</g>
	<g transform="translate(31,434) scale(0.31,0.31)">
		<g transform="">
			<rect x="0" y="0" width="100" height="100"/>
		</g>
	</g>
	<g transform="translate(93,434) scale(0.31,0.31)">
		<g transform="">
			<rect x="0" y="0" width="100" height="100"/>
		</g>
	</g>
	<g transform="translate(124,434) scale(0.31,0.31)">
		<g transform="">
			<rect x="0" y="0" width="100" height="100"/>
		</g>
	</g>
	<g transform="translate(186,434) scale(0.31,0.31)">
		<g transform="">
			<rect x="0" y="0" width="100" height="100"/>
		</g>
	</g>
	<g transform="translate(248,434) scale(0.31,0.31)">
		<g transform="">
			<rect x="0" y="0" width="100" height="100"/>
		</g>
	</g>
	<g transform="translate(341,434) scale(0.31,0.31)">
		<g transform="">
			<rect x="0" y="0" width="100" height="100"/>
		</g>
	</g>
	<g transform="translate(403,434) scale(0.31,0.31)">
		<g transform="">
			<rect x="0" y="0" width="100" height="100"/>
		</g>
	</g>
	<g transform="translate(434,434) scale(0.31,0.31)">
		<g transform="">
			<rect x="0" y="0" width="100" height="100"/>
		</g>
	</g>
	<g transform="translate(465,434) scale(0.31,0.31)">
		<g transform="">
			<rect x="0" y="0" width="100" height="100"/>
		</g>
	</g>
	<g transform="translate(620,434) scale(0.31,0.31)">
		<g transform="">
			<rect x="0" y="0" width="100" height="100"/>
		</g>
	</g>
	<g transform="translate(682,434) scale(0.31,0.31)">
		<g transform="">
			<rect x="0" y="0" width="100" height="100"/>
		</g>
	</g>
	<g transform="translate(713,434) scale(0.31,0.31)">
		<g transform="">
			<rect x="0" y="0" width="100" height="100"/>
		</g>
	</g>
	<g transform="translate(775,434) scale(0.31,0.31)">
		<g transform="">
			<rect x="0" y="0" width="100" height="100"/>
		</g>
	</g>
	<g transform="translate(806,434) scale(0.31,0.31)">
		<g transform="">
			<rect x="0" y="0" width="100" height="100"/>
		</g>
	</g>
	<g transform="translate(961,434) scale(0.31,0.31)">
		<g transform="">
			<rect x="0" y="0" width="100" height="100"/>
		</g>
	</g>
	<g transform="translate(0,465) scale(0.31,0.31)">
		<g transform="">
			<rect x="0" y="0" width="100" height="100"/>
		</g>
	</g>
	<g transform="translate(31,465) scale(0.31,0.31)">
		<g transform="">
			<rect x="0" y="0" width="100" height="100"/>
		</g>
	</g>
	<g transform="translate(124,465) scale(0.31,0.31)">
		<g transform="">
			<rect x="0" y="0" width="100" height="100"/>
		</g>
	</g>
	<g transform="translate(248,465) scale(0.31,0.31)">
		<g transform="">
			<rect x="0" y="0" width="100" height="100"/>
		</g>
	</g>
	<g transform="translate(310,465) scale(0.31,0.31)">
		<g transform="">
			<rect x="0" y="0" width="100" height="100"/>
		</g>
	</g>
	<g transform="translate(341,465) scale(0.31,0.31)">
		<g transform="">
			<rect x="0" y="0" width="100" height="100"/>
		</g>
	</g>
	<g transform="translate(372,465) scale(0.31,0.31)">
		<g transform="">
			<rect x="0" y="0" width="100" height="100"/>
		</g>
	</g>
	<g transform="translate(403,465) scale(0.31,0.31)">
		<g transform="">
			<rect x="0" y="0" width="100" height="100"/>
		</g>
	</g>
	<g transform="translate(465,465) scale(0.31,0.31)">
		<g transform="">
			<rect x="0" y="0" width="100" height="100"/>
		</g>
	</g>
	<g transform="translate(496,465) scale(0.31,0.31)">
		<g transform="">
			<rect x="0" y="0" width="100" height="100"/>
		</g>
	</g>
	<g transform="translate(527,465) scale(0.31,0.31)">
		<g transform="">
			<rect x="0" y="0" width="100" height="100"/>
		</g>
	</g>
	<g transform="translate(558,465) scale(0.31,0.31)">
		<g transform="">
			<rect x="0" y="0" width="100" height="100"/>
		</g>
	</g>
	<g transform="translate(589,465) scale(0.31,0.31)">
		<g transform="">
			<rect x="0" y="0" width="100" height="100"/>
		</g>
	</g>
	<g transform="translate(651,465) scale(0.31,0.31)">
		<g transform="">
			<rect x="0" y="0" width="100" height="100"/>
		</g>
	</g>
	<g transform="translate(744,465) scale(0.31,0.31)">
		<g transform="">
			<rect x="0" y="0" width="100" height="100"/>
		</g>
	</g>
	<g transform="translate(775,465) scale(0.31,0.31)">
		<g transform="">
			<rect x="0" y="0" width="100" height="100"/>
		</g>
	</g>
	<g transform="translate(806,465) scale(0.31,0.31)">
		<g transform="">
			<rect x="0" y="0" width="100" height="100"/>
		</g>
	</g>
	<g transform="translate(837,465) scale(0.31,0.31)">
		<g transform="">
			<rect x="0" y="0" width="100" height="100"/>
		</g>
	</g>
	<g transform="translate(868,465) scale(0.31,0.31)">
		<g transform="">
			<rect x="0" y="0" width="100" height="100"/>
		</g>
	</g>
	<g transform="translate(31,496) scale(0.31,0.31)">
		<g transform="">
			<rect x="0" y="0" width="100" height="100"/>
		</g>
	</g>
	<g transform="translate(93,496) scale(0.31,0.31)">
		<g transform="">
			<rect x="0" y="0" width="100" height="100"/>
		</g>
	</g>
	<g transform="translate(124,496) scale(0.31,0.31)">
		<g transform="">
			<rect x="0" y="0" width="100" height="100"/>
		</g>
	</g>
	<g transform="translate(155,496) scale(0.31,0.31)">
		<g transform="">
			<rect x="0" y="0" width="100" height="100"/>
		</g>
	</g>
	<g transform="translate(186,496) scale(0.31,0.31)">
		<g transform="">
			<rect x="0" y="0" width="100" height="100"/>
		</g>
	</g>
	<g transform="translate(217,496) scale(0.31,0.31)">
		<g transform="">
			<rect x="0" y="0" width="100" height="100"/>
		</g>
	</g>
	<g transform="translate(403,496) scale(0.31,0.31)">
		<g transform="">
			<rect x="0" y="0" width="100" height="100"/>
		</g>
	</g>
	<g transform="translate(527,496) scale(0.31,0.31)">
		<g transform="">
			<rect x="0" y="0" width="100" height="100"/>
		</g>
	</g>
	<g transform="translate(589,496) scale(0.31,0.31)">
		<g transform="">
			<rect x="0" y="0" width="100" height="100"/>
		</g>
	</g>
	<g transform="translate(620,496) scale(0.31,0.31)">
		<g transform="">
			<rect x="0" y="0" width="100" height="100"/>
		</g>
	</g>
	<g transform="translate(651,496) scale(0.31,0.31)">
		<g transform="">
			<rect x="0" y="0" width="100" height="100"/>
		</g>
	</g>
	<g transform="translate(682,496) scale(0.31,0.31)">
		<g transform="">
			<rect x="0" y="0" width="100" height="100"/>
		</g>
	</g>
	<g transform="translate(713,496) scale(0.31,0.31)">
		<g transform="">
			<rect x="0" y="0" width="100" height="100"/>
		</g>
	</g>
	<g transform="translate(744,496) scale(0.31,0.31)">
		<g transform="">
			<rect x="0" y="0" width="100" height="100"/>
		</g>
	</g>
	<g transform="translate(806,496) scale(0.31,0.31)">
		<g transform="">
			<rect x="0" y="0" width="100" height="100"/>
		</g>
	</g>
	<g transform="translate(868,496) scale(0.31,0.31)">
		<g transform="">
			<rect x="0" y="0" width="100" height="100"/>
		</g>
	</g>
	<g transform="translate(961,496) scale(0.31,0.31)">
		<g transform="">
			<rect x="0" y="0" width="100" height="100"/>
		</g>
	</g>
	<g transform="translate(62,527) scale(0.31,0.31)">
		<g transform="">
			<rect x="0" y="0" width="100" height="100"/>
		</g>
	</g>
	<g transform="translate(217,527) scale(0.31,0.31)">
		<g transform="">
			<rect x="0" y="0" width="100" height="100"/>
		</g>
	</g>
	<g transform="translate(279,527) scale(0.31,0.31)">
		<g transform="">
			<rect x="0" y="0" width="100" height="100"/>
		</g>
	</g>
	<g transform="translate(341,527) scale(0.31,0.31)">
		<g transform="">
			<rect x="0" y="0" width="100" height="100"/>
		</g>
	</g>
	<g transform="translate(372,527) scale(0.31,0.31)">
		<g transform="">
			<rect x="0" y="0" width="100" height="100"/>
		</g>
	</g>
	<g transform="translate(403,527) scale(0.31,0.31)">
		<g transform="">
			<rect x="0" y="0" width="100" height="100"/>
		</g>
	</g>
	<g transform="translate(465,527) scale(0.31,0.31)">
		<g transform="">
			<rect x="0" y="0" width="100" height="100"/>
		</g>
	</g>
	<g transform="translate(496,527) scale(0.31,0.31)">
		<g transform="">
			<rect x="0" y="0" width="100" height="100"/>
		</g>
	</g>
	<g transform="translate(558,527) scale(0.31,0.31)">
		<g transform="">
			<rect x="0" y="0" width="100" height="100"/>
		</g>
	</g>
	<g transform="translate(682,527) scale(0.31,0.31)">
		<g transform="">
			<rect x="0" y="0" width="100" height="100"/>
		</g>
	</g>
	<g transform="translate(713,527) scale(0.31,0.31)">
		<g transform="">
			<rect x="0" y="0" width="100" height="100"/>
		</g>
	</g>
	<g transform="translate(744,527) scale(0.31,0.31)">
		<g transform="">
			<rect x="0" y="0" width="100" height="100"/>
		</g>
	</g>
	<g transform="translate(899,527) scale(0.31,0.31)">
		<g transform="">
			<rect x="0" y="0" width="100" height="100"/>
		</g>
	</g>
	<g transform="translate(930,527) scale(0.31,0.31)">
		<g transform="">
			<rect x="0" y="0" width="100" height="100"/>
		</g>
	</g>
	<g transform="translate(961,527) scale(0.31,0.31)">
		<g transform="">
			<rect x="0" y="0" width="100" height="100"/>
		</g>
	</g>
	<g transform="translate(0,558) scale(0.31,0.31)">
		<g transform="">
			<rect x="0" y="0" width="100" height="100"/>
		</g>
	</g>
	<g transform="translate(186,558) scale(0.31,0.31)">
		<g transform="">
			<rect x="0" y="0" width="100" height="100"/>
		</g>
	</g>
	<g transform="translate(248,558) scale(0.31,0.31)">
		<g transform="">
			<rect x="0" y="0" width="100" height="100"/>
		</g>
	</g>
	<g transform="translate(341,558) scale(0.31,0.31)">
		<g transform="">
			<rect x="0" y="0" width="100" height="100"/>
		</g>
	</g>
	<g transform="translate(434,558) scale(0.31,0.31)">
		<g transform="">
			<rect x="0" y="0" width="100" height="100"/>
		</g>
	</g>
	<g transform="translate(465,558) scale(0.31,0.31)">
		<g transform="">
			<rect x="0" y="0" width="100" height="100"/>
		</g>
	</g>
	<g transform="translate(527,558) scale(0.31,0.31)">
		<g transform="">
			<rect x="0" y="0" width="100" height="100"/>
		</g>
	</g>
	<g transform="translate(682,558) scale(0.31,0.31)">
		<g transform="">
			<rect x="0" y="0" width="100" height="100"/>
		</g>
	</g>
	<g transform="translate(713,558) scale(0.31,0.31)">
		<g transform="">
			<rect x="0" y="0" width="100" height="100"/>
		</g>
	</g>
	<g transform="translate(744,558) scale(0.31,0.31)">
		<g transform="">
			<rect x="0" y="0" width="100" height="100"/>
		</g>
	</g>
	<g transform="translate(775,558) scale(0.31,0.31)">
		<g transform="">
			<rect x="0" y="0" width="100" height="100"/>
		</g>
	</g>
	<g transform="translate(837,558) scale(0.31,0.31)">
		<g transform="">
			<rect x="0" y="0" width="100" height="100"/>
		</g>
	</g>
	<g transform="translate(899,558) scale(0.31,0.31)">
		<g transform="">
			<rect x="0" y="0" width="100" height="100"/>
		</g>
	</g>
	<g transform="translate(62,589) scale(0.31,0.31)">
		<g transform="">
			<rect x="0" y="0" width="100" height="100"/>
		</g>
	</g>
	<g transform="translate(124,589) scale(0.31,0.31)">
		<g transform="">
			<rect x="0" y="0" width="100" height="100"/>
		</g>
	</g>
	<g transform="translate(155,589) scale(0.31,0.31)">
		<g transform="">
			<rect x="0" y="0" width="100" height="100"/>
		</g>
	</g>
	<g transform="translate(341,589) scale(0.31,0.31)">
		<g transform="">
			<rect x="0" y="0" width="100" height="100"/>
		</g>
	</g>
	<g transform="translate(527,589) scale(0.31,0.31)">
		<g transform="">
			<rect x="0" y="0" width="100" height="100"/>
		</g>
	</g>
	<g transform="translate(558,589) scale(0.31,0.31)">
		<g transform="">
			<rect x="0" y="0" width="100" height="100"/>
		</g>
	</g>
	<g transform="translate(589,589) scale(0.31,0.31)">
		<g transform="">
			<rect x="0" y="0" width="100" height="100"/>
		</g>
	</g>
	<g transform="translate(651,589) scale(0.31,0.31)">
		<g transform="">
			<rect x="0" y="0" width="100" height="100"/>
		</g>
	</g>
	<g transform="translate(744,589) scale(0.31,0.31)">
		<g transform="">
			<rect x="0" y="0" width="100" height="100"/>
		</g>
	</g>
	<g transform="translate(806,589) scale(0.31,0.31)">
		<g transform="">
			<rect x="0" y="0" width="100" height="100"/>
		</g>
	</g>
	<g transform="translate(837,589) scale(0.31,0.31)">
		<g transform="">
			<rect x="0" y="0" width="100" height="100"/>
		</g>
	</g>
	<g transform="translate(961,589) scale(0.31,0.31)">
		<g transform="">
			<rect x="0" y="0" width="100" height="100"/>
		</g>
	</g>
	<g transform="translate(992,589) scale(0.31,0.31)">
		<g transform="">
			<rect x="0" y="0" width="100" height="100"/>
		</g>
	</g>
	<g transform="translate(62,620) scale(0.31,0.31)">
		<g transform="">
			<rect x="0" y="0" width="100" height="100"/>
		</g>
	</g>
	<g transform="translate(93,620) scale(0.31,0.31)">
		<g transform="">
			<rect x="0" y="0" width="100" height="100"/>
		</g>
	</g>
	<g transform="translate(155,620) scale(0.31,0.31)">
		<g transform="">
			<rect x="0" y="0" width="100" height="100"/>
		</g>
	</g>
	<g transform="translate(186,620) scale(0.31,0.31)">
		<g transform="">
			<rect x="0" y="0" width="100" height="100"/>
		</g>
	</g>
	<g transform="translate(217,620) scale(0.31,0.31)">
		<g transform="">
			<rect x="0" y="0" width="100" height="100"/>
		</g>
	</g>
	<g transform="translate(310,620) scale(0.31,0.31)">
		<g transform="">
			<rect x="0" y="0" width="100" height="100"/>
		</g>
	</g>
	<g transform="translate(372,620) scale(0.31,0.31)">
		<g transform="">
			<rect x="0" y="0" width="100" height="100"/>
		</g>
	</g>
	<g transform="translate(403,620) scale(0.31,0.31)">
		<g transform="">
			<rect x="0" y="0" width="100" height="100"/>
		</g>
	</g>
	<g transform="translate(558,620) scale(0.31,0.31)">
		<g transform="">
			<rect x="0" y="0" width="100" height="100"/>
		</g>
	</g>
	<g transform="translate(589,620) scale(0.31,0.31)">
		<g transform="">
			<rect x="0" y="0" width="100" height="100"/>
		</g>
	</g>
	<g transform="translate(651,620) scale(0.31,0.31)">
		<g transform="">
			<rect x="0" y="0" width="100" height="100"/>
		</g>
	</g>
	<g transform="translate(682,620) scale(0.31,0.31)">
		<g transform="">
			<rect x="0" y="0" width="100" height="100"/>
		</g>
	</g>
	<g transform="translate(744,620) scale(0.31,0.31)">
		<g transform="">
			<rect x="0" y="0" width="100" height="100"/>
		</g>
	</g>
	<g transform="translate(806,620) scale(0.31,0.31)">
		<g transform="">
			<rect x="0" y="0" width="100" height="100"/>
		</g>
	</g>
	<g transform="translate(837,620) scale(0.31,0.31)">
		<g transform="">
			<rect x="0" y="0" width="100" height="100"/>
		</g>
	</g>
	<g transform="translate(868,620) scale(0.31,0.31)">
		<g transform="">
			<rect x="0" y="0" width="100" height="100"/>
		</g>
	</g>
	<g transform="translate(899,620) scale(0.31,0.31)">
		<g transform="">
			<rect x="0" y="0" width="100" height="100"/>
		</g>
	</g>
	<g transform="translate(961,620) scale(0.31,0.31)">
		<g transform="">
			<rect x="0" y="0" width="100" height="100"/>
		</g>
	</g>
	<g transform="translate(992,620) scale(0.31,0.31)">
		<g transform="">
			<rect x="0" y="0" width="100" height="100"/>
		</g>
	</g>
	<g transform="translate(0,651) scale(0.31,0.31)">
		<g transform="">
			<rect x="0" y="0" width="100" height="100"/>
		</g>
	</g>
	<g transform="translate(31,651) scale(0.31,0.31)">
		<g transform="">
			<rect x="0" y="0" width="100" height="100"/>
		</g>
	</g>
	<g transform="translate(62,651) scale(0.31,0.31)">
		<g transform="">
			<rect x="0" y="0" width="100" height="100"/>
		</g>
	</g>
	<g transform="translate(124,651) scale(0.31,0.31)">
		<g transform="">
			<rect x="0" y="0" width="100" height="100"/>
		</g>
	</g>
	<g transform="translate(248,651) scale(0.31,0.31)">
		<g transform="">
			<rect x="0" y="0" width="100" height="100"/>
		</g>
	</g>
	<g transform="translate(310,651) scale(0.31,0.31)">
		<g transform="">
			<rect x="0" y="0" width="100" height="100"/>
		</g>
	</g>
	<g transform="translate(372,651) scale(0.31,0.31)">
		<g transform="">
			<rect x="0" y="0" width="100" height="100"/>
		</g>
	</g>
	<g transform="translate(403,651) scale(0.31,0.31)">
		<g transform="">
			<rect x="0" y="0" width="100" height="100"/>
		</g>
	</g>
	<g transform="translate(434,651) scale(0.31,0.31)">
		<g transform="">
			<rect x="0" y="0" width="100" height="100"/>
		</g>
	</g>
	<g transform="translate(496,651) scale(0.31,0.31)">
		<g transform="">
			<rect x="0" y="0" width="100" height="100"/>
		</g>
	</g>
	<g transform="translate(527,651) scale(0.31,0.31)">
		<g transform="">
			<rect x="0" y="0" width="100" height="100"/>
		</g>
	</g>
	<g transform="translate(713,651) scale(0.31,0.31)">
		<g transform="">
			<rect x="0" y="0" width="100" height="100"/>
		</g>
	</g>
	<g transform="translate(744,651) scale(0.31,0.31)">
		<g transform="">
			<rect x="0" y="0" width="100" height="100"/>
		</g>
	</g>
	<g transform="translate(775,651) scale(0.31,0.31)">
		<g transform="">
			<rect x="0" y="0" width="100" height="100"/>
		</g>
	</g>
	<g transform="translate(837,651) scale(0.31,0.31)">
		<g transform="">
			<rect x="0" y="0" width="100" height="100"/>
		</g>
	</g>
	<g transform="translate(899,651) scale(0.31,0.31)">
		<g transform="">
			<rect x="0" y="0" width="100" height="100"/>
		</g>
	</g>
	<g transform="translate(961,651) scale(0.31,0.31)">
		<g transform="">
			<rect x="0" y="0" width="100" height="100"/>
		</g>
	</g>
	<g transform="translate(124,682) scale(0.31,0.31)">
		<g transform="">
			<rect x="0" y="0" width="100" height="100"/>
		</g>
	</g>
	<g transform="translate(186,682) scale(0.31,0.31)">
		<g transform="">
			<rect x="0" y="0" width="100" height="100"/>
		</g>
	</g>
	<g transform="translate(248,682) scale(0.31,0.31)">
		<g transform="">
			<rect x="0" y="0" width="100" height="100"/>
		</g>
	</g>
	<g transform="translate(310,682) scale(0.31,0.31)">
		<g transform="">
			<rect x="0" y="0" width="100" height="100"/>
		</g>
	</g>
	<g transform="translate(434,682) scale(0.31,0.31)">
		<g transform="">
			<rect x="0" y="0" width="100" height="100"/>
		</g>
	</g>
	<g transform="translate(496,682) scale(0.31,0.31)">
		<g transform="">
			<rect x="0" y="0" width="100" height="100"/>
		</g>
	</g>
	<g transform="translate(558,682) scale(0.31,0.31)">
		<g transform="">
			<rect x="0" y="0" width="100" height="100"/>
		</g>
	</g>
	<g transform="translate(620,682) scale(0.31,0.31)">
		<g transform="">
			<rect x="0" y="0" width="100" height="100"/>
		</g>
	</g>
	<g transform="translate(651,682) scale(0.31,0.31)">
		<g transform="">
			<rect x="0" y="0" width="100" height="100"/>
		</g>
	</g>
	<g transform="translate(713,682) scale(0.31,0.31)">
		<g transform="">
			<rect x="0" y="0" width="100" height="100"/>
		</g>
	</g>
	<g transform="translate(775,682) scale(0.31,0.31)">
		<g transform="">
			<rect x="0" y="0" width="100" height="100"/>
		</g>
	</g>
	<g transform="translate(868,682) scale(0.31,0.31)">
		<g transform="">
			<rect x="0" y="0" width="100" height="100"/>
		</g>
	</g>
	<g transform="translate(930,682) scale(0.31,0.31)">
		<g transform="">
			<rect x="0" y="0" width="100" height="100"/>
		</g>
	</g>
	<g transform="translate(961,682) scale(0.31,0.31)">
		<g transform="">
			<rect x="0" y="0" width="100" height="100"/>
		</g>
	</g>
	<g transform="translate(217,713) scale(0.31,0.31)">
		<g transform="">
			<rect x="0" y="0" width="100" height="100"/>
		</g>
	</g>
	<g transform="translate(279,713) scale(0.31,0.31)">
		<g transform="">
			<rect x="0" y="0" width="100" height="100"/>
		</g>
	</g>
	<g transform="translate(372,713) scale(0.31,0.31)">
		<g transform="">
			<rect x="0" y="0" width="100" height="100"/>
		</g>
	</g>
	<g transform="translate(434,713) scale(0.31,0.31)">
		<g transform="">
			<rect x="0" y="0" width="100" height="100"/>
		</g>
	</g>
	<g transform="translate(527,713) scale(0.31,0.31)">
		<g transform="">
			<rect x="0" y="0" width="100" height="100"/>
		</g>
	</g>
	<g transform="translate(558,713) scale(0.31,0.31)">
		<g transform="">
			<rect x="0" y="0" width="100" height="100"/>
		</g>
	</g>
	<g transform="translate(620,713) scale(0.31,0.31)">
		<g transform="">
			<rect x="0" y="0" width="100" height="100"/>
		</g>
	</g>
	<g transform="translate(651,713) scale(0.31,0.31)">
		<g transform="">
			<rect x="0" y="0" width="100" height="100"/>
		</g>
	</g>
	<g transform="translate(682,713) scale(0.31,0.31)">
		<g transform="">
			<rect x="0" y="0" width="100" height="100"/>
		</g>
	</g>
	<g transform="translate(775,713) scale(0.31,0.31)">
		<g transform="">
			<rect x="0" y="0" width="100" height="100"/>
		</g>
	</g>
	<g transform="translate(806,713) scale(0.31,0.31)">
		<g transform="">
			<rect x="0" y="0" width="100" height="100"/>
		</g>
	</g>
	<g transform="translate(837,713) scale(0.31,0.31)">
		<g transform="">
			<rect x="0" y="0" width="100" height="100"/>
		</g>
	</g>
	<g transform="translate(961,713) scale(0.31,0.31)">
		<g transform="">
			<rect x="0" y="0" width="100" height="100"/>
		</g>
	</g>
	<g transform="translate(0,744) scale(0.31,0.31)">
		<g transform="">
			<rect x="0" y="0" width="100" height="100"/>
		</g>
	</g>
	<g transform="translate(31,744) scale(0.31,0.31)">
		<g transform="">
			<rect x="0" y="0" width="100" height="100"/>
		</g>
	</g>
	<g transform="translate(62,744) scale(0.31,0.31)">
		<g transform="">
			<rect x="0" y="0" width="100" height="100"/>
		</g>
	</g>
	<g transform="translate(124,744) scale(0.31,0.31)">
		<g transform="">
			<rect x="0" y="0" width="100" height="100"/>
		</g>
	</g>
	<g transform="translate(155,744) scale(0.31,0.31)">
		<g transform="">
			<rect x="0" y="0" width="100" height="100"/>
		</g>
	</g>
	<g transform="translate(186,744) scale(0.31,0.31)">
		<g transform="">
			<rect x="0" y="0" width="100" height="100"/>
		</g>
	</g>
	<g transform="translate(341,744) scale(0.31,0.31)">
		<g transform="">
			<rect x="0" y="0" width="100" height="100"/>
		</g>
	</g>
	<g transform="translate(372,744) scale(0.31,0.31)">
		<g transform="">
			<rect x="0" y="0" width="100" height="100"/>
		</g>
	</g>
	<g transform="translate(403,744) scale(0.31,0.31)">
		<g transform="">
			<rect x="0" y="0" width="100" height="100"/>
		</g>
	</g>
	<g transform="translate(434,744) scale(0.31,0.31)">
		<g transform="">
			<rect x="0" y="0" width="100" height="100"/>
		</g>
	</g>
	<g transform="translate(465,744) scale(0.31,0.31)">
		<g transform="">
			<rect x="0" y="0" width="100" height="100"/>
		</g>
	</g>
	<g transform="translate(496,744) scale(0.31,0.31)">
		<g transform="">
			<rect x="0" y="0" width="100" height="100"/>
		</g>
	</g>
	<g transform="translate(527,744) scale(0.31,0.31)">
		<g transform="">
			<rect x="0" y="0" width="100" height="100"/>
		</g>
	</g>
	<g transform="translate(589,744) scale(0.31,0.31)">
		<g transform="">
			<rect x="0" y="0" width="100" height="100"/>
		</g>
	</g>
	<g transform="translate(651,744) scale(0.31,0.31)">
		<g transform="">
			<rect x="0" y="0" width="100" height="100"/>
		</g>
	</g>
	<g transform="translate(682,744) scale(0.31,0.31)">
		<g transform="">
			<rect x="0" y="0" width="100" height="100"/>
		</g>
	</g>
	<g transform="translate(744,744) scale(0.31,0.31)">
		<g transform="">
			<rect x="0" y="0" width="100" height="100"/>
		</g>
	</g>
	<g transform="translate(775,744) scale(0.31,0.31)">
		<g transform="">
			<rect x="0" y="0" width="100" height="100"/>
		</g>
	</g>
	<g transform="translate(806,744) scale(0.31,0.31)">
		<g transform="">
			<rect x="0" y="0" width="100" height="100"/>
		</g>
	</g>
	<g transform="translate(837,744) scale(0.31,0.31)">
		<g transform="">
			<rect x="0" y="0" width="100" height="100"/>
		</g>
	</g>
	<g transform="translate(868,744) scale(0.31,0.31)">
		<g transform="">
			<rect x="0" y="0" width="100" height="100"/>
		</g>
	</g>
	<g transform="translate(992,744) scale(0.31,0.31)">
		<g transform="">
			<rect x="0" y="0" width="100" height="100"/>
		</g>
	</g>
	<g transform="translate(248,775) scale(0.31,0.31)">
		<g transform="">
			<rect x="0" y="0" width="100" height="100"/>
		</g>
	</g>
	<g transform="translate(279,775) scale(0.31,0.31)">
		<g transform="">
			<rect x="0" y="0" width="100" height="100"/>
		</g>
	</g>
	<g transform="translate(341,775) scale(0.31,0.31)">
		<g transform="">
			<rect x="0" y="0" width="100" height="100"/>
		</g>
	</g>
	<g transform="translate(403,775) scale(0.31,0.31)">
		<g transform="">
			<rect x="0" y="0" width="100" height="100"/>
		</g>
	</g>
	<g transform="translate(465,775) scale(0.31,0.31)">
		<g transform="">
			<rect x="0" y="0" width="100" height="100"/>
		</g>
	</g>
	<g transform="translate(496,775) scale(0.31,0.31)">
		<g transform="">
			<rect x="0" y="0" width="100" height="100"/>
		</g>
	</g>
	<g transform="translate(527,775) scale(0.31,0.31)">
		<g transform="">
			<rect x="0" y="0" width="100" height="100"/>
		</g>
	</g>
	<g transform="translate(558,775) scale(0.31,0.31)">
		<g transform="">
			<rect x="0" y="0" width="100" height="100"/>
		</g>
	</g>
	<g transform="translate(713,775) scale(0.31,0.31)">
		<g transform="">
			<rect x="0" y="0" width="100" height="100"/>
		</g>
	</g>
	<g transform="translate(744,775) scale(0.31,0.31)">
		<g transform="">
			<rect x="0" y="0" width="100" height="100"/>
		</g>
	</g>
	<g transform="translate(868,775) scale(0.31,0.31)">
		<g transform="">
			<rect x="0" y="0" width="100" height="100"/>
		</g>
	</g>
	<g transform="translate(930,775) scale(0.31,0.31)">
		<g transform="">
			<rect x="0" y="0" width="100" height="100"/>
		</g>
	</g>
	<g transform="translate(248,806) scale(0.31,0.31)">
		<g transform="">
			<rect x="0" y="0" width="100" height="100"/>
		</g>
	</g>
	<g transform="translate(279,806) scale(0.31,0.31)">
		<g transform="">
			<rect x="0" y="0" width="100" height="100"/>
		</g>
	</g>
	<g transform="translate(310,806) scale(0.31,0.31)">
		<g transform="">
			<rect x="0" y="0" width="100" height="100"/>
		</g>
	</g>
	<g transform="translate(341,806) scale(0.31,0.31)">
		<g transform="">
			<rect x="0" y="0" width="100" height="100"/>
		</g>
	</g>
	<g transform="translate(465,806) scale(0.31,0.31)">
		<g transform="">
			<rect x="0" y="0" width="100" height="100"/>
		</g>
	</g>
	<g transform="translate(558,806) scale(0.31,0.31)">
		<g transform="">
			<rect x="0" y="0" width="100" height="100"/>
		</g>
	</g>
	<g transform="translate(620,806) scale(0.31,0.31)">
		<g transform="">
			<rect x="0" y="0" width="100" height="100"/>
		</g>
	</g>
	<g transform="translate(651,806) scale(0.31,0.31)">
		<g transform="">
			<rect x="0" y="0" width="100" height="100"/>
		</g>
	</g>
	<g transform="translate(744,806) scale(0.31,0.31)">
		<g transform="">
			<rect x="0" y="0" width="100" height="100"/>
		</g>
	</g>
	<g transform="translate(806,806) scale(0.31,0.31)">
		<g transform="">
			<rect x="0" y="0" width="100" height="100"/>
		</g>
	</g>
	<g transform="translate(868,806) scale(0.31,0.31)">
		<g transform="">
			<rect x="0" y="0" width="100" height="100"/>
		</g>
	</g>
	<g transform="translate(899,806) scale(0.31,0.31)">
		<g transform="">
			<rect x="0" y="0" width="100" height="100"/>
		</g>
	</g>
	<g transform="translate(961,806) scale(0.31,0.31)">
		<g transform="">
			<rect x="0" y="0" width="100" height="100"/>
		</g>
	</g>
	<g transform="translate(341,837) scale(0.31,0.31)">
		<g transform="">
			<rect x="0" y="0" width="100" height="100"/>
		</g>
	</g>
	<g transform="translate(403,837) scale(0.31,0.31)">
		<g transform="">
			<rect x="0" y="0" width="100" height="100"/>
		</g>
	</g>
	<g transform="translate(434,837) scale(0.31,0.31)">
		<g transform="">
			<rect x="0" y="0" width="100" height="100"/>
		</g>
	</g>
	<g transform="translate(589,837) scale(0.31,0.31)">
		<g transform="">
			<rect x="0" y="0" width="100" height="100"/>
		</g>
	</g>
	<g transform="translate(620,837) scale(0.31,0.31)">
		<g transform="">
			<rect x="0" y="0" width="100" height="100"/>
		</g>
	</g>
	<g transform="translate(651,837) scale(0.31,0.31)">
		<g transform="">
			<rect x="0" y="0" width="100" height="100"/>
		</g>
	</g>
	<g transform="translate(744,837) scale(0.31,0.31)">
		<g transform="">
			<rect x="0" y="0" width="100" height="100"/>
		</g>
	</g>
	<g transform="translate(868,837) scale(0.31,0.31)">
		<g transform="">
			<rect x="0" y="0" width="100" height="100"/>
		</g>
	</g>
	<g transform="translate(248,868) scale(0.31,0.31)">
		<g transform="">
			<rect x="0" y="0" width="100" height="100"/>
		</g>
	</g>
	<g transform="translate(310,868) scale(0.31,0.31)">
		<g transform="">
			<rect x="0" y="0" width="100" height="100"/>
		</g>
	</g>
	<g transform="translate(341,868) scale(0.31,0.31)">
		<g transform="">
			<rect x="0" y="0" width="100" height="100"/>
		</g>
	</g>
	<g transform="translate(403,868) scale(0.31,0.31)">
		<g transform="">
			<rect x="0" y="0" width="100" height="100"/>
		</g>
	</g>
	<g transform="translate(434,868) scale(0.31,0.31)">
		<g transform="">
			<rect x="0" y="0" width="100" height="100"/>
		</g>
	</g>
	<g transform="translate(465,868) scale(0.31,0.31)">
		<g transform="">
			<rect x="0" y="0" width="100" height="100"/>
		</g>
	</g>
	<g transform="translate(496,868) scale(0.31,0.31)">
		<g transform="">
			<rect x="0" y="0" width="100" height="100"/>
		</g>
	</g>
	<g transform="translate(589,868) scale(0.31,0.31)">
		<g transform="">
			<rect x="0" y="0" width="100" height="100"/>
		</g>
	</g>
	<g transform="translate(651,868) scale(0.31,0.31)">
		<g transform="">
			<rect x="0" y="0" width="100" height="100"/>
		</g>
	</g>
	<g transform="translate(744,868) scale(0.31,0.31)">
		<g transform="">
			<rect x="0" y="0" width="100" height="100"/>
		</g>
	</g>
	<g transform="translate(775,868) scale(0.31,0.31)">
		<g transform="">
			<rect x="0" y="0" width="100" height="100"/>
		</g>
	</g>
	<g transform="translate(806,868) scale(0.31,0.31)">
		<g transform="">
			<rect x="0" y="0" width="100" height="100"/>
		</g>
	</g>
	<g transform="translate(837,868) scale(0.31,0.31)">
		<g transform="">
			<rect x="0" y="0" width="100" height="100"/>
		</g>
	</g>
	<g transform="translate(868,868) scale(0.31,0.31)">
		<g transform="">
			<rect x="0" y="0" width="100" height="100"/>
		</g>
	</g>
	<g transform="translate(899,868) scale(0.31,0.31)">
		<g transform="">
			<rect x="0" y="0" width="100" height="100"/>
		</g>
	</g>
	<g transform="translate(992,868) scale(0.31,0.31)">
		<g transform="">
			<rect x="0" y="0" width="100" height="100"/>
		</g>
	</g>
	<g transform="translate(279,899) scale(0.31,0.31)">
		<g transform="">
			<rect x="0" y="0" width="100" height="100"/>
		</g>
	</g>
	<g transform="translate(341,899) scale(0.31,0.31)">
		<g transform="">
			<rect x="0" y="0" width="100" height="100"/>
		</g>
	</g>
	<g transform="translate(372,899) scale(0.31,0.31)">
		<g transform="">
			<rect x="0" y="0" width="100" height="100"/>
		</g>
	</g>
	<g transform="translate(434,899) scale(0.31,0.31)">
		<g transform="">
			<rect x="0" y="0" width="100" height="100"/>
		</g>
	</g>
	<g transform="translate(527,899) scale(0.31,0.31)">
		<g transform="">
			<rect x="0" y="0" width="100" height="100"/>
		</g>
	</g>
	<g transform="translate(558,899) scale(0.31,0.31)">
		<g transform="">
			<rect x="0" y="0" width="100" height="100"/>
		</g>
	</g>
	<g transform="translate(713,899) scale(0.31,0.31)">
		<g transform="">
			<rect x="0" y="0" width="100" height="100"/>
		</g>
	</g>
	<g transform="translate(806,899) scale(0.31,0.31)">
		<g transform="">
			<rect x="0" y="0" width="100" height="100"/>
		</g>
	</g>
	<g transform="translate(837,899) scale(0.31,0.31)">
		<g transform="">
			<rect x="0" y="0" width="100" height="100"/>
		</g>
	</g>
	<g transform="translate(868,899) scale(0.31,0.31)">
		<g transform="">
			<rect x="0" y="0" width="100" height="100"/>
		</g>
	</g>
	<g transform="translate(899,899) scale(0.31,0.31)">
		<g transform="">
			<rect x="0" y="0" width="100" height="100"/>
		</g>
	</g>
	<g transform="translate(930,899) scale(0.31,0.31)">
		<g transform="">
			<rect x="0" y="0" width="100" height="100"/>
		</g>
	</g>
	<g transform="translate(341,930) scale(0.31,0.31)">
		<g transform="">
			<rect x="0" y="0" width="100" height="100"/>
		</g>
	</g>
	<g transform="translate(465,930) scale(0.31,0.31)">
		<g transform="">
			<rect x="0" y="0" width="100" height="100"/>
		</g>
	</g>
	<g transform="translate(527,930) scale(0.31,0.31)">
		<g transform="">
			<rect x="0" y="0" width="100" height="100"/>
		</g>
	</g>
	<g transform="translate(558,930) scale(0.31,0.31)">
		<g transform="">
			<rect x="0" y="0" width="100" height="100"/>
		</g>
	</g>
	<g transform="translate(651,930) scale(0.31,0.31)">
		<g transform="">
			<rect x="0" y="0" width="100" height="100"/>
		</g>
	</g>
	<g transform="translate(682,930) scale(0.31,0.31)">
		<g transform="">
			<rect x="0" y="0" width="100" height="100"/>
		</g>
	</g>
	<g transform="translate(775,930) scale(0.31,0.31)">
		<g transform="">
			<rect x="0" y="0" width="100" height="100"/>
		</g>
	</g>
	<g transform="translate(806,930) scale(0.31,0.31)">
		<g transform="">
			<rect x="0" y="0" width="100" height="100"/>
		</g>
	</g>
	<g transform="translate(837,930) scale(0.31,0.31)">
		<g transform="">
			<rect x="0" y="0" width="100" height="100"/>
		</g>
	</g>
	<g transform="translate(868,930) scale(0.31,0.31)">
		<g transform="">
			<rect x="0" y="0" width="100" height="100"/>
		</g>
	</g>
	<g transform="translate(930,930) scale(0.31,0.31)">
		<g transform="">
			<rect x="0" y="0" width="100" height="100"/>
		</g>
	</g>
	<g transform="translate(279,961) scale(0.31,0.31)">
		<g transform="">
			<rect x="0" y="0" width="100" height="100"/>
		</g>
	</g>
	<g transform="translate(341,961) scale(0.31,0.31)">
		<g transform="">
			<rect x="0" y="0" width="100" height="100"/>
		</g>
	</g>
	<g transform="translate(434,961) scale(0.31,0.31)">
		<g transform="">
			<rect x="0" y="0" width="100" height="100"/>
		</g>
	</g>
	<g transform="translate(465,961) scale(0.31,0.31)">
		<g transform="">
			<rect x="0" y="0" width="100" height="100"/>
		</g>
	</g>
	<g transform="translate(496,961) scale(0.31,0.31)">
		<g transform="">
			<rect x="0" y="0" width="100" height="100"/>
		</g>
	</g>
	<g transform="translate(527,961) scale(0.31,0.31)">
		<g transform="">
			<rect x="0" y="0" width="100" height="100"/>
		</g>
	</g>
	<g transform="translate(558,961) scale(0.31,0.31)">
		<g transform="">
			<rect x="0" y="0" width="100" height="100"/>
		</g>
	</g>
	<g transform="translate(589,961) scale(0.31,0.31)">
		<g transform="">
			<rect x="0" y="0" width="100" height="100"/>
		</g>
	</g>
	<g transform="translate(620,961) scale(0.31,0.31)">
		<g transform="">
			<rect x="0" y="0" width="100" height="100"/>
		</g>
	</g>
	<g transform="translate(651,961) scale(0.31,0.31)">
		<g transform="">
			<rect x="0" y="0" width="100" height="100"/>
		</g>
	</g>
	<g transform="translate(744,961) scale(0.31,0.31)">
		<g transform="">
			<rect x="0" y="0" width="100" height="100"/>
		</g>
	</g>
	<g transform="translate(775,961) scale(0.31,0.31)">
		<g transform="">
			<rect x="0" y="0" width="100" height="100"/>
		</g>
	</g>
	<g transform="translate(806,961) scale(0.31,0.31)">
		<g transform="">
			<rect x="0" y="0" width="100" height="100"/>
		</g>
	</g>
	<g transform="translate(248,992) scale(0.31,0.31)">
		<g transform="">
			<rect x="0" width="100" height="100"/>
		</g>
	</g>
	<g transform="translate(279,992) scale(0.31,0.31)">
		<g transform="">
			<rect x="0" width="100" height="100"/>
		</g>
	</g>
	<g transform="translate(310,992) scale(0.31,0.31)">
		<g transform="">
			<rect x="0" width="100" height="100"/>
		</g>
	</g>
	<g transform="translate(372,992) scale(0.31,0.31)">
		<g transform="">
			<rect x="0" width="100" height="100"/>
		</g>
	</g>
	<g transform="translate(434,992) scale(0.31,0.31)">
		<g transform="">
			<rect x="0" width="100" height="100"/>
		</g>
	</g>
	<g transform="translate(527,992) scale(0.31,0.31)">
		<g transform="">
			<rect x="0" width="100" height="100"/>
		</g>
	</g>
	<g transform="translate(558,992) scale(0.31,0.31)">
		<g transform="">
			<rect x="0" width="100" height="100"/>
		</g>
	</g>
	<g transform="translate(620,992) scale(0.31,0.31)">
		<g transform="">
			<rect x="0" width="100" height="100"/>
		</g>
	</g>
	<g transform="translate(651,992) scale(0.31,0.31)">
		<g transform="">
			<rect x="0" width="100" height="100"/>
		</g>
	</g>
	<g transform="translate(682,992) scale(0.31,0.31)">
		<g transform="">
			<rect x="0" width="100" height="100"/>
		</g>
	</g>
	<g transform="translate(713,992) scale(0.31,0.31)">
		<g transform="">
			<rect x="0" width="100" height="100"/>
		</g>
	</g>
	<g transform="translate(744,992) scale(0.31,0.31)">
		<g transform="">
			<rect x="0" width="100" height="100"/>
		</g>
	</g>
	<g transform="translate(992,992) scale(0.31,0.31)">
		<g transform="">
			<rect x="0" width="100" height="100"/>
		</g>
	</g>
	<g transform="translate(0,0) scale(2.1485148514851, 2.1485148514851)">
		<g transform="">
			<g>
				<path class="st0" d="M90.1,71.2c-2.9-1-5.1-3.8-5.1-7.1s2.1-6.1,5.1-7.1c-2.9-1-5.1-3.8-5.1-7.1c0-3.3,2.1-6.1,5.1-7.1
					c-2.9-1-5.1-3.8-5.1-7.1s2.1-6.1,5.1-7.1c-2.9-1-5.1-3.8-5.1-7.1s2.1-6.1,5.1-7.1c-2.2-0.8-3.9-2.5-4.6-4.6
					c-1,2.9-3.8,5.1-7.1,5.1c-3.3,0-6.1-2.1-7.1-5.1c-1,2.9-3.8,5.1-7.1,5.1c-3.3,0-6.1-2.1-7.1-5.1c-1,2.9-3.8,5.1-7.1,5.1
					c-3.3,0-6.1-2.1-7.1-5.1c-1,2.9-3.8,5.1-7.1,5.1s-6.1-2.1-7.1-5.1c-1,2.9-3.8,5.1-7.1,5.1s-6.1-2.1-7.1-5.1
					c-0.8,2.2-2.5,3.9-4.6,4.6c2.9,1,5.1,3.8,5.1,7.1s-2.1,6.1-5.1,7.1c2.9,1,5.1,3.8,5.1,7.1s-2.1,6.1-5.1,7.1
					c2.9,1,5.1,3.8,5.1,7.1c0,3.3-2.1,6.1-5.1,7.1c2.9,1,5.1,3.8,5.1,7.1c0,3.3-2.1,6.1-5.1,7.1c2.9,1,5.1,3.8,5.1,7.1
					c0,3.3-2.1,6.1-5.1,7.1c2.2,0.8,3.9,2.5,4.6,4.6c1-2.9,3.8-5.1,7.1-5.1s6.1,2.1,7.1,5.1c1-2.9,3.8-5.1,7.1-5.1s6.1,2.1,7.1,5.1
					c1-2.9,3.8-5.1,7.1-5.1c3.3,0,6.1,2.1,7.1,5.1c1-2.9,3.8-5.1,7.1-5.1c3.3,0,6.1,2.1,7.1,5.1c1-2.9,3.8-5.1,7.1-5.1
					c3.3,0,6.1,2.1,7.1,5.1c0.8-2.2,2.5-3.9,4.6-4.6c-2.9-1-5.1-3.8-5.1-7.1C85,75,87.1,72.3,90.1,71.2z"/>
				<path d="M100,21.7c0-3.3-2.1-6.1-5.1-7.1c2.9-1,5.1-3.8,5.1-7.1c0-4.1-3.4-7.5-7.5-7.5c-3.3,0-6.1,2.1-7.1,5.1
					c-1-2.9-3.8-5.1-7.1-5.1c-3.3,0-6.1,2.1-7.1,5.1c-1-2.9-3.8-5.1-7.1-5.1c-3.3,0-6.1,2.1-7.1,5.1C56.1,2.1,53.3,0,50,0
					c-3.3,0-6.1,2.1-7.1,5.1c-1-2.9-3.8-5.1-7.1-5.1s-6.1,2.1-7.1,5.1C27.7,2.1,25,0,21.7,0s-6.1,2.1-7.1,5.1C13.6,2.1,10.8,0,7.5,0
					C3.4,0,0,3.4,0,7.5c0,3.3,2.1,6.1,5.1,7.1c-2.9,1-5.1,3.8-5.1,7.1s2.1,6.1,5.1,7.1c-2.9,1-5.1,3.8-5.1,7.1s2.1,6.1,5.1,7.1
					C2.1,43.9,0,46.7,0,50c0,3.3,2.1,6.1,5.1,7.1c-2.9,1-5.1,3.8-5.1,7.1c0,3.3,2.1,6.1,5.1,7.1C2.1,72.3,0,75,0,78.3
					c0,3.3,2.1,6.1,5.1,7.1c-2.9,1-5.1,3.8-5.1,7.1c0,4.1,3.4,7.5,7.5,7.5c0.5,0,1-0.1,1.5-0.2c2.6-0.5,4.7-2.4,5.6-4.9
					c1,2.9,3.8,5.1,7.1,5.1s6.1-2.1,7.1-5.1c1,2.9,3.8,5.1,7.1,5.1s6.1-2.1,7.1-5.1c1,2.9,3.8,5,7.1,5c3.3,0,6.1-2.1,7.1-5.1
					c1,2.9,3.8,5.1,7.1,5.1c3.3,0,6.1-2.1,7.1-5.1c1,2.9,3.8,5.1,7.1,5.1c3.3,0,6.1-2.1,7.1-5.1c1,2.9,3.8,5.1,7.1,5.1
					c4.1,0,7.5-3.4,7.5-7.5c0-3.3-2.1-6.1-5.1-7.1c2.9-1,5.1-3.8,5.1-7.1c0-3.3-2.1-6.1-5.1-7.1c2.9-1,5.1-3.8,5.1-7.1
					s-2.1-6.1-5.1-7.1c2.9-1,5.1-3.8,5.1-7.1c0-3.3-2.1-6.1-5.1-7.1c2.9-1,5.1-3.8,5.1-7.1s-2.1-6.1-5.1-7.1
					C97.9,27.7,100,25,100,21.7z M90.1,85.4c-2.2,0.8-3.9,2.5-4.6,4.6c-1-2.9-3.8-5.1-7.1-5.1c-3.3,0-6.1,2.1-7.1,5.1
					c-1-2.9-3.8-5.1-7.1-5.1c-3.3,0-6.1,2.1-7.1,5.1c-1-2.9-3.8-5.1-7.1-5.1c-3.3,0-6.1,2.1-7.1,5.1c-1-2.9-3.8-5.1-7.1-5.1
					s-6.1,2.1-7.1,5.1c-1-2.9-3.8-5.1-7.1-5.1s-6.1,2.1-7.1,5.1c-0.8-2.2-2.5-3.9-4.6-4.6c2.9-1,5.1-3.8,5.1-7.1
					c0-3.3-2.1-6.1-5.1-7.1c2.9-1,5.1-3.8,5.1-7.1s-2.1-6.1-5.1-7.1c2.9-1,5.1-3.8,5.1-7.1c0-3.3-2.1-6.1-5.1-7.1
					c2.9-1,5.1-3.8,5.1-7.1s-2.1-6.1-5.1-7.1c2.9-1,5.1-3.8,5.1-7.1s-2.1-6.1-5.1-7.1c2.2-0.8,3.9-2.5,4.6-4.6
					c1,2.9,3.8,5.1,7.1,5.1s6.1-2.1,7.1-5.1c1,2.9,3.8,5.1,7.1,5.1s6.1-2.1,7.1-5.1c1,2.9,3.8,5.1,7.1,5.1c3.3,0,6.1-2.1,7.1-5.1
					c1,2.9,3.8,5.1,7.1,5.1c3.3,0,6.1-2.1,7.1-5.1c1,2.9,3.8,5.1,7.1,5.1c3.3,0,6.1-2.1,7.1-5.1c0.8,2.2,2.5,3.9,4.6,4.6
					c-2.9,1-5.1,3.8-5.1,7.1s2.1,6.1,5.1,7.1c-2.9,1-5.1,3.8-5.1,7.1s2.1,6.1,5.1,7.1c-2.9,1-5.1,3.8-5.1,7.1c0,3.3,2.1,6.1,5.1,7.1
					c-2.9,1-5.1,3.8-5.1,7.1c0,3.3,2.1,6.1,5.1,7.1c-2.9,1-5.1,3.8-5.1,7.1C85,81.6,87.1,84.4,90.1,85.4z"/>
			</g>
		</g>
	</g>
	<g transform="translate(806,0) scale(2.1485148514851, 2.1485148514851)">
		<g transform="">
			<g>
				<path class="st0" d="M90.1,71.2c-2.9-1-5.1-3.8-5.1-7.1s2.1-6.1,5.1-7.1c-2.9-1-5.1-3.8-5.1-7.1c0-3.3,2.1-6.1,5.1-7.1
					c-2.9-1-5.1-3.8-5.1-7.1s2.1-6.1,5.1-7.1c-2.9-1-5.1-3.8-5.1-7.1s2.1-6.1,5.1-7.1c-2.2-0.8-3.9-2.5-4.6-4.6
					c-1,2.9-3.8,5.1-7.1,5.1c-3.3,0-6.1-2.1-7.1-5.1c-1,2.9-3.8,5.1-7.1,5.1c-3.3,0-6.1-2.1-7.1-5.1c-1,2.9-3.8,5.1-7.1,5.1
					c-3.3,0-6.1-2.1-7.1-5.1c-1,2.9-3.8,5.1-7.1,5.1s-6.1-2.1-7.1-5.1c-1,2.9-3.8,5.1-7.1,5.1s-6.1-2.1-7.1-5.1
					c-0.8,2.2-2.5,3.9-4.6,4.6c2.9,1,5.1,3.8,5.1,7.1s-2.1,6.1-5.1,7.1c2.9,1,5.1,3.8,5.1,7.1s-2.1,6.1-5.1,7.1
					c2.9,1,5.1,3.8,5.1,7.1c0,3.3-2.1,6.1-5.1,7.1c2.9,1,5.1,3.8,5.1,7.1c0,3.3-2.1,6.1-5.1,7.1c2.9,1,5.1,3.8,5.1,7.1
					c0,3.3-2.1,6.1-5.1,7.1c2.2,0.8,3.9,2.5,4.6,4.6c1-2.9,3.8-5.1,7.1-5.1s6.1,2.1,7.1,5.1c1-2.9,3.8-5.1,7.1-5.1s6.1,2.1,7.1,5.1
					c1-2.9,3.8-5.1,7.1-5.1c3.3,0,6.1,2.1,7.1,5.1c1-2.9,3.8-5.1,7.1-5.1c3.3,0,6.1,2.1,7.1,5.1c1-2.9,3.8-5.1,7.1-5.1
					c3.3,0,6.1,2.1,7.1,5.1c0.8-2.2,2.5-3.9,4.6-4.6c-2.9-1-5.1-3.8-5.1-7.1C85,75,87.1,72.3,90.1,71.2z"/>
				<path d="M100,21.7c0-3.3-2.1-6.1-5.1-7.1c2.9-1,5.1-3.8,5.1-7.1c0-4.1-3.4-7.5-7.5-7.5c-3.3,0-6.1,2.1-7.1,5.1
					c-1-2.9-3.8-5.1-7.1-5.1c-3.3,0-6.1,2.1-7.1,5.1c-1-2.9-3.8-5.1-7.1-5.1c-3.3,0-6.1,2.1-7.1,5.1C56.1,2.1,53.3,0,50,0
					c-3.3,0-6.1,2.1-7.1,5.1c-1-2.9-3.8-5.1-7.1-5.1s-6.1,2.1-7.1,5.1C27.7,2.1,25,0,21.7,0s-6.1,2.1-7.1,5.1C13.6,2.1,10.8,0,7.5,0
					C3.4,0,0,3.4,0,7.5c0,3.3,2.1,6.1,5.1,7.1c-2.9,1-5.1,3.8-5.1,7.1s2.1,6.1,5.1,7.1c-2.9,1-5.1,3.8-5.1,7.1s2.1,6.1,5.1,7.1
					C2.1,43.9,0,46.7,0,50c0,3.3,2.1,6.1,5.1,7.1c-2.9,1-5.1,3.8-5.1,7.1c0,3.3,2.1,6.1,5.1,7.1C2.1,72.3,0,75,0,78.3
					c0,3.3,2.1,6.1,5.1,7.1c-2.9,1-5.1,3.8-5.1,7.1c0,4.1,3.4,7.5,7.5,7.5c0.5,0,1-0.1,1.5-0.2c2.6-0.5,4.7-2.4,5.6-4.9
					c1,2.9,3.8,5.1,7.1,5.1s6.1-2.1,7.1-5.1c1,2.9,3.8,5.1,7.1,5.1s6.1-2.1,7.1-5.1c1,2.9,3.8,5,7.1,5c3.3,0,6.1-2.1,7.1-5.1
					c1,2.9,3.8,5.1,7.1,5.1c3.3,0,6.1-2.1,7.1-5.1c1,2.9,3.8,5.1,7.1,5.1c3.3,0,6.1-2.1,7.1-5.1c1,2.9,3.8,5.1,7.1,5.1
					c4.1,0,7.5-3.4,7.5-7.5c0-3.3-2.1-6.1-5.1-7.1c2.9-1,5.1-3.8,5.1-7.1c0-3.3-2.1-6.1-5.1-7.1c2.9-1,5.1-3.8,5.1-7.1
					s-2.1-6.1-5.1-7.1c2.9-1,5.1-3.8,5.1-7.1c0-3.3-2.1-6.1-5.1-7.1c2.9-1,5.1-3.8,5.1-7.1s-2.1-6.1-5.1-7.1
					C97.9,27.7,100,25,100,21.7z M90.1,85.4c-2.2,0.8-3.9,2.5-4.6,4.6c-1-2.9-3.8-5.1-7.1-5.1c-3.3,0-6.1,2.1-7.1,5.1
					c-1-2.9-3.8-5.1-7.1-5.1c-3.3,0-6.1,2.1-7.1,5.1c-1-2.9-3.8-5.1-7.1-5.1c-3.3,0-6.1,2.1-7.1,5.1c-1-2.9-3.8-5.1-7.1-5.1
					s-6.1,2.1-7.1,5.1c-1-2.9-3.8-5.1-7.1-5.1s-6.1,2.1-7.1,5.1c-0.8-2.2-2.5-3.9-4.6-4.6c2.9-1,5.1-3.8,5.1-7.1
					c0-3.3-2.1-6.1-5.1-7.1c2.9-1,5.1-3.8,5.1-7.1s-2.1-6.1-5.1-7.1c2.9-1,5.1-3.8,5.1-7.1c0-3.3-2.1-6.1-5.1-7.1
					c2.9-1,5.1-3.8,5.1-7.1s-2.1-6.1-5.1-7.1c2.9-1,5.1-3.8,5.1-7.1s-2.1-6.1-5.1-7.1c2.2-0.8,3.9-2.5,4.6-4.6
					c1,2.9,3.8,5.1,7.1,5.1s6.1-2.1,7.1-5.1c1,2.9,3.8,5.1,7.1,5.1s6.1-2.1,7.1-5.1c1,2.9,3.8,5.1,7.1,5.1c3.3,0,6.1-2.1,7.1-5.1
					c1,2.9,3.8,5.1,7.1,5.1c3.3,0,6.1-2.1,7.1-5.1c1,2.9,3.8,5.1,7.1,5.1c3.3,0,6.1-2.1,7.1-5.1c0.8,2.2,2.5,3.9,4.6,4.6
					c-2.9,1-5.1,3.8-5.1,7.1s2.1,6.1,5.1,7.1c-2.9,1-5.1,3.8-5.1,7.1s2.1,6.1,5.1,7.1c-2.9,1-5.1,3.8-5.1,7.1c0,3.3,2.1,6.1,5.1,7.1
					c-2.9,1-5.1,3.8-5.1,7.1c0,3.3,2.1,6.1,5.1,7.1c-2.9,1-5.1,3.8-5.1,7.1C85,81.6,87.1,84.4,90.1,85.4z"/>
			</g>
		</g>
	</g>
	<g transform="translate(0,806) scale(2.1485148514851, 2.1485148514851)">
		<g transform="">
			<g>
				<path class="st0" d="M90.1,71.2c-2.9-1-5.1-3.8-5.1-7.1s2.1-6.1,5.1-7.1c-2.9-1-5.1-3.8-5.1-7.1c0-3.3,2.1-6.1,5.1-7.1
					c-2.9-1-5.1-3.8-5.1-7.1s2.1-6.1,5.1-7.1c-2.9-1-5.1-3.8-5.1-7.1s2.1-6.1,5.1-7.1c-2.2-0.8-3.9-2.5-4.6-4.6
					c-1,2.9-3.8,5.1-7.1,5.1c-3.3,0-6.1-2.1-7.1-5.1c-1,2.9-3.8,5.1-7.1,5.1c-3.3,0-6.1-2.1-7.1-5.1c-1,2.9-3.8,5.1-7.1,5.1
					c-3.3,0-6.1-2.1-7.1-5.1c-1,2.9-3.8,5.1-7.1,5.1s-6.1-2.1-7.1-5.1c-1,2.9-3.8,5.1-7.1,5.1s-6.1-2.1-7.1-5.1
					c-0.8,2.2-2.5,3.9-4.6,4.6c2.9,1,5.1,3.8,5.1,7.1s-2.1,6.1-5.1,7.1c2.9,1,5.1,3.8,5.1,7.1s-2.1,6.1-5.1,7.1
					c2.9,1,5.1,3.8,5.1,7.1c0,3.3-2.1,6.1-5.1,7.1c2.9,1,5.1,3.8,5.1,7.1c0,3.3-2.1,6.1-5.1,7.1c2.9,1,5.1,3.8,5.1,7.1
					c0,3.3-2.1,6.1-5.1,7.1c2.2,0.8,3.9,2.5,4.6,4.6c1-2.9,3.8-5.1,7.1-5.1s6.1,2.1,7.1,5.1c1-2.9,3.8-5.1,7.1-5.1s6.1,2.1,7.1,5.1
					c1-2.9,3.8-5.1,7.1-5.1c3.3,0,6.1,2.1,7.1,5.1c1-2.9,3.8-5.1,7.1-5.1c3.3,0,6.1,2.1,7.1,5.1c1-2.9,3.8-5.1,7.1-5.1
					c3.3,0,6.1,2.1,7.1,5.1c0.8-2.2,2.5-3.9,4.6-4.6c-2.9-1-5.1-3.8-5.1-7.1C85,75,87.1,72.3,90.1,71.2z"/>
				<path d="M100,21.7c0-3.3-2.1-6.1-5.1-7.1c2.9-1,5.1-3.8,5.1-7.1c0-4.1-3.4-7.5-7.5-7.5c-3.3,0-6.1,2.1-7.1,5.1
					c-1-2.9-3.8-5.1-7.1-5.1c-3.3,0-6.1,2.1-7.1,5.1c-1-2.9-3.8-5.1-7.1-5.1c-3.3,0-6.1,2.1-7.1,5.1C56.1,2.1,53.3,0,50,0
					c-3.3,0-6.1,2.1-7.1,5.1c-1-2.9-3.8-5.1-7.1-5.1s-6.1,2.1-7.1,5.1C27.7,2.1,25,0,21.7,0s-6.1,2.1-7.1,5.1C13.6,2.1,10.8,0,7.5,0
					C3.4,0,0,3.4,0,7.5c0,3.3,2.1,6.1,5.1,7.1c-2.9,1-5.1,3.8-5.1,7.1s2.1,6.1,5.1,7.1c-2.9,1-5.1,3.8-5.1,7.1s2.1,6.1,5.1,7.1
					C2.1,43.9,0,46.7,0,50c0,3.3,2.1,6.1,5.1,7.1c-2.9,1-5.1,3.8-5.1,7.1c0,3.3,2.1,6.1,5.1,7.1C2.1,72.3,0,75,0,78.3
					c0,3.3,2.1,6.1,5.1,7.1c-2.9,1-5.1,3.8-5.1,7.1c0,4.1,3.4,7.5,7.5,7.5c0.5,0,1-0.1,1.5-0.2c2.6-0.5,4.7-2.4,5.6-4.9
					c1,2.9,3.8,5.1,7.1,5.1s6.1-2.1,7.1-5.1c1,2.9,3.8,5.1,7.1,5.1s6.1-2.1,7.1-5.1c1,2.9,3.8,5,7.1,5c3.3,0,6.1-2.1,7.1-5.1
					c1,2.9,3.8,5.1,7.1,5.1c3.3,0,6.1-2.1,7.1-5.1c1,2.9,3.8,5.1,7.1,5.1c3.3,0,6.1-2.1,7.1-5.1c1,2.9,3.8,5.1,7.1,5.1
					c4.1,0,7.5-3.4,7.5-7.5c0-3.3-2.1-6.1-5.1-7.1c2.9-1,5.1-3.8,5.1-7.1c0-3.3-2.1-6.1-5.1-7.1c2.9-1,5.1-3.8,5.1-7.1
					s-2.1-6.1-5.1-7.1c2.9-1,5.1-3.8,5.1-7.1c0-3.3-2.1-6.1-5.1-7.1c2.9-1,5.1-3.8,5.1-7.1s-2.1-6.1-5.1-7.1
					C97.9,27.7,100,25,100,21.7z M90.1,85.4c-2.2,0.8-3.9,2.5-4.6,4.6c-1-2.9-3.8-5.1-7.1-5.1c-3.3,0-6.1,2.1-7.1,5.1
					c-1-2.9-3.8-5.1-7.1-5.1c-3.3,0-6.1,2.1-7.1,5.1c-1-2.9-3.8-5.1-7.1-5.1c-3.3,0-6.1,2.1-7.1,5.1c-1-2.9-3.8-5.1-7.1-5.1
					s-6.1,2.1-7.1,5.1c-1-2.9-3.8-5.1-7.1-5.1s-6.1,2.1-7.1,5.1c-0.8-2.2-2.5-3.9-4.6-4.6c2.9-1,5.1-3.8,5.1-7.1
					c0-3.3-2.1-6.1-5.1-7.1c2.9-1,5.1-3.8,5.1-7.1s-2.1-6.1-5.1-7.1c2.9-1,5.1-3.8,5.1-7.1c0-3.3-2.1-6.1-5.1-7.1
					c2.9-1,5.1-3.8,5.1-7.1s-2.1-6.1-5.1-7.1c2.9-1,5.1-3.8,5.1-7.1s-2.1-6.1-5.1-7.1c2.2-0.8,3.9-2.5,4.6-4.6
					c1,2.9,3.8,5.1,7.1,5.1s6.1-2.1,7.1-5.1c1,2.9,3.8,5.1,7.1,5.1s6.1-2.1,7.1-5.1c1,2.9,3.8,5.1,7.1,5.1c3.3,0,6.1-2.1,7.1-5.1
					c1,2.9,3.8,5.1,7.1,5.1c3.3,0,6.1-2.1,7.1-5.1c1,2.9,3.8,5.1,7.1,5.1c3.3,0,6.1-2.1,7.1-5.1c0.8,2.2,2.5,3.9,4.6,4.6
					c-2.9,1-5.1,3.8-5.1,7.1s2.1,6.1,5.1,7.1c-2.9,1-5.1,3.8-5.1,7.1s2.1,6.1,5.1,7.1c-2.9,1-5.1,3.8-5.1,7.1c0,3.3,2.1,6.1,5.1,7.1
					c-2.9,1-5.1,3.8-5.1,7.1c0,3.3,2.1,6.1,5.1,7.1c-2.9,1-5.1,3.8-5.1,7.1C85,81.6,87.1,84.4,90.1,85.4z"/>
			</g>
		</g>
	</g>
	<g transform="translate(62,62) scale(0.93, 0.93)">
		<g transform="">
			<path d="M0,100C5.9,66.7,5.9,33.3,0,0c16.7,3,33.4,4.4,50,4.4C66.6,4.4,83.3,3,100,0c-5.9,33.3-5.9,66.7,0,100
				c-16.7-3-33.4-4.4-50-4.4C33.4,95.6,16.7,97,0,100z"/>
		</g>
	</g>
	<g transform="translate(868,62) scale(0.93, 0.93)">
		<g transform="">
			<path d="M0,100C5.9,66.7,5.9,33.3,0,0c16.7,3,33.4,4.4,50,4.4C66.6,4.4,83.3,3,100,0c-5.9,33.3-5.9,66.7,0,100
				c-16.7-3-33.4-4.4-50-4.4C33.4,95.6,16.7,97,0,100z"/>
		</g>
	</g>
	<g transform="translate(62,868) scale(0.93, 0.93)">
		<g transform="">
			<path d="M0,100C5.9,66.7,5.9,33.3,0,0c16.7,3,33.4,4.4,50,4.4C66.6,4.4,83.3,3,100,0c-5.9,33.3-5.9,66.7,0,100
				c-16.7-3-33.4-4.4-50-4.4C33.4,95.6,16.7,97,0,100z"/>
		</g>
	</g>
</g>
</svg>
